/* XPM */
static char *rcp09250050526811[] = {
/* columns rows colors chars-per-pixel */
"32 34 8 1 ",
"  c #222222",
". c gray20",
"X c #483B3A",
"o c #775C55",
"O c #4BA747",
"+ c #97DA3F",
"@ c #AA8D7A",
"# c white",
/* pixels */
"################################",
"################################",
"################################",
"################################",
"################################",
"################################",
"################################",
"################################",
"################################",
"###############     ############",
"############## OO +O ###########",
"############# O+++ ++ ##########",
"############# OOO+O++ ##########",
"############## OOOOO ###########",
"###############     ############",
"############            ########",
"############ o@oooooooo ########",
"###########  o@@   @@   ########",
"########## o o@@   @@    #######",
"######### oo o@@ooo@@ooo #######",
"######## oo@ o@@@@@@@@@@ #######",
"######## o@@ oo.@.@.@.@. #######",
"####### o@@@  oo@@@@@@@@ #######",
"####### ooo@o ooooooooo  #######",
"####### o@@@@            #######",
"####### oo@@@@@@@o.o@@@@ #######",
"####### ooo@@@@@@@@@@@@@ #######",
"#######                  #######",
"###### .................. ######",
"######                    ######",
"###### ....X.XXXXXXXXXXXX ######",
"###### ...XXXXXXXXXXXXXXX ######",
"###### .....X.XXXXXXXXXXX ######",
"####### ................ #######"
};
