/* XPM */
static char *rcp0924515052537[] = {
/* columns rows colors chars-per-pixel */
"32 36 5 1 ",
"  c #222222",
". c #DA4E38",
"X c #9F294E",
"o c #FDF7ED",
"O c white",
/* pixels */
"OOOOOOOOOOOOOOOOOOOOOOOOOOOOOOOO",
"OOOOOOOOOOOOOOOOOOOOOOOOOOOOOOOO",
"OOOOOOOOOOOOOOOOOOOOOOOOOOOOOOOO",
"OOOOOOOOOOOOOOOOOOOOOOOOOOOOOOOO",
"OOOOOOOOOOOOOOOOOOOOOOOOOOOOOOOO",
"OOOOOOOOOOOOOOOOOOOOOOOOOOOOOOOO",
"OOOOOOOOOOOOOOOOO OOOOOOOOOOOOOO",
"OOOOOOOOOOOOOO O OOOO OOOOOOOOOO",
"OOOOOOOOOOOOO  O O O OOOOOOOOOOO",
"OOOOOOOO   OO        OOOOOOOOOOO",
"OOOOOOOOO     ..XX..X OO  OOOOOO",
"OOOOOOOO      ..oo..o    OOOOOOO",
"OOOOO     X X ..oo..o X  OOOOOOO",
"OOOOOO  X ..X ..  ..  .X O OOOOO",
"OOOOOOO X....X       X..   OOOOO",
"OOOOOO   XX...XXXXXXX...  OOOOOO",
"OOOOOO  XX.............. OOOOOOO",
"OOOOO    X . . . . . .   OOOOOOO",
"OOOOOOO       o o o o o  OOOOOOO",
"OOOOOOOOO       o   o   OOOOOOOO",
"OOOOOOOOOO             OOOOOOOOO",
"OOOOOOOOOO             OOOOOOOOO",
"OOOOOOOOOO             OOOOOOOOO",
"OOOOOO  O               OO  OOOO",
"OOOOOOO        o     o     OOOOO",
"OOOOOO       o o o o o o  OOOOOO",
"OOOOOO    X X . . . . X  OOOOOOO",
"OOOOOOO X .............X OOOOOOO",
"OOOOOOO XXXX............ OOOOOOO",
"OOOOOOO  XX....X........  OOOOOO",
"OOOOOO  XXXXXXXXXX..XX..   OOOOO",
"OOOOO   XXXXXXXXXXXXXXXX O OOOOO",
"OOOOO OO XXXX      XXXX OOOOOOOO",
"OOOOOOOOO XX OOOOOO XX OOOOOOOOO",
"OOOOOOOOO X OOOOOOO X OOOOOOOOOO",
"OOOOOOOOO   OOOOOOO   OOOOOOOOOO"
};
