/* XPM */
static char *rcp09245434873534[] = {
/* columns rows colors chars-per-pixel */
"32 36 5 1 ",
"  c #222222",
". c #DA4E38",
"X c #9F294E",
"o c #FDF7ED",
"O c white",
/* pixels */
"OOOOOOOOOOOOOOOOOOOOOOOOOOOOOOOO",
"OOOOOOOOOOOOOOOOOOOOOOOOOOOOOOOO",
"OOOOOOOOOOOOOOOOOOOOOOOOOOOOOOOO",
"OOOOOOOOOOOOOOOOOOOOOOOOOOOOOOOO",
"OOOOOOOOOOOOOOOOOOOOOOOOOOOOOOOO",
"OOOOOOOOOOOOOOOOOOOOOOOOOOOOOOOO",
"OOOOOOOOOOOOOOOOOOOOOOOOOOOOOOOO",
"OOOOOOOOOOOOOOOOOOOOOOOOOOOOOOOO",
"OOOOOOOOOOOOOOOO OOOOOOOOOOOOOOO",
"OOOOOOOOOOOOOO O OOO OOOOOOOOOOO",
"OOOOOOOOOOOOO  O O O OOOOOOOOOOO",
"OOOOOOOOOOOOO        OOOOOOOOOOO",
"OOOOOOOOOOOOO ..XX..X OOOOOOOOOO",
"OOOOOOOOOOOOO ..oo..o OOOOOOOOOO",
"OOOOOOOOOOOOO ..oo..o OOOOOOOOOO",
"OOOOO OOO OOO ..oo..o OOOOOOOOOO",
"OOOOO  OO  OO ..oo..o OO OOOOOOO",
"OOOOOO  O     ..oo..o O  OOOOOOO",
"OOOOOO        ..  ..     OOOOOOO",
"OOOOOO   XX .X       XX  O OOOOO",
"OOOO O X .....XXXXXXX..XX  OOOOO",
"OOOO   X.................  OOOOO",
"OOOOO   XXX..............  OOOOO",
"OOOOO  XX................ OOOOOO",
"OOOOO   X  . . . . . .    OOOOOO",
"OOOOOO        o o o o o   OOOOOO",
"OOOO  OO        o   o    OOOOOOO",
"OOOOO          o     o   OOOOOOO",
"OOOOO        o o o o o o  OO OOO",
"OOO      XX X . . . . X      OOO",
"OOOO  XX ..............XXX  OOOO",
"OOOOO XXXXXX.............. O OOO",
"OOO O  XXXX....X..........   OOO",
"OOO   XXXXXXXXXXXX..XX....  OOOO",
"OOOO  XXXXXXXXXXXXXXXXXXXX OOOOO",
"OOOOO   XXXXX      XXXXX   OOOOO"
};
