/* XPM */
static char *rcp0924561147444[] = {
/* columns rows colors chars-per-pixel */
"32 36 5 1 ",
"  c #222222",
". c #DA4E38",
"X c #9F294E",
"o c #FDF7ED",
"O c white",
/* pixels */
"OOOOOOOOOOOOOOOOOOOOOOOOOOOOOOOO",
"OOOOOOOOOOOOOOOOOOOOOOOOOOOOOOOO",
"OOOOOOOOOOOOOOOOOOOOOOOOOOOOOOOO",
"OOOOOOOOOOOOOOOOO OOOOOOOOOOOOOO",
"OOOOOOOOOOOOOO O OOOO OOOOOOOOOO",
"OOOOOOOOOOOOO  O O O OOOOOOOOOOO",
"OOOOOOOO             O OOOOOOOOO",
"OOOOOOOOO     ..XX..X   OOOOOOOO",
"OOOOOO    X X ..oo..o X  OOOOOOO",
"OOOOO   X ..X ..oo..o .X  OOOOOO",
"OOOO    X.... ..  ..  ..  OOOOOO",
"OOOO OO  XX..X       X..  OOOOOO",
"OOOOOO  XX....XXXXXXX... OOOOOOO",
"OOOOOO   X . . . . . .   OOOOOOO",
"OOOOO         o o o o o  OOOOOOO",
"OOOO  OOO       o   o   OOOOOOOO",
"OOOOOOOOO O            OOOOOOOOO",
"OOOOOOOOOOOO         O OOOOOOOOO",
"OOOOOOOOO O           OOOOOOOOOO",
"OOOOO   O               OOOOOOOO",
"OOOOOOO        o     o    OOOOOO",
"OOOOOO       o o o o o o  OOOOOO",
"OOOO      X X . . . . X  OOOOOOO",
"OOOOOOO X .............X OOOOOOO",
"OOOOOOO XXXX............ OOOOOOO",
"OOOOOOO  XX....X........ OOOOOOO",
"OOOOOO  XXXXXXXXXX..XX..  OOOOOO",
"OOOO    XXXXXXXXXXXXXXXX  OOOOOO",
"OOOOOO XXXXXX      XXXX  OOOOOOO",
"OOOOOO XXX   OOOOOO XXXX  OOOOOO",
"OOOOOO X  OOOOOOOOOO   XX OOOOOO",
"OOOOOO   OOOOOOOOOOOOOO  OOOOOOO",
"OOOOOOOOOOOOOOOOOOOOOOOOOOOOOOOO",
"OOOOOOOOOOOOOOOOOOOOOOOOOOOOOOOO",
"OOOOOOOOOOOOOOOOOOOOOOOOOOOOOOOO",
"OOOOOOOOOOOOOOOOOOOOOOOOOOOOOOOO"
};
