/* XPM */
static char *rcp0924578951467[] = {
/* columns rows colors chars-per-pixel */
"32 36 5 1 ",
"  c #222222",
". c #DA4E38",
"X c #9F294E",
"o c #FDF7ED",
"O c white",
/* pixels */
"OOOOOOOOOOOOOOOOOOOOOOOOOOOOOOOO",
"OOOOOOOOOOOOOOOOOOOOOOOOOOOOOOOO",
"OOOOOOOOOOOOOOOOOOOOOOOOOOOOOOOO",
"OOOOOOOOOOOOOOOOOOOOOOOOOOOOOOOO",
"OOOOOOOOOOOOOOOOOOOOOOOOOOOOOOOO",
"OOOOOOOOOOOOOOOOOOOOOOOOOOOOOOOO",
"OOOOOOOOOOOOOOOOOOOOOOOOOOOOOOOO",
"OOOOOOOOOOOOOOOOOOOOOOOOOOOOOOOO",
"OOOOOOOOOOOOOOOO OOOOOOOOOOOOOOO",
"OOOOOOOOOOOOOO O OOO OOOOOOOOOOO",
"OOOOOOOOOOOOO  O O O OOOOOOOOOOO",
"OOOOOOOOOOOOO        OOOOOOOOOOO",
"OOOOOOOO OOOO ..XX..X OOOOOOOOOO",
"OOOOOOOO  OOO ..oo..o OOOOOOOOOO",
"OOOO OOOO  OO ..oo..o O OOOOOOOO",
"OOOO  OO      ..oo..o O  OOOOOOO",
"OOOO          ..oo..o    OOOOOOO",
"OOOOO    XX X ..oo..o XX  OOOOOO",
"OOOOOO X ...X ..  ..  ..X  OOOOO",
"OOOOOO X.....X       X...  OOOOO",
"OOOO    XXX...XXXXXXX....  OOOOO",
"OOOOO  XX................ OOOOOO",
"OOOOOO  X  . . . . . .    OOOOOO",
"OOOOOOO       o o o o o  OOOOOOO",
"OOOOO OOO       o   o   OOOOOOOO",
"OOOOO   O               OOOOOOOO",
"OOOOOO         o     o   OOOOOOO",
"OOOO         o o o o o o  OOOOOO",
"OOOOO     X X . . . . X   OOOOOO",
"OOOOOO X ..............XX OOOOOO",
"OOOOOO XXXXX............. OOOOOO",
"OOOOOO  XXX....X......... OOOOOO",
"OOOO   XXXXXXXXXXX..XX... OOOOOO",
"OOOOO   XXXXXXXXXXXXXXXXX  OOOOO",
"OOOOOO       XXXXX       OOOOOOO",
"OOOOOOOOOOOOO XXX OOOOOOOOOOOOOO"
};
