/* XPM */
static char *rcp09250392644578[] = {
/* columns rows colors chars-per-pixel */
"32 34 8 1 ",
"  c #222222",
". c gray20",
"X c #483B3A",
"o c #775C55",
"O c #4BA747",
"+ c #97DA3F",
"@ c #AA8D7A",
"# c white",
/* pixels */
"################################",
"#################   ############",
"###############  +O+ ###########",
"############## O  ++ ###########",
"############# O+++OO ###########",
"############# OOOOO ############",
"############# OOO  #############",
"##############   ###############",
"################################",
"############            ########",
"############ o@oooooooo ########",
"###########  o@@   @@   ########",
"########## o o@@   @@    #######",
"######### oo o@@ooo@@ooo #######",
"######## oo@ o@@@@@@@@@@ #######",
"######## o@@ oo.@.@.@.@. #######",
"####### o@@@  oo@@@@@@@@ #######",
"####### oo@@o ooooooooo ########",
"####### oo@@o            #######",
"####### o@@@@@@@@@.@@@@@ #######",
"####### ooo@@@@@@@@@@@@@ #######",
"########                ########",
"######## .............. ########",
"########                ########",
"######## ..X.XXXXXXXXXX ########",
"######## .XXXXXXXXXXXXX ########",
"######## ...X.XXXXXXXXX ########",
"######   ..XXXXXXXXXXXX ########",
"###### ......X    XXXXX ########",
"###### ....... ### XX.. ########",
"###### ...... #### .... ########",
"######       ##### .... ########",
"################## .... ########",
"##################      ########"
};
