/* XPM */
static char *rcp09250306751167[] = {
/* columns rows colors chars-per-pixel */
"32 34 8 1 ",
"  c #222222",
". c gray20",
"X c #483B3A",
"o c #775C55",
"O c #4BA747",
"+ c #97DA3F",
"@ c #AA8D7A",
"# c white",
/* pixels */
"################################",
"##############        ##########",
"############# OOO +OO  #########",
"############ O++++ +++ #########",
"############  OOO+O++ ##########",
"############            ########",
"############ o@oooooooo ########",
"############ o@@   @@   ########",
"###########  o@@   @@    #######",
"########## o o@@ooo@@ooo #######",
"######### oo o@@@@@@@@@@ #######",
"######## oo@ oo.@.@.@.@. #######",
"######## o@@  oo@@@@@@@@ #######",
"####### o@@@o ooooooooo ########",
"####### oo@@@           ########",
"####### oo@@ooo@@@@@@ooo #######",
"####### o@@@@@@@@@@@@@@@ #######",
"####### oo@@@@@@@@.@@@@@ #######",
"####### ooo@@@@@@@@@@@@@ #######",
"#######                  #######",
"####### ................ #######",
"#######                  #######",
"####### ...X.XXXXXXXXXXX #######",
"####### ..XXXXXXXXXXXXXX #######",
"####### ....X.XXXXXXXXX.. ######",
"####### ...XXXXXXXXXX.... ######",
"###### .......       .... ######",
"###### ....... ###### ... ######",
"###### .... #########     ######",
"######      ####################",
"################################",
"################################",
"################################",
"################################"
};
