/* XPM */
static char *rcp09373732913743[] = {
/* columns rows colors chars-per-pixel */
"480 32 35 1 ",
"  c black",
". c #010001",
"X c #010101",
"o c #030000",
"O c #020101",
"+ c #000201",
"@ c #000002",
"# c #010102",
"$ c #020102",
"% c #020202",
"& c #000700",
"* c #020204",
"= c #040404",
"- c #000F00",
"; c #090909",
": c gray5",
"> c #141313",
", c #151515",
"< c #181818",
"1 c gray10",
"2 c #232323",
"3 c #232324",
"4 c #2F2F2F",
"5 c #323232",
"6 c #343434",
"7 c #3A3B3A",
"8 c #3F3F3F",
"9 c gray28",
"0 c gray33",
"q c #585858",
"w c #B0291B",
"e c #CB1703",
"r c #DD1404",
"t c #E50D0E",
"y c white",
/* pixels */
"yyyyyyyyyyyyyyyyyyyyyyyyyyyyyyyyyyyyyyyyyyyyyyyyyyyyyyyyyyyyyyyyyyyyyyyyyyyyyyyyyyyyyyyyyyyyyyyyyyyyyyyyyyyyyyyyyyyyyyyyyyyyyyyyyyyyyyyyyyyyyyyyyyyyyyyyyyyyyyyyyyyyyyyyyyyyyyyyyyyyyyyyyyyyyyyyyyyyyyyyyyyyyyyyyyyyyyyyyyyyyyyyyyyyyyyyyyyyyyyyyyyyyyyyyyyyyyyyyyyyyyyyyyyyyyyyyyyyyyyyyyyyyyyyyyyyyyyyyyyyyyyyyyyyyyyyyyyyyyyyyyyyyyyyyyyyyyyyyyyyyyyyyyyyyyyyyyyyyyyyyyyyyyyyyyyyyyyyyyyyyyyyyyyyyyyyyyyyyyyyyyyyyyyyyyyyyyyyyyyyyyyyyyyyyyyyyyyyyyyyyyyyyyyyyyyyyyyyyyyyyyyyyyyyyyyyyyyyyyyy",
"yyyyyX>yyyyyyXXyyyyyyyyyyyyyyyyyyyyyyX>yyyyyyXXyyyyyyyyyyyyyyyyyyyyyyX>yyyyyyXXyyyyyyyyyyyyyyyyyyyyyyX>yyyyyyXXyyyyyyyyyyyyyyyyyyyyyyX>yyyyyyXXyyyyyyyyyyyyyyyyyyyyyyX>yyyyyyXXyyyyyyyyyyyyyyyyyyyyyyX>yyyyyyXXyyyyyyyyyyyyyyyyyyyyyyX>yyyyyyXXyyyyyyyyyyyyyyyyyyyyyyyyyyyyyyyyyyyyyyyyyyyyyyyyyyyyyyyyyyyyyyyyyyyyyyyyyyyyyyyyyyyyyyyyyyyyyyyyyyyyyyyyyyyyyyyyyyyyyyyyyyyyyyyyyyyyyyyyyyyyyyyyyyyyyyyyyyyyyyyyyyyyyyyyyyyyyyyyyyyyyyyyyyyyyyyyyyyyyyyyyyyyyyyyyyyyyyyyyyyyyyyyyyyyyyyyyyyyyyyyy",
"yyyyyX>yyyyyyXXyyyyyyyyyyyyyyyyyyyyyyX>yyyyyyXXyyyyyyyyyyyyyyyyyyyyyyX>yyyyyyXXyyyyyyyyyyyyyyyyyyyyyyX>yyyyyyXXyyyyyyyyyyyyyyyyyyyyyyX>yyyyyyXXyyyyyyyyyyyyyyyyyyyyyyX>yyyyyyXXyyyyyyyyyyyyyyyyyyyyyyX>yyyyyyXXyyyyyyyyyyyyyyyyyyyyyyX>yyyyyyXXyyyyyyyyyyyyyyyyyyyyyyyyX>yyyyyyXXyyyyyyyyyyyyyyyyyyyyyyX>yyyyyyXXyyyyyyyyyyyyyyyyyyyyyyX>yyyyyyXXyyyyyyyyyyyyyyyyyyyyyyX>yyyyyyXXyyyyyyyyyyyyyyyyyyyyyyX>yyyyyyXXyyyyyyyyyyyyyyyyyyyyyyX>yyyyyyXXyyyyyyyyyyyyyyyyyyyyyyX>yyyyyyXXyyyyyyyyyyyyyyy",
"yyyyyXX;5544XX>yyyyyyyyyyyyyyyyyyyyyyXX;5544XX>yyyyyyyyyyyyyyyyyyyyyyXX;5544XX>yyyyyyyyyyyyyyyyyyyyyyXX;5544XX>yyyyyyyyyyyyyyyyyyyyyyXX;5544XX>yyyyyyyyyyyyyyyyyyyyyyXX;5544XX>yyyyyyyyyyyyyyyyyyyyyyXX;5544XX>yyyyyyyyyyyyyyyyyyyyyyXX;5544XX>yyyyyyyyyyyyyyyyyyyyyyyXXX;5544XX>yyyyyyyyyyyyyyyyyyyyyXXX;5544XX>yyyyyyyyyyyyyyyyyyyyyXXX;5544XX>yyyyyyyyyyyyyyyyyyyyyXXX;5544XX>yyyyyyyyyyyyyyyyyyyyyXXX;5544XX>yyyyyyyyyyyyyyyyyyyyyXXX;5544XX>yyyyyyyyyyyyyyyyyyyyyXXX;5544XX>yyyyyyyyyyyyyyy",
"yyyyyXXXXXXXXX>yyyyyyyyyyyyyyyyyyyyyyXXXXXXXXX>yyyyyyyyyyyyyyyyyyyyyyXXXXXXXXX>yyyyyyyyyyyyyyyyyyyyyyXXXXXXXXX>yyyyyyyyyyyyyyyyyyyyyyXXXXXXXXX>yyyyyyyyyyyyyyyyyyyyyyXXXXXXXXX>yyyyyyyyyyyyyyyyyyyyyyXXXXXXXXX>yyyyyyyyyyyyyyyyyyyyyyXXXXXXXXX>yyyyyyyyyyyyyyyyyyyyyyyXXXXXXXXXX>yyyyyyyyyyyyyyyyyyyyyXXXXXXXXXX>yyyyyyyyyyyyyyyyyyyyyXXXXXXXXXX>yyyyyyyyyyyyyyyyyyyyyXXXXXXXXXX>yyyyyyyyyyyyyyyyyyyyyXXXXXXXXXX>yyyyyyyyyyyyyyyyyyyyyXXXXXXXXXX>yyyyyyyyyyyyyyyyyyyyyXXXXXXXXXX>yyyyyyyyyyyyyyy",
"yyyyyXXXXXXXXXXyyyyyyyyyyyyyyyyyyyyyyXXXXXXXXXXyyyyyyyyyyyyyyyyyyyyyyXXXXXXXXXXyyyyyyyyyyyyyyyyyyyyyyXXXXXXXXXXyyyyyyyyyyyyyyyyyyyyyyXXXXXXXXXXyyyyyyyyyyyyyyyyyyyyyyXXXXXXXXXXyyyyyyyyyyyyyyyyyyyyyyXXXXXXXXXXyyyyyyyyyyyyyyyyyyyyyyXXXXXXXXXXyyyyyyyyyyyyyyyyyyyyyyyXXXXXXXXXXXyyyyyyyyyyyyyyyyyyyyyXXXXXXXXXXXyyyyyyyyyyyyyyyyyyyyyXXXXXXXXXXXyyyyyyyyyyyyyyyyyyyyyXXXXXXXXXXXyyyyyyyyyyyyyyyyyyyyyXXXXXXXXXXXyyyyyyyyyyyyyyyyyyyyyXXXXXXXXXXXyyyyyyyyyyyyyyyyyyyyyXXXXXXXXXXXyyyyyyyyyyyyyyy",
"yyyyXXXweXXweXX>yyyyyyyyyyyyyyyyyyyyXXXweXXweXX>yyyyyyyyyyyyyyyyyyyyXXXXXXXXXXX>yyyyyyyyyyyyyyyyyyyyXXXweXXweXX>yyyyyyyyyyyyyyyyyyyyXXXweXXweXX>yyyyyyyyyyyyyyyyyyyyXXXweXXweXX>yyyyyyyyyyyyyyyyyyyyXXXweXXweXX>yyyyyyyyyyyyyyyyyyyyXXXweXXweXX>yyyyyyyyyyyyyyyyyyyyyyXXXXXXXXXXX>yyyyyyyyyyyyyyyyyyyyXXXXXXXXXXX>yyyyyyyyyyyyyyyyyyyyXXXXXXXXXXX>yyyyyyyyyyyyyyyyyyyyXXXXXXXXXXX>yyyyyyyyyyyyyyyyyyyyXXXXXXXXXXX>yyyyyyyyyyyyyyyyyyyyXXXXXXXXXXX>yyyyyyyyyyyyyyyyyyyyXXXXXXXXXXX>yyyyyyyyyyyyyy",
"yyyyXXXtr*Xtr*X>yyyyyyyyyyyyyyyyyyyyXXXtr*Xtr*X>yyyyyyyyyyyyyyyyyyyyXXXXX*XXX*X>yyyyyyyyyyyyyyyyyyyyXXXtr*Xtr*X>yyyyyyyyyyyyyyyyyyyyXXXtr*Xtr*X>yyyyyyyyyyyyyyyyyyyyXXXtr*Xtr*X>yyyyyyyyyyyyyyyyyyyyXXXtr*Xtr*X>yyyyyyyyyyyyyyyyyyyyXXXtr*Xtr*X>yyyyyyyyyyyyyyyyyyyyyyXXXXweXXweX>yyyyyyyyyyyyyyyyyyyyXXXXX*XXX*X>yyyyyyyyyyyyyyyyyyyyXXXXX*XXX*X>yyyyyyyyyyyyyyyyyyyyXXXXweXXweX>yyyyyyyyyyyyyyyyyyyyXXXXweXXweX>yyyyyyyyyyyyyyyyyyyyXXXXweXXweX>yyyyyyyyyyyyyyyyyyyyXXXXweXXweX>yyyyyyyyyyyyyy",
"yyyyXXX-&XX-&XX>yyyyyyyyyyyyyyyyyyyyXXX-&XX-&XX>yyyyyyyyyyyyyyyyyyyyXXX-&XX-&XX>yyyyyyyyyyyyyyyyyyyyXXX-&XX-&XX>yyyyyyyyyyyyyyyyyyyyXXX-&XX-&XX>yyyyyyyyyyyyyyyyyyyyXXX-&XX-&XX>yyyyyyyyyyyyyyyyyyyyXXX-&XX-&XX>yyyyyyyyyyyyyyyyyyyyXXX-&XX-&XX>yyyyyyyyyyyyyyyyyyyyyyXXX-tr*XtrX>yyyyyyyyyyyyyyyyyyyyXXX-&XX-&XX>yyyyyyyyyyyyyyyyyyyyXXX-&XX-&XX>yyyyyyyyyyyyyyyyyyyyXXX-tr*XtrX>yyyyyyyyyyyyyyyyyyyyXXX-tr*XtrX>yyyyyyyyyyyyyyyyyyyyXXX-tr*XtrX>yyyyyyyyyyyyyyyyyyyyXXX-tr*XtrX>yyyyyyyyyyyyyy",
"yyyyXXXXXXXXXXXXyyyyyyyyyyyyyyyyyyyyXXXXXXXXXXXXyyyyyyyyyyyyyyyyyyyyXXXXXXXXXXXXyyyyyyyyyyyyyyyyyyyyXXXXXXXXXXXXyyyyyyyyyyyyyyyyyyyyXXXXXXXXXXXXyyyyyyyyyyyyyyyyyyyyXXXXXXXXXXXXyyyyyyyyyyyyyyyyyyyyXXXXXXXXXXXXyyyyyyyyyyyyyyyyyyyyXXXXXXXXXXXXyyyyyyyyyyyyyyyyyyyyyyXXXXXXXXXXXXyyyyyyyyyyyyyyyyyyyyXXXXXXXXXXXXyyyyyyyyyyyyyyyyyyyyXXXXXXXXXXXXyyyyyyyyyyyyyyyyyyyyXXXXXXXXXXXXyyyyyyyyyyyyyyyyyyyyXXXXXXXXXXXXyyyyyyyyyyyyyyyyyyyyXXXXXXXXXXXXyyyyyyyyyyyyyyyyyyyyXXXXXXXXXXXXyyyyyyyyyyyyyy",
"yyyy1XXXXXXXXXXXX3yyyyyyyyyyyyyyyyyy1XXXXXXXXXXXX3yyyyyyyyyyyyyyyyyy1XXXXXXXXXXXX3yyyyyyyyyyyyyyyyyy1XXXXXXXXXXXX3yyyyyyyyyyyyyyyyyy1XXXXXXXXXXXX3yyyyyyyyyyyyyyyyyy1XXXXXXXXXXXX3yyyyyyyyyyyyyyyyyy1XXXXXXXXXXXX3yyyyyyyyyyyyyyyyyy1XXXXXXXXXXXX3yyyyyyyyyyyyyyyyyyyy1XXXXXXXXXXXyyyyyyyyyyyyyyyyyyyy1XXXXXXXXXXXyyyyyyyyyyyyyyyyyyyy1XXXXXXXXXXXyyyyyyyyyyyyyyyyyyyy1XXXXXXXXXXXyyyyyyyyyyyyyyyyyyyy1XXXXXXXXXXXyyyyyyyyyyyyyyyyyyyy1XXXXXXXXXXXyyyyyyyyyyyyyyyyyyyy1XXXXXXXXXXXyyyyyyyyyyyyyy",
"yyyyyXXXXXXXXXXXXX1yyyyyyyyyyyyyyyyyyXXXXXXXXXXXXX1yyyyyyyyyyyyyyyyyyXXXXXXXXXXXXX1yyyyyyyyyyyyyyyyyyXXXXXXXXXXXXX1yyyyyyyyyyyyyyyyyyXXXXXXXXXXXXX1yyyyyyyyyyyyyyyyyyXXXXXXXXXXXXX1yyyyyyyyyyyyyyyyyyXXXXXXXXXXXXX1yyyyyyyyyyyyyyyyyyXXXXXXXXXXXXX1yyyyyyyyyyyyyyyyyyyXXXXXXXXXXXX1yyyyyyyyyyyyyyyyyyyXXXXXXXXXXXX1yyyyyyyyyyyyyyyyyyyXXXXXXXXXXXX1yyyyyyyyyyyyyyyyyyyXXXXXXXXXXXX1yyyyyyyyyyyyyyyyyyyXXXXXXXXXXXX1yyyyyyyyyyyyyyyyyyyXXXXXXXXXXXX1yyyyyyyyyyyyyyyyyyyXXXXXXXXXXXX1yyyyyyyyyyyyy",
"yyyyyy2XXXXXXXXXX>XXyyyyyyyyyyyyyyyyyy2XXXXXXXXXX>XXyyyyyyyyyyyyyyyyyy2XXXXXXXXXX>XXyyyyyyyyyyyyyyyyyy2XXXXXXXXXX>XXyyyyyyyyyyyyyyyyyy2XXXXXXXXXX>XXyyyyyyyyyyyyyyyyyy2XXXXXXXXXX>XXyyyyyyyyyyyyyyyyyy2XXXXXXXXXX>XXyyyyyyyyyyyyyyyyyy2XXXXXXXXXX>XXyyyyyyyyyyyyyyyyyy2XXXXXXXXXX>XXyyyyyyyyyyyyyyyyyy2XXXXXXXXXX>XXyyyyyyyyyyyyyyyyyy2XXXXXXXXXX>XXyyyyyyyyyyyyyyyyyy2XXXXXXXXXX>XXyyyyyyyyyyyyyyyyyy2XXXXXXXXXX>XXyyyyyyyyyyyyyyyyyy2XXXXXXXXXX>XXyyyyyyyyyyyyyyyyyy2XXXXXXXXXX>XXyyyyyyyyyyyy",
"yyyyyy,XXXXXXXXXXX>XXyyyX>yyyyyyyyyyyy,XXXXXXXXXXX>XXyyyX>yyyyyyyyyyyy,XXXXXXXXXXX>XXyyyX>yyyyyyyyyyyy,XXXXXXXXXXX>XXyyyX>yyyyyyyyyyyy,XXXXXXXXXXX>XXyyyX>yyyyyyyyyyyy,XXXXXXXXXXX>XXyyyX>yyyyyyyyyyyy,XXXXXXXXXXX>XXyyyX>yyyyyyyyyyyy,XXXXXXXXXXX>XXyyyX>yyyyyyyyyyyy,XXXXXXXXXXX>XXyyyX>yyyyyyyyyyyy,XXXXXXXXXXX>XXyyyX>yyyyyyyyyyyy,XXXXXXXXXXX>XXyyyX>yyyyyyyyyyyy,XXXXXXXXXXX>XXyyyX>yyyyyyyyyyyy,XXXXXXXXXXX>XXyyyX>yyyyyyyyyyyy,XXXXXXXXXXX>XXyyyX>yyyyyyyyyyyy,XXXXXXXXXXX>XXyyyX>yyyyyy",
"yyyyyy=XXXXXXXXXXX>>X6yyXXXyyyyyyyyyyy=XXXXXXXXXXX>>X6yyXXXyyyyyyyyyyy=XXXXXXXXXXX>>X6yyXXXyyyyyyyyyyy=XXXXXXXXXXX>>X6yyXXXyyyyyyyyyyy=XXXXXXXXXXX>>X6yyXXXyyyyyyyyyyy=XXXXXXXXXXX>>X6yyXXXyyyyyyyyyyy=XXXXXXXXXXX>>X6yyXXXyyyyyyyyyyy=XXXXXXXXXXX>>X6yyXXXyyyyyyyyyyy=XXXXXXXXXXX>>X6yyXXXyyyyyyyyyyy=XXXXXXXXXXX>>X6yyXXXyyyyyyyyyyy=XXXXXXXXXXX>>X6yyXXXyyyyyyyyyyy=XXXXXXXXXXX>>X6yyXXXyyyyyyyyyyy=XXXXXXXXXXX>>X6yyXXXyyyyyyyyyyy=XXXXXXXXXXX>>X6yyXXXyyyyyyyyyyy=XXXXXXXXXXX>>X6yyXXXyyyyy",
"yyyyyyXXXXXXXXXXXXXX>X7yyXXXyyyyyyyyyyXXXXXXXXXXXXXX>X7yyXXXyyyyyyyyyyXXXXXXXXXXXXXX>X7yyXXXyyyyyyyyyyXXXXXXXXXXXXXX>X7yyXXXyyyyyyyyyyXXXXXXXXXXXXXX>X7yyXXXyyyyyyyyyyXXXXXXXXXXXXXX>X7yyXXXyyyyyyyyyyXXXXXXXXXXXXXX>X7yyXXXyyyyyyyyyyXXXXXXXXXXXXXX>X7yyXXXyyyyyyyyyyXXXXXXXXXXXXXX>X7yyXXXyyyyyyyyyyXXXXXXXXXXXXXX>X7yyXXXyyyyyyyyyyXXXXXXXXXXXXXX>X7yyXXXyyyyyyyyyyXXXXXXXXXXXXXX>X7yyXXXyyyyyyyyyyXXXXXXXXXXXXXX>X7yyXXXyyyyyyyyyyXXXXXXXXXXXXXX>X7yyXXXyyyyyyyyyyXXXXXXXXXXXXXX>X7yyXXXyyyy",
"yyyyyyXXXXXXXXXXXXXX>>XyyyXXyyyyyyyyyyXXXXXXXXXXXXXX>>XyyyXXyyyyyyyyyyXXXXXXXXXXXXXX>>XyyyXXyyyyyyyyyyXXXXXXXXXXXXXX>>XyyyXXyyyyyyyyyyXXXXXXXXXXXXXX>>XyyyXXyyyyyyyyyyXXXXXXXXXXXXXX>>XyyyXXyyyyyyyyyyXXXXXXXXXXXXXX>>XyyyXXyyyyyyyyyyXXXXXXXXXXXXXX>>XyyyXXyyyyyyyyyyXXXXXXXXXXXXXX>>XyyyXXyyyyyyyyyyXXXXXXXXXXXXXX>>XyyyXXyyyyyyyyyyXXXXXXXXXXXXXX>>XyyyXXyyyyyyyyyyXXXXXXXXXXXXXX>>XyyyXXyyyyyyyyyyXXXXXXXXXXXXXX>>XyyyXXyyyyyyyyyyXXXXXXXXXXXXXX>>XyyyXXyyyyyyyyyyXXXXXXXXXXXXXX>>XyyyXXyyyy",
"yyyyyyXXXXXXXXXXXXXXX>X0yyXXXyyyyyyyyyXXXXXXXXXXXXXXX>X0yyXXXyyyyyyyyyXXXXXXXXXXXXXXX>X0yyXXXyyyyyyyyyXXXXXXXXXXXXXXX>X0yyXXXyyyyyyyyyXXXXXXXXXXXXXXX>X0yyXXXyyyyyyyyyXXXXXXXXXXXXXXX>X0yyXXXyyyyyyyyyXXXXXXXXXXXXXXX>X0yyXXXyyyyyyyyyXXXXXXXXXXXXXXX>X0yyXXXyyyyyyyyyXXXXXXXXXXXXXXX>X0yyXXXyyyyyyyyyXXXXXXXXXXXXXXX>X0yyXXXyyyyyyyyyXXXXXXXXXXXXXXX>X0yyXXXyyyyyyyyyXXXXXXXXXXXXXXX>X0yyXXXyyyyyyyyyXXXXXXXXXXXXXXX>X0yyXXXyyyyyyyyyXXXXXXXXXXXXXXX>X0yyXXXyyyyyyyyyXXXXXXXXXXXXXXX>X0yyXXXyyy",
"yyyyyyXXXXXXXXXXXXXXX>>XyyXX>yyyyyyyyyXXXXXXXXXXXXXXX>>XyyXX>yyyyyyyyyXXXXXXXXXXXXXXX>>XyyXX>yyyyyyyyyXXXXXXXXXXXXXXX>>XyyXX>yyyyyyyyyXXXXXXXXXXXXXXX>>XyyXX>yyyyyyyyyXXXXXXXXXXXXXXX>>XyyXX>yyyyyyyyyXXXXXXXXXXXXXXX>>XyyXX>yyyyyyyyyXXXXXXXXXXXXXXX>>XyyXX>yyyyyyyyyXXXXXXXXXXXXXXX>>XyyXX>yyyyyyyyyXXXXXXXXXXXXXXX>>XyyXX>yyyyyyyyyXXXXXXXXXXXXXXX>>XyyXX>yyyyyyyyyXXXXXXXXXXXXXXX>>XyyXX>yyyyyyyyyXXXXXXXXXXXXXXX>>XyyXX>yyyyyyyyyXXXXXXXXXXXXXXX>>XyyXX>yyyyyyyyyXXXXXXXXXXXXXXX>>XyyXX>yyy",
"yyyyy:XXXXXXXXXXXXXXXX>XyyXX>yyyyyyyy:XXXXXXXXXXXXXXXX>XyyXX>yyyyyyyy:XXXXXXXXXXXXXXXX>XyyXX>yyyyyyyy:XXXXXXXXXXXXXXXX>XyyXX>yyyyyyyy:XXXXXXXXXXXXXXXX>XyyXX>yyyyyyyy:XXXXXXXXXXXXXXXX>XyyXX>yyyyyyyy:XXXXXXXXXXXXXXXX>XyyXX>yyyyyyyy:XXXXXXXXXXXXXXXX>XyyXX>yyyyyyyy:XXXXXXXXXXXXXXXX>XyyXX>yyyyyyyy:XXXXXXXXXXXXXXXX>XyyXX>yyyyyyyy:XXXXXXXXXXXXXXXX>XyyXX>yyyyyyyy:XXXXXXXXXXXXXXXX>XyyXX>yyyyyyyy:XXXXXXXXXXXXXXXX>XyyXX>yyyyyyyy:XXXXXXXXXXXXXXXX>XyyXX>yyyyyyyy:XXXXXXXXXXXXXXXX>XyyXX>yyy",
"yyyyyXXXXXXXXXXXXXXXXXXXyyXX>yyyyyyyyXXXXXXXXXXXXXXXXXXXyyXX>yyyyyyyyXXXXXXXXXXXXXXXXXXXyyXX>yyyyyyyyXXXXXXXXXXXXXXXXXXXyyXX>yyyyyyyyXXXXXXXXXXXXXXXXXXXyyXX>yyyyyyyyXXXXXXXXXXXXXXXXXXXyyXX>yyyyyyyyXXXXXXXXXXXXXXXXXXXyyXX>yyyyyyyyXXXXXXXXXXXXXXXXXXXyyXX>yyyyyyyyXXXXXXXXXXXXXXXXXXXyyXX>yyyyyyyyXXXXXXXXXXXXXXXXXXXyyXX>yyyyyyyyXXXXXXXXXXXXXXXXXXXyyXX>yyyyyyyyXXXXXXXXXXXXXXXXXXXyyXX>yyyyyyyyXXXXXXXXXXXXXXXXXXXyyXX>yyyyyyyyXXXXXXXXXXXXXXXXXXXyyXX>yyyyyyyyXXXXXXXXXXXXXXXXXXXyyXX>yyy",
"yyyyyXXXXXXXXXXXXXXXXXXXyyXX>yyyyyyyyXXXXXXXXXXXXXXXXXXXyyXX>yyyyyyyyXXXXXXXXXXXXXXXXXXXyyXX>yyyyyyyyXXXXXXXXXXXXXXXXXXXyyXX>yyyyyyyyXXXXXXXXXXXXXXXXXXXyyXX>yyyyyyyyXXXXXXXXXXXXXXXXXXXyyXX>yyyyyyyyXXXXXXXXXXXXXXXXXXXyyXX>yyyyyyyyXXXXXXXXXXXXXXXXXXXyyXX>yyyyyyyyXXXXXXXXXXXXXXXXXXXyyXX>yyyyyyyyXXXXXXXXXXXXXXXXXXXyyXX>yyyyyyyyXXXXXXXXXXXXXXXXXXXyyXX>yyyyyyyyXXXXXXXXXXXXXXXXXXXyyXX>yyyyyyyyXXXXXXXXXXXXXXXXXXXyyXX>yyyyyyyyXXXXXXXXXXXXXXXXXXXyyXX>yyyyyyyyXXXXXXXXXXXXXXXXXXXyyXX>yyy",
"yyyyyXXXXXXXXXXXXXXXXXXXyXXX>yyyyyyyyXXXXXXXXXXXXXXXXXXXyXXX>yyyyyyyyXXXXXXXXXXXXXXXXXXXyXXX>yyyyyyyyXXXXXXXXXXXXXXXXXXXyXXX>yyyyyyyyXXXXXXXXXXXXXXXXXXXyXXX>yyyyyyyyXXXXXXXXXXXXXXXXXXXyXXX>yyyyyyyyXXXXXXXXXXXXXXXXXXXyXXX>yyyyyyyyXXXXXXXXXXXXXXXXXXXyXXX>yyyyyyyyXXXXXXXXXXXXXXXXXXXyXXX>yyyyyyyyXXXXXXXXXXXXXXXXXXXyXXX>yyyyyyyyXXXXXXXXXXXXXXXXXXXyXXX>yyyyyyyyXXXXXXXXXXXXXXXXXXXyXXX>yyyyyyyyXXXXXXXXXXXXXXXXXXXyXXX>yyyyyyyyXXXXXXXXXXXXXXXXXXXyXXX>yyyyyyyyXXXXXXXXXXXXXXXXXXXyXXX>yyy",
"yyyyyXXXXXXXXXXXXXXXXXXXyXX>>yyyyyyyyXXXXXXXXXXXXXXXXXXXyXX>>yyyyyyyyXXXXXXXXXXXXXXXXXXXyXX>>yyyyyyyyXXXXXXXXXXXXXXXXXXXyXX>>yyyyyyyyXXXXXXXXXXXXXXXXXXXyXX>>yyyyyyyyXXXXXXXXXXXXXXXXXXXyXX>>yyyyyyyyXXXXXXXXXXXXXXXXXXXyXX>>yyyyyyyyXXXXXXXXXXXXXXXXXXXyXX>>yyyyyyyyXXXXXXXXXXXXXXXXXXXyXX>>yyyyyyyyXXXXXXXXXXXXXXXXXXXyXX>>yyyyyyyyXXXXXXXXXXXXXXXXXXXyXX>>yyyyyyyyXXXXXXXXXXXXXXXXXXXyXX>>yyyyyyyyXXXXXXXXXXXXXXXXXXXyXX>>yyyyyyyyXXXXXXXXXXXXXXXXXXXyXX>>yyyyyyyyXXXXXXXXXXXXXXXXXXXyXX>>yyy",
"yyyyyXXXXXXXXXXXXXXXXXXXXXX>XyyyyyyyyXXXXXXXXXXXXXXXXXXXXXX>XyyyyyyyyXXXXXXXXXXXXXXXXXXXXXX>XyyyyyyyyXXXXXXXXXXXXXXXXXXXXXX>XyyyyyyyyXXXXXXXXXXXXXXXXXXXXXX>XyyyyyyyyXXXXXXXXXXXXXXXXXXXXXX>XyyyyyyyyXXXXXXXXXXXXXXXXXXXXXX>XyyyyyyyyXXXXXXXXXXXXXXXXXXXXXX>XyyyyyyyyXXXXXXXXXXXXXXXXXXXXXX>XyyyyyyyyXXXXXXXXXXXXXXXXXXXXXX>XyyyyyyyyXXXXXXXXXXXXXXXXXXXXXX>XyyyyyyyyXXXXXXXXXXXXXXXXXXXXXX>XyyyyyyyyXXXXXXXXXXXXXXXXXXXXXX>XyyyyyyyyXXXXXXXXXXXXXXXXXXXXXX>XyyyyyyyyXXXXXXXXXXXXXXXXXXXXXX>Xyyy",
"yyyyyXXXXXXXXXXXXXXXXXXXXXX>yyyyyyyyyXXXXXXXXXXXXXXXXXXXXXX>yyyyyyyyyXXXXXXXXXXXXXXXXXXXXXX>yyyyyyyyyXXXXXXXXXXXXXXXXXXXXXX>yyyyyyyyyXXXXXXXXXXXXXXXXXXXXXX>yyyyyyyyyXXXXXXXXXXXXXXXXXXXXXX>yyyyyyyyyXXXXXXXXXXXXXXXXXXXXXX>yyyyyyyyyXXXXXXXXXXXXXXXXXXXXXX>yyyyyyyyyXXXXXXXXXXXXXXXXXXXXXX>yyyyyyyyyXXXXXXXXXXXXXXXXXXXXXX>yyyyyyyyyXXXXXXXXXXXXXXXXXXXXXX>yyyyyyyyyXXXXXXXXXXXXXXXXXXXXXX>yyyyyyyyyXXXXXXXXXXXXXXXXXXXXXX>yyyyyyyyyXXXXXXXXXXXXXXXXXXXXXX>yyyyyyyyyXXXXXXXXXXXXXXXXXXXXXX>yyyy",
"yyyyXX>9XXXXXXXXXXXXXXXXXX>>yyyyyyyyXX>9XXXXXXXXXXXXXXXXXX>>yyyyyyyyXX>9XXXXXXXXXXXXXXXXXX>>yyyyyyyyXX>9XXXXXXXXXXXXXXXXXX>>yyyyyyyyXX>9XXXXXXXXXXXXXXXXXX>>yyyyyyyyXX>9XXXXXXXXXXXXXXXXXX>>yyyyyyyyXX>9XXXXXXXXXXXXXXXXXX>>yyyyyyyyXX>9XXXXXXXXXXXXXXXXXX>>yyyyyyyyXX>9XXXXXXXXXXXXXXXXXX>>yyyyyyyyXX>9XXXXXXXXXXXXXXXXXX>>yyyyyyyyXX>9XXXXXXXXXXXXXXXXXX>>yyyyyyyyXX>9XXXXXXXXXXXXXXXXXX>>yyyyyyyyXX>9XXXXXXXXXXXXXXXXXX>>yyyyyyyyXX>9XXXXXXXXXXXXXXXXXX>>yyyyyyyyXX>9XXXXXXXXXXXXXXXXXX>>yyyy",
"yyyyXX>y8XXXXXXXXXXXXXXXX>>yyyyyyyyyXX>y8XXXXXXXXXXXXXXXX>>yyyyyyyyyXX>y8XXXXXXXXXXXXXXXX>>yyyyyyyyyXX>y8XXXXXXXXXXXXXXXX>>yyyyyyyyyXX>y8XXXXXXXXXXXXXXXX>>yyyyyyyyyXX>y8XXXXXXXXXXXXXXXX>>yyyyyyyyyXX>y8XXXXXXXXXXXXXXXX>>yyyyyyyyyXX>y8XXXXXXXXXXXXXXXX>>yyyyyyyyyXX>y8XXXXXXXXXXXXXXXX>>yyyyyyyyyXX>y8XXXXXXXXXXXXXXXX>>yyyyyyyyyXX>y8XXXXXXXXXXXXXXXX>>yyyyyyyyyXX>y8XXXXXXXXXXXXXXXX>>yyyyyyyyyXX>y8XXXXXXXXXXXXXXXX>>yyyyyyyyyXX>y8XXXXXXXXXXXXXXXX>>yyyyyyyyyXX>y8XXXXXXXXXXXXXXXX>>yyyyy",
"yyyqXXXXXXXXXXXXXXXXXXXXX>yyyyyyyyyqXXXXXXXXXXXXXXXXXXXXX>yyyyyyyyyqXXXXXXXXXXXXXXXXXXXXX>yyyyyyyyyqXXXXXXXXXXXXXXXXXXXXX>yyyyyyyyyqXXXXXXXXXXXXXXXXXXXXX>yyyyyyyyyqXXXXXXXXXXXXXXXXXXXXX>yyyyyyyyyqXXXXXXXXXXXXXXXXXXXXX>yyyyyyyyyqXXXXXXXXXXXXXXXXXXXXX>yyyyyyyyyqXXXXXXXXXXXXXXXXXXXXX>yyyyyyyyyqXXXXXXXXXXXXXXXXXXXXX>yyyyyyyyyqXXXXXXXXXXXXXXXXXXXXX>yyyyyyyyyqXXXXXXXXXXXXXXXXXXXXX>yyyyyyyyyqXXXXXXXXXXXXXXXXXXXXX>yyyyyyyyyqXXXXXXXXXXXXXXXXXXXXX>yyyyyyyyyqXXXXXXXXXXXXXXXXXXXXX>yyyyyy",
"yyyXXXXXXXXXXXXXXXXXXXXXXyyyyyyyyyyXXXXXXXXXXXXXXXXXXXXXXyyyyyyyyyyXXXXXXXXXXXXXXXXXXXXXXyyyyyyyyyyXXXXXXXXXXXXXXXXXXXXXXyyyyyyyyyyXXXXXXXXXXXXXXXXXXXXXXyyyyyyyyyyXXXXXXXXXXXXXXXXXXXXXXyyyyyyyyyyXXXXXXXXXXXXXXXXXXXXXXyyyyyyyyyyXXXXXXXXXXXXXXXXXXXXXXyyyyyyyyyyXXXXXXXXXXXXXXXXXXXXXXyyyyyyyyyyXXXXXXXXXXXXXXXXXXXXXXyyyyyyyyyyXXXXXXXXXXXXXXXXXXXXXXyyyyyyyyyyXXXXXXXXXXXXXXXXXXXXXXyyyyyyyyyyXXXXXXXXXXXXXXXXXXXXXXyyyyyyyyyyXXXXXXXXXXXXXXXXXXXXXXyyyyyyyyyyXXXXXXXXXXXXXXXXXXXXXXyyyyyyy",
"yyyyyyyyyyyyyyyyyyyyyyyyyyyyyyyyyyyyyyyyyyyyyyyyyyyyyyyyyyyyyyyyyyyyyyyyyyyyyyyyyyyyyyyyyyyyyyyyyyyyyyyyyyyyyyyyyyyyyyyyyyyyyyyyyyyyyyyyyyyyyyyyyyyyyyyyyyyyyyyyyyyyyyyyyyyyyyyyyyyyyyyyyyyyyyyyyyyyyyyyyyyyyyyyyyyyyyyyyyyyyyyyyyyyyyyyyyyyyyyyyyyyyyyyyyyyyyyyyyyyyyyyyyyyyyyyyyyyyyyyyyyyyyyyyyyyyyyyyyyyyyyyyyyyyyyyyyyyyyyyyyyyyyyyyyyyyyyyyyyyyyyyyyyyyyyyyyyyyyyyyyyyyyyyyyyyyyyyyyyyyyyyyyyyyyyyyyyyyyyyyyyyyyyyyyyyyyyyyyyyyyyyyyyyyyyyyyyyyyyyyyyyyyyyyyyyyyyyyyyyyyyyyyyyyyyyyyyyyyyy",
"yyyyyyyyyyyyyyyyyyyyyyyyyyyyyyyyyyyyyyyyyyyyyyyyyyyyyyyyyyyyyyyyyyyyyyyyyyyyyyyyyyyyyyyyyyyyyyyyyyyyyyyyyyyyyyyyyyyyyyyyyyyyyyyyyyyyyyyyyyyyyyyyyyyyyyyyyyyyyyyyyyyyyyyyyyyyyyyyyyyyyyyyyyyyyyyyyyyyyyyyyyyyyyyyyyyyyyyyyyyyyyyyyyyyyyyyyyyyyyyyyyyyyyyyyyyyyyyyyyyyyyyyyyyyyyyyyyyyyyyyyyyyyyyyyyyyyyyyyyyyyyyyyyyyyyyyyyyyyyyyyyyyyyyyyyyyyyyyyyyyyyyyyyyyyyyyyyyyyyyyyyyyyyyyyyyyyyyyyyyyyyyyyyyyyyyyyyyyyyyyyyyyyyyyyyyyyyyyyyyyyyyyyyyyyyyyyyyyyyyyyyyyyyyyyyyyyyyyyyyyyyyyyyyyyyyyyyyyyyyy"
};
