/* XPM */
static char *rcp0925065205158[] = {
/* columns rows colors chars-per-pixel */
"16 16 7 1 ",
"  c #222222",
". c #62232F",
"X c #8F4029",
"o c #C56025",
"O c #EE8E2E",
"+ c #FACB3E",
"@ c white",
/* pixels */
"@@@@@@@@@@@@@@@@",
"@@  @@@@@@@@  @@",
"  O.        .O  ",
" O+XOOOOOOOOX+O ",
" oOXooooooooXOo ",
" oOXooX..XooXOo ",
" ++.++.++.++.++ ",
"  OX  .O+.  XO  ",
" o     ..     o ",
" o            o ",
" oooooooooooooo ",
" .............. ",
" XXXXXXXXXXXXXX ",
" .XXXXXXXXXXXX. ",
" .............. ",
"                "
};
