/* XPM */
static char *rcp0925153174045[] = {
/* columns rows colors chars-per-pixel */
"16 24 6 1 ",
"  c #222222",
". c #5F2D56",
"X c #DA4E38",
"o c #9F294E",
"O c #FDF7ED",
"+ c white",
/* pixels */
"++++++++++++++++",
"++++++++++++++++",
"++++++++++++++++",
"++++++++++++++++",
"++++++++++++++++",
"++++++++++++++++",
"++++++++++++++++",
"++++++++++++++++",
"++++++++++++++++",
"++++ +++++++ +++",
"+++ O +++++ O ++",
"+++ OO     OO ++",
"+++ OO XXX OO ++",
"+++   XXXXX  +++",
"+++ oXXXXXXX +++",
"+++ oXOOXXXO +++",
"+++ oXOOXXXO +++",
"+++ oX..XXX. +++",
"+++  O O O O +++",
"+++          +++",
"+++ O O O O O+++",
"+++ oXXXXXXX +++",
"+++ oo    oo +++",
"+++   ++++   +++"
};
