/* XPM */
static char *rcp09251620813710[] = {
/* columns rows colors chars-per-pixel */
"16 24 6 1 ",
"  c #222222",
". c #5F2D56",
"X c #DA4E38",
"o c #9F294E",
"O c #FDF7ED",
"+ c white",
/* pixels */
"++++++++++++++++",
"++++++++++++++++",
"++++++++++++++++",
"++++ +++++++ +++",
"+++ O +++++ O ++",
"+++ OO +++ OO ++",
"+++ OO     OO ++",
"+++   XXXXX  +++",
"+++ oXXXXXXX +++",
"+++ oXOOXXXO +++",
"+++ oXOOXXXO +++",
"+++ oX..XXX. +++",
"+++ oXXXXXXX +++",
"+++  O O O O +++",
"+++++      +++++",
"++++++    ++++++",
"+++++++  +++++++",
"++++++    ++++++",
"+++++      +++++",
"+++ O O O O O+++",
"+++ oXXXXXXX +++",
"+++ oo    oo +++",
"+++ oo ++ oo +++",
"+++   ++++   +++"
};
