/* XPM */
static char *rcp09252147317464[] = {
/* columns rows colors chars-per-pixel */
"8 8 2 1 ",
"  c #FDF7ED",
". c white",
/* pixels */
"........",
"...  ...",
"..    ..",
"..    ..",
"..    ..",
"..    ..",
"..    ..",
"...  ..."
};
