/* XPM */
static char *rcp0925258174721[] = {
/* columns rows colors chars-per-pixel */
"16 16 6 1 ",
"  c #21141B",
". c #23151D",
"X c #222222",
"o c #483B3A",
"O c #775C55",
"+ c white",
/* pixels */
"X.oX oOOOOo Xo.X",
"+X.oO.    .Oo X+",
"X+X..OOOOOO..X++",
"+++XX.    .XX+X+",
"++X++XXXXXX+++++",
"++++++X++++X++++",
"+++++X++++++++++",
"++++++++++++++++",
"++++++++++++++++",
"++++++++++++++++",
"++++++++++++++++",
"++++++++++++++++",
"++++++++++++++++",
"++++++++++++++++",
"++++++++++++++++",
"++++++++++++++++"
};
