/* XPM */
static char *rcp092529348452[] = {
/* columns rows colors chars-per-pixel */
"16 32 6 1 ",
"  c #222222",
". c #483B3A",
"X c #775C55",
"o c #AA8D7A",
"O c #D3BFA9",
"+ c white",
/* pixels */
"++++++++++++++++",
"++++++++++++++++",
" +++++++++++++++",
"o ++++++++++++++",
"oo +++++++++++++",
"Oo +++++++++++++",
"  o ++++++++++++",
" Oo ++++++++++++",
" Ooo +++++++++++",
"     +++++++++++",
"X Oo +++++++++++",
". Oo +++++++++++",
". Oo            ",
". Oo.o Xooo oooo",
"  O.oo oooo oooo",
"X .OOO OOOO OOOO",
". XXXX XXXX XX  ",
". .... .... ....",
"  .... .... ....",
"X               ",
". .XX X XXXX XXX",
". ... .. ... ...",
"  ... .. ... ...",
"X               ",
". X XXXX XX XXX ",
". . .... .. ... ",
"  ...... ...... ",
"X               ",
". XXX  XXXX XX X",
".  ..  .... ....",
". ... ..... ....",
"                "
};
