/* XPM */
static char *rcp0925284588622[] = {
/* columns rows colors chars-per-pixel */
"16 32 6 1 ",
"  c #222222",
". c #483B3A",
"X c #775C55",
"o c #AA8D7A",
"O c #D3BFA9",
"+ c white",
/* pixels */
"++++++++++++++++",
"++++++++++++++++",
"++++++++++++++++",
"+++++++++++++++ ",
"++++++++++++++ o",
"++++++++++++++ o",
"+++++++++++++ oo",
"+++++++++++++   ",
"++++++++++++ ooO",
"++++++++++++ oO ",
"++++++++++++    ",
"++++++++++++ oO ",
"             oO ",
"ooooo Xooo o.oO ",
"ooooo oooo oo.O ",
"OOOOO OOOO OOO. ",
"XXXXX XXXX XXXX ",
"..... .... .... ",
"..... .... .... ",
"                ",
"X.XX X XXXX XXX ",
".... .. ... ... ",
".... .. ... ... ",
"                ",
"XX XXXX XX XXXX ",
".. .... .. .... ",
"....... ....... ",
"                ",
"XX XX XXXX XX X ",
".  .. .... .... ",
".. ....... .... ",
"                "
};
