/* XPM */
static char *rcp09252756755193[] = {
/* columns rows colors chars-per-pixel */
"64 35 12 1 ",
"  c #111111",
". c #222222",
"X c #38262D",
"o c #483B3A",
"O c #62232F",
"+ c #775C55",
"@ c #8F4029",
"# c #AA8D7A",
"$ c #72D6CE",
"% c #D3BFA9",
"& c #FDF7ED",
"* c white",
/* pixels */
"************************.................***********************",
"*********************...###.#####.###.###..*********************",
"*******************..####%%.%%%%%.%%%.%###...*******************",
"******************.##.%%%..............%%.###.******************",
"*****************.##%%...++.+++.+++.+++...%%##.*****************",
"****************.##%..+++oo.ooo.ooo.ooo.++..%#..****************",
"***************.#.%.++.oo..............+oo++..##.***************",
"**************.##%.ooo...              ...ooo.%##.**************",
"**************.#%..oo.   @ @@@ O@@ @@@ @  .....%#.**************",
"*************.##%.+..  @@@ @@@ O@@ @@O @@@ .++...#.*************",
"*************....oo+.@ @O@ @@@ O@O @@O @@@ ..oo.%#.*************",
"************.##%.oo. @ @O@ @@@ @@@ @@O @O@  .oo.%##.************",
"************.#%.ooo.@@ @O@ @O@ @@O @OO @O@ @........************",
"************....... @@ @OO @@@ @@O @OO OO@ @O.++.%#.************",
"************.#%.++.@@@ @OO @O@ @@O @OO O@O O@.oo.%#.************",
".............#%.o...@@ @@O @O@ @@O @@O O@O O@.oo.%#.............",
"#####.+###.#o#%.o.$.....OO @O@ O@O @O@ ... @O.oo.%#o#.+###.#####",
"#####.####.##o%...$&$&$.@O @OO O@@ @@...$...@....%o##.####.#####",
"%%%%%.%%%%.%%%o.+.$.....@O @OO O@O @@.$$$$$.O.++.o%%%.%%%%.%%%%%",
"+++++.++++.++++.o...    @O @OO O@@ @O.$...$.O.oo.++++.++++.++..+",
"ooooo.oooo.oooo.oo. @O @@O @OO O@@ OO.&...&.O.oo.oooo.oooo.oooo.",
"ooooo.oooo.oooo....@@O @@O @@O @@@ OO .&&&. O....oooo.oooo.ooooo",
"................++.O@O @O@ @@O @@@ OO@ ... OO.++................",
"+o++.+.++++.+++.oo.O@O @@@ @@@ @O@ OO@     OO.oo.o++.+.++++.++++",
"oooo.oo.ooo.ooo.o...@O @O@ @@@ @O@ OO@ @@@ OO.oo.ooo.oo.ooo.oooo",
"oooo.oo.ooo.ooo...$.....O@ @@@ @O@ O@@ @@@ OO....ooo.oo.ooo.oooo",
"................+.$&$&$.O@ @@@ @O@ O@@ @@@ O@.++................",
"++.++++.++.++++.o.$.....O@ O@@ @O@ O@@ @@@ O@.oo.+.++++.++.+++.X",
"oo.oooo.oo.oooo.o...    O@ O@O @O@ O@@ @@@ O@.oo.o.oooo.oo.ooo.o",
"ooooooo.ooooooo.oo.@@@ @O@ O@O @@@ @@@ O@O OO....oooooo.oooooo.o",
"...................                          .++................",
"++.++.++++.++.+.++............................oo.+++..++++.++.++",
"o..oo.oooo.oooo.oo+.##### #### #### #### ####.oo..oo..oooo.ooooo",
"oo.ooooooo.oooo.ooo+.oooo.oooo.oooo.ooo.oooo.ooo.ooo.ooooo.ooooo",
"................................................................"
};
