/* XPM */
static char *rcp09253284873285[] = {
/* columns rows colors chars-per-pixel */
"16 16 2 1 ",
"  c gray20",
". c white",
/* pixels */
"       .        ",
"................",
"    .     .     ",
"    .     .     ",
"................",
" .    .      .  ",
"................",
"................",
"................",
"................",
"................",
"................",
"................",
"................",
"................",
"................"
};
