/* XPM */
static char *rcp09253373977602[] = {
/* columns rows colors chars-per-pixel */
"16 28 11 1 ",
"  c black",
". c #1F1833",
"X c #222222",
"o c #3D734F",
"O c #DA4E38",
"+ c #4BA747",
"@ c #EE8E2E",
"# c #FACB3E",
"$ c #5698CC",
"% c #FCCBA3",
"& c white",
/* pixels */
"&&&&&&&&&&&&&&&&",
"&&&&&&&&&&&&&&&&",
"&&&&&&&&&&&&&&&&",
"&&&&&&&&&&&&&&&&",
"&&&&&&&&&&&&&&&&",
"&&&&&&&&&&&&&&&&",
"&&&&&&&&&&&&&&&&",
"&&&&&&&&&&&XX&&&",
"&&&&&&&&&&&X#X&&",
"&&&&&XXXXXX@@#X&",
"&&&&X@@@@@####X&",
"&&XX@########X&&",
"&XOOO#######@X&&",
"&XOOO@%%%%%%@&&&",
"&XOOO%$$%%%$X&&&",
"&XX@#%$$%%%$X&&&",
"&&X@#%%%%%%%X&&&",
"&&X@##%%%%%%X&&&",
"&X@@###oo%oo@X&&",
"X@@##+#+++++@@X&",
"  X+++++++++XXX&",
"&&X+++++++++X&&&",
"&XoooooooooooX&&",
"&XXX.%.XX.%.XX&&",
"&&&&..&&&..&&&&&",
"&&&&&&&&&&&&&&&&",
"&&&&&&&&&&&&&&&&",
"&&&&&&&&&&&&&&&&"
};
