/* XPM */
static char *rcp09254170883172[] = {
/* columns rows colors chars-per-pixel */
"16 28 10 1 ",
"  c #222222",
". c #314152",
"X c #3D734F",
"o c #4BA747",
"O c #EE8E2E",
"+ c #FACB3E",
"@ c #5698CC",
"# c #E2B694",
"$ c #FCCBA3",
"% c white",
/* pixels */
"%%%%%%%%%%%%%%%%",
"%%%%%%%%%%%%%%%%",
"%%%%%%%%%%%%%%%%",
"%%%%%%%%%%%%%%%%",
"%%%%%%%%%%%%%%%%",
"%%%%%%%%%%%%% %%",
"%%%%%%%%%%%% + %",
"%%%%          + ",
"%%% OOOO+++++++ ",
"%% OO+++++++++ %",
"%% OOOO###++O %%",
"%%  O##$$$## %%%",
"% $ #$$$$$$$ %%%",
"%% $#$@@$$$@ %%%",
"%% $$$@@$$$@ %%%",
"%% O$$##$$$# %%%",
"% OO#$$$$$$$O %%",
"%   ....$$$$  %%",
"%%% oooo.$.. %%%",
"%%% ooooo.oo %%%",
"%   oooooo.o   %",
"% X ooooooo. X %",
"% XXXXXXXXXXXX %",
"%              %",
"%%%%%%%%%%%%%%%%",
"%%%%%%%%%%%%%%%%",
"%%%%%%%%%%%%%%%%",
"%%%%%%%%%%%%%%%%"
};
