/* XPM */
static char *rcp09255248997435[] = {
/* columns rows colors chars-per-pixel */
"16 16 8 1 ",
"  c #222222",
". c #8F4029",
"X c #C56025",
"o c #EE8E2E",
"O c #FACB3E",
"+ c #B6CBCF",
"@ c #FDF7ED",
"# c white",
/* pixels */
"################",
"################",
"################",
"################",
"####        ####",
"#### ..XXXX ####",
"#### @++++@ ####",
"##### @++@ #####",
"##### @OO@ #####",
"#### @O@OO@ ####",
"### @O@OOOOo ###",
"### @oO@OoOo ###",
"### @OOooOOo ###",
"#### @ooooo ####",
"#####      #####",
"################"
};
