/* XPM */
static char *rcp0926059583285[] = {
/* columns rows colors chars-per-pixel */
"16 16 4 1 ",
"  c #222222",
". c #483B3A",
"X c #775C55",
"o c #FDF7ED",
/* pixels */
"   .    ... .   ",
" ..............X",
"...............X",
"...   ....   ..X",
" .     ..     .X",
"..X o X..X o X.X",
" ..XXX....XXX...",
" ..............X",
" ...............",
"...   ....   ..X",
"..     ..     .X",
" .X o X..X o X..",
" ..XXX....XXX...",
" ..............X",
" ..............X",
"XXX..X.XXXX.XXXX"
};
