/* XPM */
static char *rcp09260683313831[] = {
/* columns rows colors chars-per-pixel */
"16 16 5 1 ",
"  c #222222",
". c #483B3A",
"X c #775C55",
"o c #3C9F9C",
"O c #FDF7ED",
/* pixels */
"   .    ... .   ",
" ..............X",
"...............X",
"... O .... O ..X",
" .  O  ..  O  .X",
"..XooOX..XooOX.X",
" ..XXX....XXX...",
" ..............X",
" ...............",
"... O .... O ..X",
"..  O  ..  O  .X",
" .XoooX..XooOX..",
" ..XXX....XXX...",
" ..............X",
" ..............X",
"XXX..X.XXXX.XXXX"
};
