/* XPM */
static char *rcp09261395847387[] = {
/* columns rows colors chars-per-pixel */
"16 16 5 1 ",
"  c #222222",
". c #314152",
"X c #3D734F",
"o c #FDF7ED",
"O c white",
/* pixels */
"OOOOOOOOOOOOOOOO",
"OOOOOOOOOOOOOOOO",
"OOOOOOOOOOOOOOOO",
"OOOOOOOOOOOOOOOO",
"OOOOOOOOOOOOOOOO",
"OOOO         OOO",
"OOOO .XXXXXX OOO",
"OOOO .X  XX  OOO",
"OOOO .X  XX   OO",
"OOOO .o..XX.o OO",
"OOOO .ooXXXoo OO",
"OOOO .XXXXXXX OO",
"OOOO ..   .. OOO",
"OOOO   OO .. OOO",
"OOOOOOOOOO . OOO",
"OOOOOOOOOOO  OOO"
};
