/* XPM */
static char *rcp09261488025426[] = {
/* columns rows colors chars-per-pixel */
"16 16 7 1 ",
"  c #222222",
". c #3E5442",
"X c #314152",
"o c #3D734F",
"O c #5C7A56",
"+ c #FDF7ED",
"@ c white",
/* pixels */
"@@@@@@@@@@@@@@@@",
"@@@@@@@@@@@@@@@@",
"@@@@@@@@@@@@@@@@",
"@@@@@@@@@@@@@@@@",
"@@@@@@@@@@@@@@@@",
"@@@@@@@@@@@@@@@@",
"@@@@         @@@",
"@@@@ XoooooO @@@",
"@@@@ Xo  oo  @@@",
"@@@@ Xo  oo   @@",
"@@@@ X+XXoo.+ @@",
"@@@@ X++ooo++ @@",
"@@@@ XoooooO @@@",
"@@@@   XX    @@@",
"@@@@@@  X @@@@@@",
"@@@@@@@   @@@@@@"
};
