/* XPM */
static char *rcp09261580120603[] = {
/* columns rows colors chars-per-pixel */
"16 16 3 1 ",
"  c #222222",
". c #483B3A",
"X c #775C55",
/* pixels */
"   .    ... .   ",
" ..............X",
"...............X",
"...............X",
" ...XXXXXXXX...X",
"..XX X  X XXXX.X",
" XX  X    X X X.",
"  X       X    X",
"               .",
".              .",
".X            XX",
" .XX        XX..",
" ...XXXXXXXX....",
" ..............X",
" ..............X",
"XXX..X.XXXX.XXXX"
};
