/* XPM */
static char *rcp09262216194466[] = {
/* columns rows colors chars-per-pixel */
"16 16 5 1 ",
"  c #222222",
". c #417089",
"X c #72D6CE",
"o c #FDF7ED",
"O c white",
/* pixels */
"OOOOOOOOOOOOOOOO",
"OOOOOOOOOOOOOOOO",
"OOOOOOOOOOOOOOOO",
"OOOO        OOOO",
"OOOO .XXXXX OOOO",
"OOOO .XXXXX OOOO",
"OOOO .XXXXX OOOO",
"OOOO .XXXXX OOOO",
"OOOO .  XX  OOOO",
"OOOO .  XX  OOOO",
"OOOO .ooXXo OOOO",
"OOOO .ooXXo OOOO",
"OOOOO .... OOOOO",
"OOO   .XX.   OOO",
"OO .XXXXXXXX. OO",
"OO            OO"
};
