/* XPM */
static char *rcp09263139546379[] = {
/* columns rows colors chars-per-pixel */
"16 28 7 1 ",
"  c #222222",
". c #DC4A7B",
"X c #417089",
"o c #72D6CE",
"O c #F78697",
"+ c #FDF7ED",
"@ c white",
/* pixels */
"@@@@@@@@@@@@@@@@",
"@@@@@ @@@@@@@@@@",
"@@@@ . @@@@@@@@@",
"@@@ . @@@@@@@@@@",
"@@@ . @@@@@@@@@@",
"@@ .O @@@@@@@@@@",
"@@ .OO @@@@@@@@@",
"@@ ..OO @@@@@@@@",
"@@  .OO @@@@@@@@",
"@@@ .. @@@@@@@@@",
"@@          @@@@",
"@@ oooooo++ @@@@",
"@@ ooXXXXXX   @@",
"@@ ooXooooo++ @@",
"@@ ooXoXoXoX+ @@",
"@@ ooXoXoXoX+ @@",
"@@ ooXoXoXoX+ @@",
"@@ ooXooooo++ @@",
"@@ ooXXXXXX   @@",
"@@ ooooooo+ @@@@",
"@   XXXXXXXo   @",
"@ X ooooooo+ X @",
"@ XXooooooo+XX @",
"@              @",
"@@@@@@@@@@@@@@@@",
"@@@@@@@@@@@@@@@@",
"@@@@@@@@@@@@@@@@",
"@@@@@@@@@@@@@@@@"
};
