/* XPM */
static char *rcp09264716177198[] = {
/* columns rows colors chars-per-pixel */
"16 28 7 1 ",
"  c #222222",
". c #DA4E38",
"X c #EE8E2E",
"o c #417089",
"O c #72D6CE",
"+ c #FDF7ED",
"@ c white",
/* pixels */
"@@@@@@@@@@@@@@@@",
"@@@@@@@@@@@@@@@@",
"@@@@@@@@@@@@@@@@",
"@@@@@@@@@@@@@@@@",
"@@@@@@@@@@@@@@@@",
"@@@@@@@@@@@@@@@@",
"@ @@@@@@@@@@@@@@",
" .      @@@@@@@@",
"@ ..XXXX @@@@@@@",
"@@  ..XXX @@@@@@",
"@@@@ ..XX @@@@@@",
"@@@@@ .. @@@@@@@",
"@@@          @@@",
"@@@ OOOOOO++ @@@",
"@@@ OOoooooo   @",
"@@@ OOoOOOOO++ @",
"@@@ OOoOoOoOo+ @",
"@@@ OOoOoOoOo+ @",
"@@@ OOoOoOoOo+ @",
"@@@ OOoOOOOO++ @",
"@@@ OOoooooo   @",
"@@@ OOOOOOO+ @@@",
"@@@ oooooooO @@@",
"@@@ OOOOOOO+ @@@",
"@@@ OOOOOOO+ @@@",
"@@@   ooo    @@@",
"@@@@@@  o @@@@@@",
"@@@@@@@@  @@@@@@"
};
