/* XPM */
static char *rcp09270105146786[] = {
/* columns rows colors chars-per-pixel */
"16 28 9 1 ",
"  c black",
". c #222222",
"X c #483B3A",
"o c #314152",
"O c #3D734F",
"+ c #775C55",
"@ c #4BA747",
"# c #D3BFA9",
"$ c white",
/* pixels */
"$$$$$$$$$$$$$$$$",
"$$$$$$$$$$$$$$$$",
"$$$$$$$$$$$$$$$$",
"$$$$$$$$$$$$$$$$",
"$$$$$$$$$$$$$$$$",
"$$$$$$$$$$$$$$$$",
"$$$$$$$$$$$$$$$$",
"$$$$$$$$$$$$$$$$",
"$$$$$$$$$$$$$$$$",
"$.$$$$.$$$$$$$$$",
"$..$$$..$$$$$$$$",
"$.O..$.O..$$$$$$",
"$.OOO..ooo.....$",
"$$.@@@@@@@@@@@@.",
"$$.@@@@@@@@@@@@.",
"$$.@@@  @@ @@@ .",
"$$.@@@  @@O@@@O.",
"$$.@@@OO@@@@@@@.",
"$$$.@@@@@@@@@@@.",
"$$$.@@@@@Oooo...",
"$$$.@@@@@###.$$$",
"$$$.@@@@####.$$$",
"$$..@@@@####.$$$",
"$.@@XXXXXXXX.$$$",
"$...+++++++@.$$$",
"$$$.@@.++.@@.$$$",
"$$$.@.$..$...$$$",
"$$$..$$$$$$$$$$$"
};
