/* XPM */
static char *rcp09265277010365[] = {
/* columns rows colors chars-per-pixel */
"16 28 11 1 ",
"  c black",
". c #222222",
"X c #62232F",
"o c #314152",
"O c #8F4029",
"+ c #DA4E38",
"@ c #9F294E",
"# c #417089",
"$ c #49A790",
"% c #D3BFA9",
"& c white",
/* pixels */
"&&&&&&&&&&&&&&&&",
"&&&&&&&&&&&&&&&&",
"&&&&&&&&&&&&&&&&",
"&&&&&&&&&&&&&&&&",
"&&&&&&&&&&&&&&&&",
"&&&&&&&&&&&&&&&&",
"&&&&&&&&&&&&&&&&",
"&&&&&&&&&&&&&&&&",
"&&&&&&&&&&&&&&&&",
"&&.....&&&&&&&&&",
"&&.@@++.&&&&&&&&",
"&&&.@@++..&&&&&&",
"&&..@@@@@@.....&",
"&&.$$$$$$$$$$$$.",
"&&.$$$$$$$$$$$$.",
"&&.$$$  $$ $$$ .",
"&&.$$$  $$#$$$#.",
"&&.$$$##$$$$$$$.",
"&&&.$$$$$$$$$$$.",
"&&&.$$$$$#ooo...",
"&&&.$$$$$%%%.&&&",
"&&&.$$$$%%%%.&&&",
"&&..$$$$%%%%.&&&",
"&.$$XXXXXXXX.&&&",
"&...OOOOOOO$.&&&",
"&&&.$$.OO.$$.&&&",
"&&&.$.&..&...&&&",
"&&&..&&&&&&&&&&&"
};
