/* XPM */
static char *rcp09271041191895[] = {
/* columns rows colors chars-per-pixel */
"16 20 8 1 ",
"  c #222222",
". c #62232F",
"X c #314152",
"o c #3D734F",
"O c #8F4029",
"+ c #D3BFA9",
"@ c #FDF7ED",
"# c white",
/* pixels */
"################",
"################",
"################",
"####          ##",
"#### Xo        #",
"#### Xo @@@@@@ #",
"#### X  @  @@  #",
"###   O @  @@  #",
"### OO  @++@@+ #",
"###   o   @  @ #",
"#### Xooo      #",
"#### Xooooooo ##",
"#### XXXXXXXX ##",
"#### ........ ##",
"#### OOOOOOOO ##",
"###  OOOOOOOO ##",
"### ...    .. ##",
"###    ### .. ##",
"########## . ###",
"##########  ####"
};
