/* XPM */
static char *rcp0927279891206[] = {
/* columns rows colors chars-per-pixel */
"32 32 7 1 ",
"  c #222222",
". c #62232F",
"X c #314152",
"o c #3D734F",
"O c #8F4029",
"+ c #FDF7ED",
"@ c white",
/* pixels */
"@@@@@@@@@@@@@@@@@@@@@@@@@@@@@@@@",
"@@@@@@@@@@@@@@@@@@@@@@@@@@@@@@@@",
"@@@@@@@@@@@@@@@@@@@@@@@@@@@@@@@@",
"@@@@@@@@@@@@@@@@@@@@@@@@@@@@@@@@",
"@@@@@@@@@@@@@@@@@@@@@@@@@@@@@@@@",
"@@@@@@@@@@@@@@@@@@@@@@@@@@@@@@@@",
"@@@@@@@@@@@@@          @@@@@@@@@",
"@@@@@@@@@@@@ Xooooooooo @@@@@@@@",
"@@@@@@@@@@@@ Xooooooooo @@@@@@@@",
"@@@@@@@@@@@@ Xooooooooo @@@@@@@@",
"@@@@@@@@@@@@ XoXXXXXXXX @@@@@@@@",
"@@@@@@@@ @   Xoo  oooo  @@@@@@@@",
"@@@@@@@@@  . Xoo  oooo  @@@@@@@@",
"@@@@@@ @ X . Xo+XXooooX+ @@@@@@@",
"@@@@@@@ X  . X ++ooooo++ @@@@@@@",
"@@@@@@  Xo . XX++     ++ @@@@@@@",
"@@@@@@@ Xo .  XXoooooooo @@@@@@@",
"@@@@@@  XX .O XXXXXXXXX  @@@@@@@",
"@@@@@@@ Xo .O          X @@@@@@@",
"@@@@@@@ XX .O XXXXXXXXXX @@@@@@@",
"@@@@@@@ XXo .O ooooooooo @@@@@@@",
"@@@@@@@ Xoo .OO  ooooXXo @@@@@@@",
"@@@@@@@ XXoo .OOO  ooooo @@@@@@@",
"@@@@@@@ XXXoo .OOOO  ooo @@@@@@@",
"@@@@@@       .OOOOOOO     @@@@@@",
"@@@@@@ ....OOOOOOOOOOOOOO @@@@@@",
"@@@@@@ ...OOOOOOOOOOOOOOO @@@@@@",
"@@@@@@ ....OOOOOOOOOOOOO. @@@@@@",
"@@@@@@ ..OOOOOOOOOOO.O... @@@@@@",
"@@@@@@ ...OOOOOOOOOOOOOO. @@@@@@",
"@@@@@@ ..O.OOOOOOOOOOOO.. @@@@@@",
"@@@@@@   ...        ...   @@@@@@"
};
