/* XPM */
static char *rcp09273078662636[] = {
/* columns rows colors chars-per-pixel */
"32 32 7 1 ",
"  c #222222",
". c #62232F",
"X c #314152",
"o c #3D734F",
"O c #8F4029",
"+ c #FDF7ED",
"@ c white",
/* pixels */
"@@@@@@@@@@@@@@@@@@@@@@@@@@@@@@@@",
"@@@@@@@@@@@@@@@@@@@@@@@@@@@@@@@@",
"@@@@@@@@@@@@@@@@@@@@@@@@@@@@@@@@",
"@@@@@@@@@@@@@@@@@@@@@@@@@@@@@@@@",
"@@@@@@@@@@@@@@@@@@@@@@@@@@@@@@@@",
"@@@@@@@@@@@@@@@@@@@@@@@@@@@@@@@@",
"@@@@@@@@@@@@@          @@@@@@@@@",
"@@@@@@@@@@@@ Xooooooooo @@@@@@@@",
"@@@@@@@@@@@@ Xooooooooo @@@@@@@@",
"@@@@@@@@@@@@ Xooooooooo @@@@@@@@",
"@@@@@@@@ @   XoXXXXXXXX @@@@@@@@",
"@@@@@@@@@  . Xoo  oooo  @@@@@@@@",
"@@@@@@ @ X . Xoo  oooo   @@@@@@@",
"@@@@@@@ X  . Xo+XXooooX+ @@@@@@@",
"@@@@@@  Xo . X ++ooooo++ @@@@@@@",
"@@@@@@@ Xo . XX++     ++ @@@@@@@",
"@@@@@@  XX .  XXoooooooo @@@@@@@",
"@@@@@@@ Xo .O XXXXXXXXX  @@@@@@@",
"@@@@@@@ XX .O          X @@@@@@@",
"@@@@@@@ XXo .O ooooooooo @@@@@@@",
"@@@@@@@ Xoo .OO  ooooXXo @@@@@@@",
"@@@@@@@ XXoo .OOO  ooooo @@@@@@@",
"@@@@@@@ XXXoo .OOOO  ooo @@@@@@@",
"@@@@@@       .OOOOOOO     @@@@@@",
"@@@@@@ ....OOOOOOOOOOOOOO @@@@@@",
"@@@@@@ ...OOOOOOOOOOOOOOO @@@@@@",
"@@@@@@ ....OOOOOOOOOOOOO. @@@@@@",
"@@@@@@ ..OOOOOOOOOOO.O... @@@@@@",
"@@@@@@ ...OOOOOOOOOOOOOO. @@@@@@",
"@@@@@@ ..O.OOOOOOOOOOOO.. @@@@@@",
"@@@@@@      ...  ...      @@@@@@",
"@@@@@@@@@@@ ...      @@@@@@@@@@@"
};
