/* XPM */
static char *rcp0927420985185[] = {
/* columns rows colors chars-per-pixel */
"16 20 7 1 ",
"  c #222222",
". c #62232F",
"X c #314152",
"o c #3D734F",
"O c #8F4029",
"+ c #FDF7ED",
"@ c white",
/* pixels */
"@@@@@@@@@@@@@@@@",
"@@@@@@@@@@@@@@@@",
"@@@@@@@@@@@@@@@@",
"@@@@@@@@@@@@@@@@",
"@@@@          @@",
"@@@@ Xooooooo @@",
"@@@@ Xooooooo @@",
"@@@@ Xooooooo @@",
"@@@@ XoXXoooX @@",
"@@@@ Xo  ooo  @@",
"@@@@ XX  ooo   @",
"@@@@ X+XXoooX+ @",
"@@@@ X++oooo++ @",
"@@@@ Xooooooo @@",
"@@@@ ........ @@",
"@@@@ OOOOOOOO @@",
"@@@@ OOOOOOOO @@",
"@@@@ XX    XX @@",
"@@@@ X @@@ X @@@",
"@@@@  @@@@  @@@@"
};
