/* XPM */
static char *rcp09273925551749[] = {
/* columns rows colors chars-per-pixel */
"16 20 8 1 ",
"  c #222222",
". c #62232F",
"X c #314152",
"o c #3D734F",
"O c #8F4029",
"+ c #D44E52",
"@ c #FDF7ED",
"# c white",
/* pixels */
"################",
"################",
"################",
"####          ##",
"#### Xooo+++o ##",
"#### Xooo+o+o ##",
"#### XoXXo+oX ##",
"#### Xo  ooo  ##",
"#### XX  ooo   #",
"#### X@XXoooX@ #",
"#### X@@oooo@@ #",
"#### Xooooooo ##",
"#### ...@.@.@ ##",
"#### OOO@O@O@ ##",
"###  OOOOO@OO ##",
"## ....    ... #",
"## .   ###     #",
"##   ###########",
"################",
"################"
};
