/* XPM */
static char *rcp09275583326795[] = {
/* columns rows colors chars-per-pixel */
"16 16 4 1 ",
"  c #222222",
". c #D3BFA9",
"X c #FDF7ED",
"o c white",
/* pixels */
"ooo          ooo",
"ooo .XXXXXXX ooo",
"ooo .X  XXX  ooo",
"ooo .X  XXX  ooo",
"ooo .X..X X. ooo",
"ooo .XXXXXXX ooo",
"ooo .XXXXXXX ooo",
"ooo .XXXXXXX ooo",
"ooo          ooo",
"oooooo .. oooooo",
"oooooo XX oooooo",
"ooooo  XX oooooo",
"ooooo .XXX ooooo",
"ooooo     . oooo",
"oooooooooo  oooo",
"oooooooooooooooo"
};
