/* XPM */
static char *rcp09280088020862[] = {
/* columns rows colors chars-per-pixel */
"16 16 5 1 ",
"  c #222222",
". c #97DA3F",
"X c #417089",
"o c #49A790",
"O c white",
/* pixels */
"OOOO        OOOO",
"OOO X....... OOO",
"OOO X.oo...o OOO",
"OOO X.  ...  OOO",
"OOO X.  ...  OOO",
"OOO X.oo...o OOO",
"OOO o. . . .oOOO",
"OOO  o   . o OOO",
"OOO      o   OOO",
"OOOO        OOOO",
"OOOO        OOOO",
"OOO          OOO",
"OO o   o      OO",
"O  o o . o oX  O",
"O  XXoo......  O",
"O              O"
};
