/* XPM */
static char *rcp0928128484966[] = {
/* columns rows colors chars-per-pixel */
"16 16 5 1 ",
"  c #222222",
". c #3D734F",
"X c #AA8D7A",
"o c #D3BFA9",
"O c white",
/* pixels */
"OOOOOOOOOOOOOOOO",
"OOOOOOOOOOOOOOOO",
"OOOOOOOOOOOOOOOO",
"OOOOOOOOOOOOOOOO",
"OOOO         OOO",
"OOOO ooooooo OOO",
"OOOO ooooooo OOO",
"OOOO oo  oo  OOO",
"OOOO oo  oo  OOO",
"OOOO oo..oo. OOO",
"OOO  oo..oo. OOO",
"OOO XXX   XXX OO",
"OOO X  OOO    OO",
"OOO  OOOOOOOOOOO",
"OOOOOOOOOOOOOOOO",
"OOOOOOOOOOOOOOOO"
};
