/* XPM */
static char *rcp09281823985662[] = {
/* columns rows colors chars-per-pixel */
"16 16 5 1 ",
"  c #2A2A3A",
". c #483B3A",
"X c #DA4E38",
"o c #FDF7ED",
"O c white",
/* pixels */
"OOOOOOOOOOOOOOOO",
"OOOOOOOOOOOOOOOO",
"OOOoooOOOoooOOOO",
"OOo   oOo   oOOO",
"Oo XXX o ... oOO",
"Oo XXXX .... oOO",
"Oo XXXXX.... oOO",
"Oo XXXX..... oOO",
"OOo XXXX... oOOO",
"OOOo XX... oOOOO",
"OOOOo XX. oOOOOO",
"OOOOOo . oOOOOOO",
"OOOOOOo oOOOOOOO",
"OOOOOOOoOOOOOOOO",
"OOOOOOOOOOOOOOOO",
"OOOOOOOOOOOOOOOO"
};
