/* XPM */
static char *rcp09282875595586[] = {
/* columns rows colors chars-per-pixel */
"16 16 3 1 ",
"  c #222222",
". c #483B3A",
"X c #775C55",
/* pixels */
"XXXXX XXXX XX   ",
"..... .... .... ",
"..... .. . . .. ",
"                ",
"X XX X XXXX XXX ",
".... .. ... ... ",
".... .. ... . . ",
"                ",
"XX XXXX XX XXXX ",
".. .... .. .... ",
"... ... ....... ",
"                ",
"XX XX XXXX XX X ",
".  .. .... .... ",
".. ..... . . .. ",
"                "
};
