/* XPM */
static char *rcp09282506750800[] = {
/* columns rows colors chars-per-pixel */
"16 16 11 1 ",
"  c #140C11",
". c #1C1117",
"X c #1D1218",
"o c #21141B",
"O c #23151D",
"+ c #222222",
"@ c #483B3A",
"# c #775C55",
"$ c #AA8D7A",
"% c #D3BFA9",
"& c white",
/* pixels */
"&&&&&&&&&&&&&&&&",
"&&&&&&&&&&&&&&&&",
"&&&&&&&&&&&&&&&&",
"&&&&&&&&&&&&&&&&",
"&&&&++++++++&&&&",
"&&&+%%%%%%%%+&&&",
"&&+%$$$$$$$$%+&&",
"&+#$$$$$$$$$$#+&",
"&++#$$$$$$$$#++&",
"&+#+########+#+&",
"&+@#++++++++#@+&",
"++@@########@@.+",
"++ @@@@@@@@@@X@@",
"$#oo@@@@@@@@o #$",
"$#o+OooooooO+o#$",
"%#o@++++++++@o#%"
};
