/* XPM */
static char *rcp09285722227916[] = {
/* columns rows colors chars-per-pixel */
"16 16 5 1 ",
"  c #222222",
". c #483B3A",
"X c #775C55",
"o c #DA4E38",
"O c #EE8E2E",
/* pixels */
"X ooOOOOOOOOoo X",
"XX oooooooooo XX",
".XX          XX.",
"..XXXXXXXXXXXX..",
"............... ",
" .............. ",
" .            ..",
" .. .. .    ... ",
" .... ... .. ...",
"................",
"...............X",
" ...............",
" ...............",
" ..............X",
" ..............X",
"XXX..X.XXXX.XXXX"
};
