/* XPM */
static char *rcp09282688023891[] = {
/* columns rows colors chars-per-pixel */
"16 16 5 1 ",
"  c #222222",
". c #483B3A",
"X c #AA8D7A",
"o c #D3BFA9",
"O c white",
/* pixels */
"OOOOOOOOOOO XXX ",
"OOOOOOOOOOO ooo ",
"OOOOOOOOOOO     ",
"OOOOOOOOOOO XXX ",
"OOOOOOOOOOO XXX ",
"OOOOOOOOOOO XXX ",
"OOOOOOOOOOO XXX ",
"OOOOOOOOOOO XXX ",
"OOOOOOOOOOO ooo ",
"OOOOOOOOOOO     ",
"OOOOOOOOOOO XXX ",
"OOOOOOOOOOO XXX ",
"            XXX ",
"XXXXX .XXXX XXX ",
"XXXXX XXXXX XXX ",
"ooooo ooooo ooo "
};
