/* XPM */
static char *rcp09295121312795[] = {
/* columns rows colors chars-per-pixel */
"16 16 3 1 ",
"  c #222222",
". c #483B3A",
"X c #775C55",
/* pixels */
" XXXXXXXX XXX XX",
" ........ ... ..",
" .... ... ..  ..",
"                ",
"  XX XXXXXX XXXX",
" ... ...... ....",
" ... ...... . ..",
"                ",
" XXXXXX XXXXXX  ",
" ...... ...... .",
" .. ... ...... .",
"                ",
" XXX XXXXX XXXXX",
" ... ..... .....",
" ... ... . . ...",
"                "
};
