/* XPM */
static char *rcp09282778651337[] = {
/* columns rows colors chars-per-pixel */
"16 16 3 1 ",
"  c #222222",
". c #483B3A",
"X c #775C55",
/* pixels */
" XXXX XXXX XX  X",
" .... .... .... ",
" .... .. . . ...",
"                ",
"  XX X XXXX XXXX",
" ... .. ... ....",
" ... .. ... . ..",
"                ",
" X XXXX XX XXX  ",
" .. ... .. ... .",
" ...... ...... .",
"                ",
" XX X XXXX XX XX",
" .. . .... .....",
" .. .... . . ...",
"                "
};
