/* XPM */
static char *rcp09290069421358[] = {
/* columns rows colors chars-per-pixel */
"16 16 6 1 ",
"  c #222222",
". c #483B3A",
"X c #775C55",
"o c #417089",
"O c #5698CC",
"+ c #72D6CE",
/* pixels */
"XX  ........  XX",
".. .XX....XX. ..",
".. .  X..X  . ..",
"     X .. X     ",
" X  ...  ...  XX",
"..    X  X    ..",
".. .   oo   . ..",
"    .. +O ..    ",
"XXX  . +O .   XX",
"...    +o    ...",
"...    +o    ...",
"   XX  Oo  XX   ",
"X X..X O+ X..X X",
"X ....OO++.... X",
"X O O+O++++O O X",
"X OOOO++++OOOO X"
};
