/* XPM */
static char *rcp09295409457713[] = {
/* columns rows colors chars-per-pixel */
"16 16 3 1 ",
"  c #222222",
". c #483B3A",
"X c #775C55",
/* pixels */
"XX XXXXXX XXXXX ",
".. ...... ..... ",
".. .. ... ....  ",
"                ",
"X XX XXXXXX XXX ",
".... ...... ... ",
".... ...... . . ",
"                ",
"XXXXXXX XXXXXX  ",
"....... ......  ",
"... ... ......  ",
"                ",
"XX XXXXXXX XXXX ",
".. ....... .... ",
".. .... .. . .. ",
"                "
};
