/* XPM */
static char *rcp09300647919645[] = {
/* columns rows colors chars-per-pixel */
"16 16 5 1 ",
"  c #222222",
". c #483B3A",
"X c #AA8D7A",
"o c #D3BFA9",
"O c white",
/* pixels */
"OOOOOOOOOOOOOOOO",
"OOOOOOOOOOOOOOOO",
"OOOOOOOOOOOOOOOO",
"OOOOOOOOOOOOOOOO",
"OOOOOOOOOOOOOOOO",
"OOOOOOOOOOOOOOOO",
"OOOOOOOOOOOOOOOO",
"OOOOOOOOOOOOOOOO",
"OOOOOOOOOOOOOOOO",
"OOOOOOOOOOOOOOOO",
"OOOOOOOOOOOOOOOO",
"OOOOOOOOOOOOOOOO",
"                ",
" XX.XXXXX XXX XX",
" XXXXXXXX XXX XX",
" oooooo.o ooo oo"
};
