/* XPM */
static char *rcp09291073639561[] = {
/* columns rows colors chars-per-pixel */
"16 16 6 1 ",
"  c #222222",
". c #483B3A",
"X c #775C55",
"o c #417089",
"O c #5698CC",
"+ c #72D6CE",
/* pixels */
"XX  ........  XX",
".. .XX....XX. ..",
".. .  X..X  . ..",
"     X .. X     ",
" X  ...  ...  XX",
"..    X  X    ..",
".. .   oo   . ..",
"    .. Oo ..    ",
"XXX  . Oo .   XX",
"...    O+    ...",
"...    O+    ...",
"   XX  O+  XX   ",
"X X..X O+ X..X X",
"X ....OO+ .... X",
"X O OO++++OO O X",
"X O+OOOOOOOO+O X"
};
