/* XPM */
static char *rcp09292752185906[] = {
/* columns rows colors chars-per-pixel */
"16 16 6 1 ",
"  c #222222",
". c #483B3A",
"X c #775C55",
"o c #AA8D7A",
"O c #D3BFA9",
"+ c white",
/* pixels */
"++++++++++++++++",
"++++++++++++++++",
"++++++++++++++++",
"++++++++++++++++",
"++++++++++++++++",
"++++++++++++++++",
"++++++++++++++++",
"++++++++++++++++",
"++++++++++++++++",
"+++          +++",
"++ .......... ++",
"++ XooooooooX ++",
"   oooooooooo   ",
"oo OOOXOOOOOO oo",
"oo XXXXXXXXXX oo",
"OO  X X X X   OO"
};
