/* XPM */
static char *rcp09303606484799[] = {
/* columns rows colors chars-per-pixel */
"10 24 7 1 ",
"  c #222222",
". c #8F4029",
"X c #C56025",
"o c #55A894",
"O c #72D6CE",
"+ c #FDF7ED",
"@ c white",
/* pixels */
"@@@    @@@",
"@@@ X. @@@",
"@@      @@",
"@ +++OOO @",
" OO+OoOoo ",
"@ +++OOO @",
" OO+OoOoo ",
"@ +++OOO @",
" OO+OoOoo ",
"@ +++OOO @",
" OO+OoOoo ",
"@  ++OO  @",
"@@@    @@@",
"@@@ X. @@@",
"@@@ X. @@@",
"@@@ X. @@@",
"@@@ X. @@@",
"@@@ X. @@@",
"@@@ X. @@@",
"@@@ X. @@@",
"@@@ X. @@@",
"@@@ X. @@@",
"@@@ X. @@@",
"@@@    @@@"
};
