/* XPM */
static char *rcp09302829613958[] = {
/* columns rows colors chars-per-pixel */
"10 24 6 1 ",
"  c #222222",
". c #8F4029",
"X c #C56025",
"o c #72D6CE",
"O c #FDF7ED",
"+ c white",
/* pixels */
"+++    +++",
"+++ .X +++",
"          ",
" OOOOOOOO ",
" oooooooo ",
" oooooooo ",
"          ",
"+++ .X +++",
"+++ .X +++",
"+++ .X +++",
"+++ .X +++",
"+++ .X +++",
"+++ .X +++",
"+++ .X +++",
"+++ .X +++",
"+++ .X +++",
"+++ .X +++",
"+++ .X +++",
"+++ .X +++",
"+++ .X +++",
"+++ .X +++",
"+++ .X +++",
"+++ .X +++",
"+++    +++"
};
