/* XPM */
static char *rcp09302974921288[] = {
/* columns rows colors chars-per-pixel */
"6 29 6 1 ",
"  c #222222",
". c #38607C",
"X c #55A894",
"o c #72D6CE",
"O c #FDF7ED",
"+ c white",
/* pixels */
"+  +++",
"+ o ++",
"+ oO +",
"+ oO +",
"+ oO +",
"+ oO +",
"+ oO +",
"+ oO +",
"+ oO +",
"+ oO +",
"+ oO +",
"+ oO +",
"+ oO +",
"+ oO +",
"+ oO +",
"+ oO +",
"+ oO +",
"+ oO +",
"+ oO +",
"+ oO +",
"+ oO +",
"      ",
" .... ",
"+    +",
"+ Xo +",
"+ oX +",
"+ Xo +",
"+ oX +",
"++  ++"
};
