/* XPM */
static char *rcp09303318156641[] = {
/* columns rows colors chars-per-pixel */
"10 29 4 1 ",
"  c #222222",
". c #B6CBCF",
"X c #FDF7ED",
"o c white",
/* pixels */
"oooo  oooo",
"ooo .X ooo",
"oo ..XX oo",
"oo ..XX oo",
"oo ..XX oo",
"oo ..XX oo",
"oo ..XX oo",
"oo ..XX oo",
"oo ..XX oo",
"oo ..XX oo",
"oo ..XX oo",
"oo ..XX oo",
"oo ..XX oo",
"ooo .X ooo",
"ooo .X ooo",
"oo ..XX oo",
"oo ..XX oo",
"ooo .X ooo",
"ooo .X ooo",
"oo ..XX oo",
"   ..XX   ",
" .      . ",
" ........ ",
"o        o",
"ooo .X ooo",
"ooo X. ooo",
"ooo .X ooo",
"ooo X. ooo",
"oooo  oooo"
};
