/* XPM */
static char *rcp09303116066184[] = {
/* columns rows colors chars-per-pixel */
"6 13 6 1 ",
"  c #222222",
". c #8A503E",
"X c #417089",
"o c #72D6CE",
"O c #FDF7ED",
"+ c white",
/* pixels */
"+  +++",
"+ o ++",
"+ oO +",
"+ oO +",
"+ oO +",
"+ oO +",
"+ oO +",
"+ oO +",
"      ",
" XXXX ",
"      ",
"+ .. +",
"+    +"
};
