/* XPM */
static char *rcp09303444468957[] = {
/* columns rows colors chars-per-pixel */
"10 30 6 1 ",
"  c #222222",
". c #4BA747",
"X c #EE8E2E",
"o c #97DA3F",
"O c #FACB3E",
"+ c white",
/* pixels */
"++++  ++++",
"+++ OX +++",
"++ OOXX ++",
"++ OOXX ++",
"++ OOXX ++",
"++ OOXX ++",
"++ OOXX ++",
"++ OOXX ++",
"++ OOXX ++",
"++ OOXX ++",
"++ OOXX ++",
"++ OOXX ++",
"++ OOXX ++",
"++ OOXX ++",
"++ OOXX ++",
"++  OX  ++",
"+++ OX +++",
"   OOXX   ",
" X      X ",
" XX OO XX ",
"+   OO   +",
"+++    +++",
"+++ OX +++",
"+++ XO +++",
"++  OX  ++",
"++ X  X ++",
"+++ o. +++",
"+++ o. +++",
"++ X  X ++",
"++  ++  ++"
};
