/* XPM */
static char *rcp09303994987362[] = {
/* columns rows colors chars-per-pixel */
"8 30 6 1 ",
"  c #222222",
". c #8F4029",
"X c #DA4E38",
"o c #C56025",
"O c #FDF7ED",
"+ c white",
/* pixels */
"++  ++++",
"+ . ++++",
" .     +",
" . XO o ",
" . XO o ",
"+ .  o +",
"+ ..oo +",
"++ .o ++",
"++ .o ++",
"++ .o ++",
"++ .o ++",
"++ .o ++",
"++ .o ++",
"++ .o ++",
"++ .o ++",
"++ .o ++",
"++ .o ++",
"++ .o ++",
"++ .o ++",
"++ .o ++",
"++ .o ++",
"++ .o ++",
"++ .o ++",
"++ .o ++",
"++ .o ++",
"++ .o ++",
"++ .o ++",
"++ .o ++",
"++ .o ++",
"++    ++"
};
