/* XPM */
static char *rcp0930151965472[] = {
/* columns rows colors chars-per-pixel */
"9 21 6 1 ",
"  c #222222",
". c #8F4029",
"X c #C56025",
"o c #72D6CE",
"O c #FDF7ED",
"+ c white",
/* pixels */
"+    ++++",
"+ X. ++++",
"         ",
" oooooOO ",
" oooooOO ",
" oooooOO ",
"     oOO ",
"+ X.  OO ",
"+ X. + O ",
"+ X. ++  ",
"+ X. +++ ",
"+ X. ++++",
"+ X. ++++",
"+ X. ++++",
"+ X. ++++",
"+ X. ++++",
"+ X. ++++",
"+ X. ++++",
"+ X. ++++",
"+ X. ++++",
"+    ++++"
};
