/* XPM */
static char *rcp09301191232872[] = {
/* columns rows colors chars-per-pixel */
"12 30 6 1 ",
"  c #222222",
". c #38607C",
"X c #55A894",
"o c #72D6CE",
"O c #FDF7ED",
"+ c white",
/* pixels */
"++     +++++",
"++ oooO ++++",
"++ oooOO +++",
"++ oooOOO ++",
"++ oooOOO ++",
"++ oooOOO ++",
"++ oooOOO ++",
"++ oooOOO ++",
"++ oooOOO ++",
"++ oooOOO ++",
"++ oooOOO ++",
"++ oooOOO ++",
"++ oooOOO ++",
"++ oooOOO ++",
"++ oooOOO ++",
"++ oooOO  ++",
"++ oooO ++++",
"++ oooO ++++",
"++ oooOO  ++",
"++ oooOOO ++",
"++ oooOOO ++",
"   oooOOO   ",
" .        . ",
" .......... ",
"+          +",
"++++ Xo ++++",
"++++ oX ++++",
"++++ Xo ++++",
"++++ oX ++++",
"+++++  +++++"
};
