/* XPM */
static char *rcp09302359025417[] = {
/* columns rows colors chars-per-pixel */
"9 30 4 1 ",
"  c #222222",
". c #B6CBCF",
"X c #FDF7ED",
"o c white",
/* pixels */
"o   ooooo",
"o .X oooo",
"o .X oooo",
"o .X oooo",
"o .X oooo",
"o .X oooo",
"o .X oooo",
"o .X oooo",
"o .X oooo",
"o .X oooo",
"o .X oooo",
"o .X oooo",
"o .X oooo",
"o .X oooo",
"o .X oooo",
"o .X oooo",
"o .X oooo",
"o .X oooo",
"o .X oooo",
"      ooo",
" ..... oo",
"      . o",
"o X. o . ",
"o .X o . ",
"o X. o . ",
"      . o",
" ..... oo",
"      ooo",
"o .X oooo",
"oo  ooooo"
};
