/* XPM */
static char *rcp09302661257317[] = {
/* columns rows colors chars-per-pixel */
"8 30 7 1 ",
"  c #222222",
". c #483B3A",
"X c #8F4029",
"o c #C56025",
"O c #97DA3F",
"+ c #FDF7ED",
"@ c white",
/* pixels */
"@@ ++ @@",
"@ O+++ @",
" .OO++. ",
" .OOO+. ",
" X.OO.o ",
"@ X..o @",
"@ XXoo @",
"@@ Xo @@",
"@@ Xo @@",
"@@ Xo @@",
"@@ Xo @@",
"@@ Xo @@",
"@@ Xo @@",
"@@ Xo @@",
"@@ Xo @@",
"@@ Xo @@",
"@@ Xo @@",
"@@ Xo @@",
"@@ Xo @@",
"@@ Xo @@",
"@@ Xo @@",
"@@ Xo @@",
"@@ Xo @@",
"@@ Xo @@",
"@@ Xo @@",
"@@ Xo @@",
"@@ Xo @@",
"@@ Xo @@",
"@@ Xo @@",
"@@    @@"
};
