/* XPM */
static char *rcp09304484440950[] = {
/* columns rows colors chars-per-pixel */
"6 30 7 1 ",
"  c #222222",
". c #8F4029",
"X c #DA4E38",
"o c #C56025",
"O c #9F294E",
"+ c #B6CBCF",
"@ c white",
/* pixels */
"@@  @@",
"@ ++ @",
" ++++ ",
" ++++ ",
" ++++ ",
" o++. ",
" +o.+ ",
"@ .o @",
" .++o ",
"@    @",
" OOXX ",
"@    @",
"@ .o @",
"@ .o @",
"@ .o @",
"@ .o @",
"@ .o @",
"@ .o @",
"@ .o @",
"@ .o @",
"@ .o @",
"@ .o @",
"@ .o @",
"@ .o @",
"@ .o @",
"@ .o @",
"@ .o @",
"@ .o @",
"@ .o @",
"@    @"
};
