/* XPM */
static char *rcp0930205521523[] = {
/* columns rows colors chars-per-pixel */
"7 25 6 1 ",
"  c #222222",
". c #550F0A",
"X c #9B1A0A",
"o c #8F4029",
"O c #D3BFA9",
"+ c white",
/* pixels */
"+   +++",
" oo +++",
" o ++++",
" Oo +++",
"O oo ++",
"O+ o. +",
"O++.o +",
"O++ o +",
"O++.o +",
"O+++ o.",
"O+++ o ",
"O+++ X ",
"O+++ X ",
"O+++ X ",
"O+++ o ",
"O+++ o.",
"O++.o +",
"O++ o +",
"O++.o +",
"O+ o. +",
"O oo ++",
" Oo +++",
" o ++++",
" oo +++",
"+   +++"
};
