/* XPM */
static char *rcp0930136006813[] = {
/* columns rows colors chars-per-pixel */
"7 21 6 1 ",
"  c #222222",
". c #8F4029",
"X c #DA4E38",
"o c #B6CBCF",
"O c #FDF7ED",
"+ c white",
/* pixels */
"+++ +++",
"++ o ++",
"++ o ++",
"+ ooO +",
"+ oOO +",
"++ O ++",
"++ . ++",
"++ . ++",
"++ . ++",
"++ . ++",
"++ . ++",
"++ . ++",
"++ . ++",
"++ . ++",
"+ O.O +",
"+ O.O +",
" OX.XO ",
" OX.XO ",
" X . X ",
" X   X ",
"  +++  "
};
