/* XPM */
static char *rcp09301671855884[] = {
/* columns rows colors chars-per-pixel */
"10 22 6 1 ",
"  c #222222",
". c #8F4029",
"X c #C56025",
"o c #55A894",
"O c #72D6CE",
"+ c white",
/* pixels */
"+++    +++",
"++ ..XX ++",
"   ..XX ++",
" Ooo.XX ++",
"+  ..XX   ",
"++ ..XooO ",
"   ..XX  +",
" Ooo.XX ++",
"++ ..XX   ",
"++ ..XooO ",
"   ..XX  +",
" Ooo.XX ++",
"+  ..XX ++",
"++ ..XX ++",
"++ ..XX ++",
"+++ .X +++",
"+++ .X +++",
"+++ .X +++",
"+++ .X +++",
"+++ .X +++",
"+++ .X +++",
"++++  ++++"
};
