/* XPM */
static char *rcp09310171671880[] = {
/* columns rows colors chars-per-pixel */
"16 28 8 1 ",
"  c #1F1833",
". c #8A503E",
"X c #B58057",
"o c #5956BD",
"O c #5698CC",
"+ c #D3BFA9",
"@ c #FDF7ED",
"# c white",
/* pixels */
"################",
"################",
"################",
"################",
"################",
"################",
"################",
"################",
"################",
"###  ###########",
"### o ##########",
"### oo    ######",
"#### ooooO  ####",
"### oooOOOOO ###",
"#### oOOOOooo ##",
"### oooOOOOOOO #",
"##              ",
"### +@.@@XXX@@ #",
"### +@.  XXX  ##",
"### +@.  XXX  ##",
"### +@@..XXX.@ #",
"### +@@@@@@@@@ #",
"#### o+@@@@@@@ #",
"#### OO+@@@@@ ##",
"#### OOO+@@@@ ##",
"#### OOOO@@@@ ##",
"### ooooo@@@+ ##",
"###      +@@  ##"
};
