/* XPM */
static char *rcp09304747278990[] = {
/* columns rows colors chars-per-pixel */
"16 28 9 1 ",
"  c #1F1833",
". c #222222",
"X c #8A503E",
"o c #B58057",
"O c #5956BD",
"+ c #5698CC",
"@ c #D3BFA9",
"# c #FDF7ED",
"$ c white",
/* pixels */
"$$$$$$$$$$$$$$$$",
"$$$$$$$$$$$$$$$$",
"$$$$$$$$$$$$$$$$",
"$$$$$$$$$$$$$$$$",
"$$$$$$$$$$$$$$$$",
"$$$$$$$$$$$$$$$$",
"$$$$$$$$$$$$$$$$",
"$$$$$$$$$$$$$$$$",
"$$  $$$$$$$$$$$$",
"$$ O $$$$$$$$$$$",
"$$ OO    $$$$$$$",
"$$$ OOOO+  $$$$$",
"$$ OOO+++++ $$$$",
"$$$ O++++OOO $$$",
"$$ OOO+++++++ $$",
"$              $",
"$.@@@X##ooo##.$$",
"$$.##X..ooo..$$$",
"$.##XX..ooo..$$$",
"$$.##XXXoooo..$$",
"$$.###Xooooo.$$$",
"$.#####OOoOO#.$$",
".####+#+++++##.$",
"$$.#.+++++++.$$$",
"$$$.+++++++.$$$$",
"$$.++++++++.$$$$",
"$.OOOOOOOOOO.$$$",
"$............$$$"
};
