/* XPM */
static char *rcp09305681371793[] = {
/* columns rows colors chars-per-pixel */
"16 28 9 1 ",
"  c #1F1833",
". c #222222",
"X c #8A503E",
"o c #B58057",
"O c #5956BD",
"+ c #5698CC",
"@ c #D3BFA9",
"# c #FDF7ED",
"$ c white",
/* pixels */
"$$$$$$$$$$$$$$$$",
"$$$$$$$$$$$$$$$$",
"$$$$$$$$$$$$$$$$",
"$$$$$$$$$$$$$$$$",
"$$$$$$$$$$$$$$$$",
"$$$$$$$$$$$$$$$$",
"$$  $$$$$$$$$$$$",
"$$ O $$$$$$$$$$$",
"$$ OO  $$$$$$$$$",
"$$$ OOO  $$$$$$$",
"$$$ OOOO+  $$$$$",
"$$ OOO+++++ $$$$",
"$$$ O++++OOO $$$",
"$$ OOO+++++++ $$",
"$              $",
"$$$.@@@@@@@@@.$$",
"$..@@XXXXXXX.$$$",
"$$###X##ooo##.$$",
"$..##X..ooo..$$$",
"$$##XX..ooo..$$$",
"$$.##XXXoooo..$$",
".######ooooo.#.$",
"$$###OOOOoOO#.$$",
"$$$.++++++++.$$$",
"$$$.++++++++.$$$",
"$$.++++++++..$$$",
".OOOOOOOOOOO.$$$",
"............$$$$"
};
