/* XPM */
static char *rcp09311691269807[] = {
/* columns rows colors chars-per-pixel */
"16 20 6 1 ",
"  c #222222",
". c #5F2D56",
"X c #DA4E38",
"o c #9F294E",
"O c #FDF7ED",
"+ c white",
/* pixels */
"++++++++++++++++",
"++++++++++++++++",
"++++++++++++++++",
"++++++++++++++++",
"++++++++++++++++",
"+++++++    +++++",
"++++++ oXXX ++++",
"+++   oXoXo  +++",
"+++ ...X X . +++",
"+++ XOOXXXXO +++",
"+++ XOOXXXXO +++",
"+++ X..XXXX. +++",
"+++ X..XXXX. +++",
"++++ OOOooO ++++",
"+++++      +++++",
"++++ OOOooO ++++",
"+++++      +++++",
"+++  OOOooO  +++",
"+++ .. ++ .. +++",
"+++  ++++  +++++"
};
