/* XPM */
static char *rcp09313100655949[] = {
/* columns rows colors chars-per-pixel */
"16 16 7 1 ",
"  c #222222",
". c #3D734F",
"X c #4BA747",
"o c #97DA3F",
"O c #AA8D7A",
"+ c #D3BFA9",
"@ c white",
/* pixels */
"@@@@@@@@@@@@@@@@",
"@@@@@@@@@@@@@@@@",
"@@@@@@   @  @@@@",
"@@@@@ ooX + @@@@",
"@@@@@ oX ++ @@@@",
"@@@@    +++ @@@@",
"@@@@ O+++++ @@@@",
"@@@@ O  ++  @@@@",
"@@@@ O  ++  @@@@",
"@@@@ O..++. @@@@",
"@@@@ O..++. @@@@",
"@@@@ O..++. @@@@",
"@@@@@ OOOO @@@@@",
"@@@   O+OO   @@@",
"@@ O++++++++O @@",
"@@            @@"
};
