/* XPM */
static char *result[] = {
/* columns rows colors chars-per-pixel */
"8 8 3 1 ",
"  c #EE8E2E",
". c #FACB3E",
"X c None",
/* pixels */
"XXXXXXXX",
"XXX. XXX",
"XXX. XXX",
"XXX. XXX",
"XXX. XXX",
"XXX. XXX",
"XXX. XXX",
"XXX. XXX"
};
