/* XPM */
static char *rcp09140900937543[] = {
/* columns rows colors chars-per-pixel */
"32 32 9 1 ",
"  c #2F2E2C",
". c #2F2E2D",
"X c #514E44",
"o c #514E45",
"O c #514E46",
"+ c #726B59",
"@ c #8C8A72",
"# c #8C8A73",
"$ c #8E8C75",
/* pixels */
"######  ####### #+##### +###### ",
"#o+++++ o+++ooo #oo+o+o++++oooo ",
"#o+++++o+++++oo  o+++++++++++oo ",
"#++++++o++++++o ++++++++++++++o ",
"++++++++o+++ooo #o++++++++++++o ",
"#++++++++++oooo #++++++++++++oo ",
"#++++++++++oo+o #++++++++++++oo ",
"#o++++++++++++o #o+++++++++++oo ",
"#++++++++++++oo #o +++++++++ooo ",
"+++++++++++++oo   ++++++++++ooo ",
"#+++++++++++++o ++++++++++++++o ",
"#+++oo+++oo++oo #++++++++++++oo ",
"#++ooo+++ooo+oo #o++++++oo+++oo ",
"#o+ooo+o+ooooo  #o++++oooo++oo  ",
"#ooooooooooooo  #oooooooooooo   ",
"                                ",
"###+#####o##### ###+########### ",
"#o+++++oo+++ooo #oooo+++o++oooo ",
"#o+++++++++++oo #o+++++++++++oo ",
"#++++++++++++oo #+++++++++++++o ",
"#+++++++++++++o #+++++++++++++o ",
"++++++++++++++o +o++++++++++++o ",
"#+++++++++++++o #o++++++++++++o ",
"#o++++++++++++o #++++++++++++oo ",
"#+++++++++++++o ++++++++++++ooo ",
"o++++++++++++oo #+++++++++++ooo ",
" +++++++++++++o ++++++++++++++o ",
"#++++++++++++oo #++++o++++++++o ",
"#o++++++++++ooo $o+++ +++++++oo ",
"#ooo++o+++ooooo #+oo+ oo++++ooo ",
"#oooooooooooo   #ooooo ooooooo  ",
"                                "
};
