/* XPM */
static char *rcp05354771842752[] = {
/* columns rows colors chars-per-pixel */
"32 32 107 2 ",
"   c #AE5A04",
".  c #AE5B0B",
"X  c #A76704",
"o  c #AC6907",
"O  c #B96203",
"+  c #B56C03",
"@  c #AF7304",
"#  c #B67306",
"$  c #B97404",
"%  c #B87C03",
"&  c #AA7219",
"*  c #B07917",
"=  c #BF723C",
"-  c #CE6E00",
";  c #C47D03",
":  c #C87904",
">  c #CE740C",
",  c #D27A07",
"<  c #D17C3C",
"1  c #B28428",
"2  c #B18A2F",
"3  c #CC8404",
"4  c #CC8803",
"5  c #C9850C",
"6  c #D48A02",
"7  c #DC8D02",
"8  c #D48E0B",
"9  c #CD9302",
"0  c #D09603",
"q  c #DD9203",
"w  c #D69B03",
"e  c #DA9B02",
"r  c #D2940A",
"t  c #DC920C",
"y  c #D39B0B",
"u  c #E39702",
"i  c #E59A02",
"p  c #E89B01",
"a  c #E69D0B",
"s  c #DDA202",
"d  c #D5A015",
"f  c #E6A702",
"g  c #E9A203",
"h  c #ECAB02",
"j  c #EDAB0B",
"k  c #F1AD02",
"l  c #EEB408",
"z  c #F5B501",
"x  c #F5BA03",
"c  c #FBBE02",
"v  c #FBBF0D",
"b  c #FFC101",
"n  c #FCC20C",
"m  c #FDC219",
"M  c #FEC533",
"N  c #FECE30",
"B  c #FED53E",
"V  c #D48755",
"C  c #D58854",
"Z  c #D5895A",
"A  c #D3BB49",
"S  c #D68F65",
"D  c #D79168",
"F  c #F1BF7D",
"G  c #FDCE42",
"H  c #FDD245",
"J  c #FEDD4B",
"K  c #E2CD51",
"L  c #FBC855",
"P  c #FDCA5C",
"I  c #FDE455",
"U  c #F6E45D",
"Y  c #FBE85D",
"T  c #FAC960",
"R  c #F8C46A",
"E  c #FDCD6A",
"W  c #FCD266",
"Q  c #FECF70",
"!  c #FDD671",
"~  c #FDD977",
"^  c #FED17E",
"/  c #FEEE61",
"(  c #D1AA97",
")  c #E5B895",
"_  c #D1AFA0",
"`  c #E2B5A0",
"'  c #FEDA9A",
"]  c #E8C7B7",
"[  c #E8C7B8",
"{  c #F1D2B8",
"}  c #FEE1AF",
"|  c #FEE1B3",
" . c #FEE5BD",
".. c #EED7CC",
"X. c #FCE6C2",
"o. c #FCEACC",
"O. c #FCEEDC",
"+. c #FDF0DB",
"@. c #F0E7E1",
"#. c #F4E9E2",
"$. c #F6EEE9",
"%. c #FDF5E5",
"&. c #FBF7EE",
"*. c #FDF8EE",
"=. c #F9F5F1",
"-. c #FCF9F2",
";. c None",
/* pixels */
";.;.;.;.;.;.;.;.;.;.;.;.;.;.;.;.;.;.;.;.;.;.;.;.;.;.;.;.;.;.;.;.",
";.;.;.;.;.;.;.;.;.;.;.;.;.;.;.;.;.;.;.;.;.;.;.;.;.;.;.;.;.;.;.;.",
";.;.;.;.;.;.;.;.;.;.;.;.;.;.;.;.;.;.;.;.;.;.;.;.;.;.;.;.;.;.;.;.",
";.;.;.;.;.;.;.;.;.;.;.*. .} } } } } } X.-.;.;.;.;.;.;.;.;.;.;.;.",
";.;.;.;.;.;.;.;.;.;.o.G J N b b b c c n T %.;.;.;.;.;.;.;.;.;.;.",
";.;.;.;.;.;.;.;.;.+.H / / B b b b n n n n L &.;.;.;.;.;.;.;.;.;.",
";.;.;.;.;.;.;.;.;.W / / / B b c n i t t 7 7 ) ;.;.;.;.;.;.;.;.;.",
";.;.;.;.;.;.;.;.X.I / K 2 * s b n j > - - - - #.;.;.;.;.;.;.;.;.",
";.;.;.;.;.;.;.;.! / K o q i 3 y c c , - - - - ` ;.;.;.;.;.;.;.;.",
";.;.;.;.;.;.;.%.J Y & i i i a 5 l c u - - - - < ;.;.;.;.;.;.;.;.",
";.;.;.;.;.;.;. .Y A 4 i a a a a r b c z z z z z +.;.;.;.;.;.;.;.",
";.;.;.;.;.;.;.' / 1 i i a a a i 4 c b b b b b b  .;.;.;.;.;.;.;.",
";.;.;.;.;.;.;.~ U # i a a a i i q h b b b b b b ' ;.;.;.;.;.;.;.",
";.;.;.;.;.;.;.H K 5 a a a i i p p s b b b b b b ^ ;.;.;.;.;.;.;.",
";.;.;.;.;.;.;.n d 8 a a i i p p p e b c z z z z R ;.;.;.;.;.;.;.",
";.;.;.;.;.;.-.n y r a i i p p p p e b 7 - - - - V ;.;.;.;.;.;.;.",
";.;.;.;.;.;.-.n r t i i p p p p p e b 7 - - - - C ;.;.;.;.;.;.;.",
";.;.;.;.;.;.;.v y 6 i p p p p p p e b 7 - - - - D ;.;.;.;.;.;.;.",
";.;.;.;.;.;.;.M e 6 p p p p p p p e b k h h h h F ;.;.;.;.;.;.;.",
";.;.;.;.;.;.;.Q h ; p p p p p p i s b b b b b b ' ;.;.;.;.;.;.;.",
";.;.;.;.;.;.;.' c + p p p p p p 7 z b b b b b b  .;.;.;.;.;.;.;.",
";.;.;.;.;.;.;. .b % u p p p p p 4 b z i i i i i O.;.;.;.;.;.;.;.",
";.;.;.;.;.;.;.%.b s ; p p p p u w b q O O O O = -.;.;.;.;.;.;.;.",
";.;.;.;.;.;.;.;.E b @ q p p p ; c b +         _ ;.;.;.;.;.;.;.;.",
";.;.;.;.;.;.;.;.X.b z X 3 6 $ h b f         . @.;.;.;.;.;.;.;.;.",
";.;.;.;.;.;.;.;.;.P b x 0 9 z b b : O O O O ( ;.;.;.;.;.;.;.;.;.",
";.;.;.;.;.;.;.;.;.O.m b b b b b i - - - - Z =.;.;.;.;.;.;.;.;.;.",
";.;.;.;.;.;.;.;.;.;.o.M b b b g - - - - S $.;.;.;.;.;.;.;.;.;.;.",
";.;.;.;.;.;.;.;.;.;.;.*. .| { ] [ [ ] ..-.;.;.;.;.;.;.;.;.;.;.;.",
";.;.;.;.;.;.;.;.;.;.;.;.;.;.;.;.;.;.;.;.;.;.;.;.;.;.;.;.;.;.;.;.",
";.;.;.;.;.;.;.;.;.;.;.;.;.;.;.;.;.;.;.;.;.;.;.;.;.;.;.;.;.;.;.;.",
";.;.;.;.;.;.;.;.;.;.;.;.;.;.;.;.;.;.;.;.;.;.;.;.;.;.;.;.;.;.;.;."
};
