/* XPM */
static char *rcp05354509360993[] = {
/* columns rows colors chars-per-pixel */
"32 32 134 2 ",
"   c #9F5E02",
".  c #A05E03",
"X  c #AE5A04",
"o  c #B75F03",
"O  c #A46203",
"+  c #AB6703",
"@  c #AE6A04",
"#  c #BC6303",
"$  c #B06A02",
"%  c #BE6B04",
"&  c #BB7503",
"*  c #BD7902",
"=  c #B86623",
"-  c #CD6E02",
";  c #C07604",
":  c #C37D03",
">  c #CE730B",
",  c #D57D03",
"<  c #CF7014",
"1  c #BF8502",
"2  c #AE8229",
"3  c #BA9837",
"4  c #C58303",
"5  c #CC8403",
"6  c #C58A03",
"7  c #CD8E02",
"8  c #D18704",
"9  c #D88103",
"0  c #D48A03",
"q  c #D98F03",
"w  c #CD9302",
"e  c #D19503",
"r  c #DB9303",
"t  c #D49903",
"y  c #DA9E02",
"u  c #E29603",
"i  c #E69902",
"p  c #E89C02",
"a  c #E3990B",
"s  c #DCA202",
"d  c #E6A503",
"f  c #E9A303",
"g  c #E3AA03",
"h  c #EBAD03",
"j  c #F1AA03",
"k  c #ECB102",
"l  c #F3B203",
"z  c #F8B702",
"x  c #F5B903",
"c  c #FABD02",
"v  c #F5B60D",
"b  c #F8BC0C",
"n  c #E9A113",
"m  c #EBAD16",
"M  c #E8A119",
"N  c #EFAF1B",
"B  c #FBBF13",
"V  c #CD9921",
"C  c #C3952F",
"Z  c #C09C37",
"A  c #E29935",
"S  c #C6A43B",
"D  c #ECAB24",
"F  c #E6B629",
"G  c #EDB22D",
"H  c #F4B423",
"J  c #EEB935",
"K  c #FEC101",
"L  c #FCC20C",
"P  c #FDC415",
"I  c #FDC518",
"U  c #FCC425",
"Y  c #FECA26",
"T  c #FECC2C",
"R  c #FCCD33",
"E  c #FDC53A",
"W  c #F2C93A",
"Q  c #BF896E",
"!  c #D2814A",
"~  c #D48E62",
"^  c #D59062",
"/  c #D59875",
"(  c #DA9F7F",
")  c #D8C04B",
"_  c #F2C641",
"`  c #FEC748",
"'  c #FDD742",
"]  c #FDD946",
"[  c #F6D34D",
"{  c #FCDD4C",
"}  c #E2CD52",
"|  c #FBC750",
" . c #F9C75B",
".. c #FDCA5F",
"X. c #F1DF5A",
"o. c #FDE253",
"O. c #FDE65A",
"+. c #FCCB69",
"@. c #FCCE73",
"#. c #F9CA78",
"$. c #FED077",
"%. c #FED178",
"&. c #FEEE62",
"*. c #D09C82",
"=. c #DDA88C",
"-. c #E5BFAD",
";. c #EDC38F",
":. c #FDD386",
">. c #FED489",
",. c #FDD692",
"<. c #FCDB9E",
"1. c #EFCBAD",
"2. c #FCDAA1",
"3. c #FCDDAB",
"4. c #FDE0B2",
"5. c #FEE4BC",
"6. c #ECD3C6",
"7. c #E6D6CD",
"8. c #EDD5C9",
"9. c #EFDDD2",
"0. c #FBE7C8",
"q. c #FCE9CA",
"w. c #EEE5DF",
"e. c #F1E0D6",
"r. c #FEEDD2",
"t. c #FCEFDA",
"y. c #FDF1DE",
"u. c #F6EDE7",
"i. c #FBF3E4",
"p. c #FBF5EA",
"a. c #FDF8EE",
"s. c #FAF6F0",
"d. c #FCFAF4",
"f. c None",
/* pixels */
"f.f.f.f.f.f.f.f.f.f.f.f.f.f.f.f.f.f.f.f.f.f.d.f.f.f.f.f.f.f.f.f.",
"f.f.f.f.f.f.f.f.f.f.f.f.f.f.f.f.f.f.f.f.f.f.d.f.f.f.f.f.f.f.f.f.",
"f.f.f.f.f.f.f.f.f.f.f.f.f.f.f.f.f.f.f.d.f.f.f.f.f.f.f.f.f.f.f.f.",
"f.f.f.f.f.f.f.f.f.f.f.f.r.5.5.5.5.5.0.p.d.f.d.f.f.f.f.f.f.f.f.f.",
"f.f.f.f.f.f.f.f.f.f.y...K K K T ] ] L U 2.d.f.f.f.f.f.f.f.f.f.f.",
"f.f.f.f.f.f.f.f.f.r.U K K I o.&.&.O.L K K +.a.f.f.f.f.f.f.f.f.f.",
"f.f.f.f.f.f.f.f.u.A u i P O.&.&.&.O.K K K K @.d.f.f.f.f.f.f.f.f.",
"f.f.f.f.f.f.f.f.( - - f o.&.&.} 3 2 1 h K K K 3.f.f.f.f.f.f.f.f.",
"f.f.f.f.f.f.f.e.- - , R &.&.Z : u u 0 O w K K U p.f.f.f.f.f.f.f.",
"f.f.f.f.f.f.f.=.- - f O.&.S r G [ [ J i @ t K K 3.f.f.f.f.f.f.f.",
"f.f.f.f.f.f.d.H l l U &.} 8 _ { Y P Y m u   l K ` f.f.f.f.f.f.f.",
"f.f.f.f.f.f.r.K K K ' &.C G { K K K K K r 5 6 K K y.f.f.f.f.f.f.",
"f.f.f.f.f.f.4.K K K o.X.5 [ I K K K K K h r   c K 5.f.f.f.f.f.f.",
"f.f.f.f.f.f.,.K c L o.) a { t h K K K K K 5 $ h K <.f.f.f.f.f.f.",
"f.f.f.f.f.f.#.x b L L V D W : p z K g : l 7 ; y K >.f.f.f.f.f.f.",
"f.f.f.f.f.f.~ > - v c 7 G F q p h x * p j w 5 w K %.f.f.f.f.f.f.",
"f.f.f.f.f.f.^ > > l K 7 D U r p j k q p z 7 5 w K $.f.f.f.f.f.f.",
"f.f.f.f.d.f./ > - l K 7 n R c l c K l z K 4 5 w K :.f.f.f.f.f.f.",
"f.f.f.f.f.d.;.f f x K w p R K K K K K K l : ; s K <.f.f.f.f.f.f.",
"f.f.f.d.d.f.3.K K K K s u G I K K K K K 4 u + k K 5.f.f.f.f.f.f.",
"f.f.f.d.f.d.q.K K K K x 5 p N K c K x g 0 u O K K t.f.f.f.f.f.f.",
"f.f.d.f.f.f.d.M p p c K 6 i p K g K g x 0 : w K E d.f.d.f.f.f.f.",
"f.f.f.f.f.f.f.*.# # d K k 5 p c e K e t 0   x K 2.d.f.d.f.f.f.f.",
"f.f.f.f.f.f.f.7.X X ; K K w 0 p r y 4 u O s K B i.d.f.f.f.f.f.f.",
"f.d.f.f.f.f.f.f.Q X X d K K w & q q 4 . y K c <.d.d.f.f.f.f.f.f.",
"f.f.f.f.f.f.f.f.w.= o % z K K k w 1 w x K L  .s.f.d.f.f.f.f.f.f.",
"f.f.f.f.f.f.f.f.f.8.< - 9 c K K K K K K K | i.f.f.f.f.f.f.f.f.f.",
"f.f.f.f.f.f.f.f.f.f.9.! - , l K K K K K :.p.d.f.f.f.f.f.f.f.f.f.",
"f.f.f.f.f.f.f.f.f.f.f.d.6.-.-.1.3.2.4.y.f.d.d.f.f.f.f.f.f.f.f.f.",
"f.f.f.f.f.f.f.f.f.f.f.f.f.f.f.f.f.f.f.f.f.f.f.f.f.f.f.f.f.f.f.f.",
"f.f.f.f.f.f.f.f.f.f.f.f.f.f.f.f.f.d.f.d.d.f.f.f.f.f.f.f.f.f.f.f.",
"f.f.f.f.f.f.f.f.f.f.f.f.f.f.f.f.f.f.d.f.f.f.f.f.f.f.f.f.f.f.f.f."
};
