/* XPM */
static char *rcp05355124961597[] = {
/* columns rows colors chars-per-pixel */
"32 32 130 2 ",
"   c #AD5A04",
".  c #AD5C0A",
"X  c #A96603",
"o  c #B86103",
"O  c #B36F02",
"+  c #BA650A",
"@  c #AF7303",
"#  c #B57404",
"$  c #BA7503",
"%  c #BF7904",
"&  c #A56D17",
"*  c #B96312",
"=  c #CE6E01",
"-  c #CE6E08",
";  c #CF7002",
":  c #C57E03",
">  c #CE730B",
",  c #C37E0C",
"<  c #CF7D43",
"1  c #BD8303",
"2  c #CC8503",
"3  c #C38903",
"4  c #CC8F05",
"5  c #C7840E",
"6  c #CC870B",
"7  c #CF890C",
"8  c #D18703",
"9  c #D58D03",
"0  c #DA8B02",
"q  c #D2890E",
"w  c #CB9103",
"e  c #D49302",
"r  c #DE9202",
"t  c #D89B02",
"y  c #DC8F14",
"u  c #E19502",
"i  c #E69B03",
"p  c #E89B01",
"a  c #E69D0A",
"s  c #E89F0D",
"d  c #DCA205",
"f  c #DEA60B",
"g  c #E1A704",
"h  c #EAA503",
"j  c #E2A802",
"k  c #EBAC03",
"l  c #E7AF0D",
"z  c #F1AD01",
"x  c #ECB204",
"c  c #EEB40F",
"v  c #F3B302",
"b  c #FABB01",
"n  c #F3B20C",
"m  c #F0B80E",
"M  c #EBAA1B",
"N  c #CB972B",
"B  c #D59F25",
"V  c #C5A039",
"C  c #D8B23E",
"Z  c #ECBC3B",
"A  c #F0B33D",
"S  c #FFC101",
"D  c #FCC20B",
"F  c #FEC516",
"G  c #FDC71F",
"H  c #FBC124",
"J  c #FDCA26",
"K  c #FEC329",
"L  c #FDC434",
"P  c #FDCE31",
"I  c #FDC53B",
"U  c #FDD63F",
"Y  c #D38A59",
"T  c #CBAE42",
"R  c #DC9B63",
"E  c #D7956F",
"W  c #C4947D",
"Q  c #C99578",
"!  c #DBC24B",
"~  c #FEC74D",
"^  c #F7D54B",
"/  c #FEDE4D",
"(  c #E1CB51",
")  c #FCCA56",
"_  c #FEC959",
"`  c #FCDE50",
"'  c #F0DF5A",
"]  c #FDEA5C",
"[  c #FCCC69",
"{  c #FECF73",
"}  c #FDD17C",
"|  c #FEED61",
" . c #9B9B9B",
".. c gray68",
"X. c #B4B4B4",
"o. c #BABABA",
"O. c #FDD58D",
"+. c #FDD792",
"@. c #FDD897",
"#. c #FEDA9B",
"$. c #FEDCA3",
"%. c #EACDBF",
"&. c #FCDFB0",
"*. c #F4D9BF",
"=. c #FEE3B7",
"-. c #FEE4BC",
";. c #C5C5C5",
":. c #CBCBCB",
">. c #D5D5D5",
",. c gainsboro",
"<. c #EBCEC0",
"1. c #EAD1C4",
"2. c #E5D7CF",
"3. c #EDD6CB",
"4. c #F4DDC7",
"5. c #FBE4C0",
"6. c #FBEACE",
"7. c #FDEFD7",
"8. c #F0E4DD",
"9. c #FAEFDC",
"0. c #FDF1DB",
"q. c #E5E5E5",
"w. c #ECECEC",
"e. c #F6EEE7",
"r. c #FDF4E5",
"t. c #FAF3EC",
"y. c #FDF8EC",
"u. c #FAF7F4",
"i. c #FDFAF4",
"p. c None",
/* pixels */
"p.p.p.p.p.p.p.p.p.p.p.p.p.i.p.p.p.p.p.p.p.p.p.p.p.p.p.p.p.p.p.p.",
"p.p.p.p.p.p.p.p.p.p.i.i.i.p.p.p.p.p.p.p.p.p.p.p.p.p.p.p.p.p.p.p.",
"p.p.p.p.p.p.p.p.p.p.p.i.p.p.p.p.p.p.p.p.p.p.p.p.p.p.p.p.p.p.p.p.",
"p.p.p.p.p.p.p.i.i.p.p.t.&.$.$.$.$.$.$.=.i.p.p.p.p.p.p.p.p.p.p.p.",
"p.p.p.p.p.p.i.p.i.p.6.L S S S S J / U S I 7.p.p.p.p.p.p.p.p.p.p.",
"p.p.p.p.p.p.p.i.p.9.H S S S S P | | / S S L r.p.p.p.p.p.p.p.p.p.",
"p.p.p.p.p.i.i.i.u.R 0 0 0 0 M ] | | / S S S } p.p.p.p.p.p.p.p.p.",
"p.p.p.p.p.p.p.p.1.= = = = = ^ | | T & @ k S S 7.p.p.p.p.p.p.p.p.",
"p.p.p.i.p.i.p.i.E = = = = y | | V 9 p r X x S +.p.p.p.p.p.p.p.p.",
"p.p.p.p.p.p.p.e.- = = = = Z | ( 9 p p p u @ S K i.p.p.p.p.p.p.p.",
"p.p.p.p.i.p.p.5.b b b b b ` | N p p p p p : j S 0.p.p.p.p.p.p.p.",
"p.p.p.p.p.p.p.@.S S S S S ] ' 9 p p p p p u 1 S =.p.p.p.p.p.p.p.",
"p.p.p.p.p.p.p.{ S S S S D | ! p p p p p p p O S @.p.p.p.p.p.p.p.",
"p.p.p.p.p.p.p.L S S S S F ] C p p p p p p p $ v } i.p.p.p.p.p.p.",
"p.p.p.p.p.p.i.n v v v v b G B p p p p p p p : l [ i.p.p.p.p.p.p.",
"p.p.p.p.p.p.u.- = = = = i S e p p p p p p p 6 d ) i.p.p.p.p.p.p.",
"p.p.p.p.p.p.i.- = = = = i S 9 p p p p p p a 7 f ) i.p.p.p.p.p.p.",
"p.p.p.p.p.p.i.> = = = = p S e p p p p p i a 6 g [ p.p.p.p.p.p.p.",
",.o.q.p.p.p.p.A z z z z v S e p p p i s a s , k } p.p.p.p.p.p.p.",
">.o.,.p.p.p.p.{ S S S S S S t p p a a a s a O b @.p.p.p.p.p.p.p.",
":.o.q.p.p.p.p.#.S S S S S S j u p p a a i p # S -.p.p.p.p.p.p.p.",
">.o.>.p.p.p.p.4.u u u u u b b 2 a i p a p 9 w S 0.p.p.p.p.p.p.p.",
"w...q.p.p.p.p.t.* o o o o i b 4 s a p p p O v I i.p.p.p.p.p.p.p.",
";. .:.p.p.p.p.p.W         , D m 5 a p p 8 3 S @.p.p.p.p.p.p.p.p.",
">...q.p.p.p.p.p.2.        . c D f # 8 % @ b S 0.p.p.p.p.p.p.p.p.",
">.X.>.p.p.p.p.p.p.Q o + + + q D b x e d b S O.p.p.p.p.p.p.p.p.p.",
">.X.>.p.p.p.p.p.p.e.< > > > > h S S S S S ~ y.p.p.p.p.p.p.p.p.p.",
"w.X.q.p.p.p.p.p.p.i.8.Y > - = ; h S S S _ r.p.p.p.p.p.p.p.p.p.p.",
":.:.:.p.p.p.p.p.p.p.i.u.3.%.<.<.%.*.-.6.i.p.p.p.p.p.p.p.p.p.p.p.",
">.;.:.p.p.p.p.p.p.p.p.p.p.p.p.p.p.p.p.p.p.p.p.p.p.p.p.p.p.p.p.p.",
">.,.>.p.p.p.p.p.p.p.p.p.p.p.p.p.p.p.p.p.p.p.p.p.p.p.p.p.p.p.p.p.",
";.;.:.p.p.p.p.p.p.p.p.p.p.p.p.p.p.p.p.p.p.p.p.p.p.p.p.p.p.p.p.p."
};
