/* XPM */
static char *rcp05355037427352[] = {
/* columns rows colors chars-per-pixel */
"32 32 116 2 ",
"   c #9F5D03",
".  c #A15E02",
"X  c #AE5A04",
"o  c #AE5B0D",
"O  c #A76302",
"+  c #A96503",
"@  c #B66704",
"#  c #B96203",
"$  c #B16C03",
"%  c #B57003",
"&  c #BB7603",
"*  c #B47A03",
"=  c #BF7B02",
"-  c #B5740D",
";  c #AB7B24",
":  c #CE6E00",
">  c #CE6F0B",
",  c #C67F03",
"<  c #D17604",
"1  c #D17A07",
"2  c #D17936",
"3  c #BD7549",
"4  c #BB8003",
"5  c #BE850A",
"6  c #B89333",
"7  c #CB8303",
"8  c #C28804",
"9  c #C88D02",
"0  c #CA840B",
"q  c #C28A0C",
"w  c #D38A04",
"e  c #DA8E02",
"r  c #D28B0B",
"t  c #CE9402",
"y  c #C99109",
"u  c #D29402",
"i  c #DD9002",
"p  c #D59B03",
"a  c #DB9C04",
"s  c #D6900D",
"d  c #D39F1A",
"f  c #E39702",
"g  c #E69A02",
"h  c #E89B01",
"j  c #E69D0B",
"k  c #E89F0D",
"l  c #DBA104",
"z  c #D9A20F",
"x  c #EDA702",
"c  c #E5AA02",
"v  c #ECAA02",
"b  c #F0AD02",
"n  c #F5B602",
"m  c #F4B802",
"M  c #FBBE03",
"N  c #F2B50D",
"B  c #F9BE0F",
"V  c #C79F36",
"C  c #C2A13A",
"Z  c #FEC101",
"A  c #FDC20C",
"S  c #FEC412",
"D  c #FDC21A",
"F  c #FBC22F",
"G  c #FDCB2D",
"H  c #FDD33B",
"J  c #DC9442",
"K  c #CBAD41",
"L  c #E8A546",
"P  c #F6BC43",
"I  c #D6926A",
"U  c #FDC748",
"Y  c #FDDD4B",
"T  c #E1CB51",
"R  c #FCC755",
"E  c #FCC850",
"W  c #EBD757",
"Q  c #FEE04E",
"!  c #FDE253",
"~  c #F7E75F",
"^  c #FDCB62",
"/  c #FEEE62",
"(  c #DCA488",
")  c #DEAA8F",
"_  c #CBA491",
"`  c #E2B59E",
"'  c #D8B2A0",
"]  c #F8CF8F",
"[  c #FDD384",
"{  c #FED58D",
"}  c #F4D1A7",
"|  c #FCDCA7",
" . c #FEDEA8",
".. c #EECEB7",
"X. c #E8C6B8",
"o. c #E9C8BA",
"O. c #FADDB7",
"+. c #FFE1AF",
"@. c #FEE1B1",
"#. c #FEE5BF",
"$. c #F1DFD6",
"%. c #FEE7C3",
"&. c #FDEACD",
"*. c #FCEDD4",
"=. c #F3E5DC",
"-. c #FBEFDD",
";. c #FDF0DA",
":. c #F1E7E1",
">. c #F4E9E2",
",. c #F5EFEA",
"<. c #FEF3E1",
"1. c #F5F1EC",
"2. c #FCF7EB",
"3. c #FBF8EF",
"4. c #FEFAF1",
"5. c None",
/* pixels */
"5.5.5.5.5.5.5.5.5.5.5.5.5.5.5.5.5.5.5.5.5.5.5.5.5.5.5.5.5.5.5.5.",
"5.5.5.5.5.5.5.5.5.5.5.5.5.5.5.5.5.5.5.5.5.5.5.5.5.5.5.5.5.5.5.5.",
"5.5.5.5.5.5.5.5.5.5.5.5.5.5.5.5.5.5.5.5.5.5.5.5.5.5.5.5.5.5.5.5.",
"5.5.5.5.5.5.5.5.5.5.5.5.5.*.@.+.+.+.+.#.<.5.5.5.5.5.5.5.5.5.5.5.",
"5.5.5.5.5.5.5.5.5.5.5.-.^ Z Z Z G Y Q Z Z [ 2.5.5.5.5.5.5.5.5.5.",
"5.5.5.5.5.5.5.5.5.5.*.F Z Z S ! / / / Z Z Z U <.5.5.5.5.5.5.5.5.",
"5.5.5.5.5.5.5.5.5.,.J e i B ! / / / / Z Z Z Z E 2.5.5.5.5.5.5.5.",
"5.5.5.5.5.5.5.5.5.) : : h Y / / T 6 ; * l Z Z Z { 5.5.5.5.5.5.5.",
"5.5.5.5.5.5.5.5.:.> : < G / / C , f g i $ 4 M Z Z ;.5.5.5.5.5.5.",
"5.5.5.5.5.5.5.5.` : : h ! / K e h h h h h & 8 Z Z { 5.5.5.5.5.5.",
"5.5.5.5.5.5.5.5.P n n D / W 7 h h h h h h g O c Z D 3.5.5.5.5.5.",
"5.5.5.5.5.5.5.<.Z Z Z H / V g h h h h h h h w * Z M &.5.5.5.5.5.",
"5.5.5.5.5.5.5.%.Z Z Z Y ~ 0 h h h h h h h h g . m M | 5.5.5.5.5.",
"5.5.5.5.5.5.5. .Z Z Z Y T i h h h h h h h h g & l A [ 5.5.5.5.5.",
"5.5.5.5.5.5.5.] n n M Z d g h h h h h h h g g 0 y A ^ 5.5.5.5.5.",
"5.5.5.5.5.5.5.( : : b Z u h h h h h h h h g j 0 q A R 5.5.5.5.5.",
"5.5.5.5.5.5.5.( : : b Z u h h h h h h h h g k s 5 Z R 5.5.5.5.5.",
"5.5.5.5.5.5.5.) : : x Z u h h h h h h h g g g r 8 Z ^ 5.5.5.5.5.",
"5.5.5.5.5.5.5.} x x n Z p g h h h h g g j j g , t Z [ 5.5.5.5.5.",
"5.5.5.5.5.5.5.%.Z Z Z Z c e h h h g g j j j g % c Z  .5.5.5.5.5.",
"5.5.5.5.5.5.5.<.Z Z Z Z M , h h g g k g j g g   M Z &.5.5.5.5.5.",
"5.5.5.5.5.5.5.5.L g g m Z t f g g j j j g g 7 8 Z D 4.5.5.5.5.5.",
"5.5.5.5.5.5.5.5.' # # a Z m = j j j j g g f   m Z { 5.5.5.5.5.5.",
"5.5.5.5.5.5.5.5.:.o X @ M Z l 0 j j g g f + a Z Z ;.5.5.5.5.5.5.",
"5.5.5.5.5.5.5.5.5._ X X p A M z - 0 w , . p Z Z { 5.5.5.5.5.5.5.",
"5.5.5.5.5.5.5.5.5.1.3 # # N A A m p 9 p m Z Z E 2.5.5.5.5.5.5.5.",
"5.5.5.5.5.5.5.5.5.5.=.2 : 1 N M Z Z Z Z Z Z U <.5.5.5.5.5.5.5.5.",
"5.5.5.5.5.5.5.5.5.5.5.>.I : < x Z Z Z Z Z [ 2.5.5.5.5.5.5.5.5.5.",
"5.5.5.5.5.5.5.5.5.5.5.5.5.$.o.X...O.@.#.<.5.5.5.5.5.5.5.5.5.5.5.",
"5.5.5.5.5.5.5.5.5.5.5.5.5.5.5.5.5.5.5.5.5.5.5.5.5.5.5.5.5.5.5.5.",
"5.5.5.5.5.5.5.5.5.5.5.5.5.5.5.5.5.5.5.5.5.5.5.5.5.5.5.5.5.5.5.5.",
"5.5.5.5.5.5.5.5.5.5.5.5.5.5.5.5.5.5.5.5.5.5.5.5.5.5.5.5.5.5.5.5."
};
