/* XPM */
static char *rcp05355401593300[] = {
/* columns rows colors chars-per-pixel */
"32 32 132 2 ",
"   c #9C5D04",
".  c #A05F03",
"X  c #AE5A04",
"o  c #A56004",
"O  c #A96403",
"+  c #B96103",
"@  c #B16F03",
"#  c #B37203",
"$  c #BD7504",
"%  c #BE7903",
"&  c #B3710D",
"*  c #A26916",
"=  c #BD6C30",
"-  c #C06B05",
";  c #CE6E01",
":  c #C37D03",
">  c #CE730C",
",  c #D27702",
"<  c #D57D02",
"1  c #CF731F",
"2  c #BD8103",
"3  c #AE842B",
"4  c #B28D2F",
"5  c #B69134",
"6  c #BF9F3A",
"7  c #C38603",
"8  c #CB8303",
"9  c #C58B03",
"0  c #CE8B03",
"q  c #D18702",
"w  c #D98706",
"e  c #D38903",
"r  c #D98E03",
"t  c #D18C0F",
"y  c #D88A0A",
"u  c #CE9203",
"i  c #D19402",
"p  c #DD9304",
"a  c #D79B02",
"s  c #DB9C03",
"d  c #D29B0C",
"f  c #CD8D16",
"g  c #DB8F1A",
"h  c #CC9715",
"j  c #D49315",
"k  c #D6981E",
"l  c #E29603",
"z  c #E69902",
"x  c #E89B02",
"c  c #E99D0C",
"v  c #E19510",
"b  c #DEA403",
"n  c #E2A603",
"m  c #EBA602",
"M  c #E7AC02",
"N  c #EFAA02",
"B  c #E5AE0E",
"V  c #F0AC01",
"C  c #EDB203",
"Z  c #EEB00F",
"A  c #F4B402",
"S  c #F8B703",
"D  c #F6B902",
"F  c #FABC02",
"G  c #F9BF0A",
"H  c #ECA715",
"J  c #F0B519",
"K  c #DAA42B",
"L  c #E8A822",
"P  c #EFBA36",
"I  c #FEC101",
"U  c #FCC20C",
"Y  c #FDC411",
"T  c #FEC519",
"R  c #FDC523",
"E  c #EEC233",
"W  c #FCC435",
"Q  c #FBCD36",
"!  c #F5C73E",
"~  c #F6CF3E",
"^  c #FDD137",
"/  c #FDD23E",
"(  c #D48756",
")  c #D58D60",
"_  c #C08C73",
"`  c #D89773",
"'  c #F4BE60",
"]  c #DAC34C",
"[  c #F2C640",
"{  c #F2C843",
"}  c #F6D44D",
"|  c #FDDD4C",
" . c #FDCE56",
".. c #FDCE5E",
"X. c #E5D053",
"o. c #F7DA51",
"O. c #F8DA50",
"+. c #FDE353",
"@. c #F4E35D",
"#. c #FDE75A",
"$. c #FFEC5F",
"%. c #FBCB60",
"&. c #FCCF6A",
"*. c #FECE71",
"=. c #FDD27E",
"-. c #FEEE62",
";. c #CD9A82",
":. c #F2C482",
">. c #FED58B",
",. c #FED792",
"<. c #FEDCA3",
"1. c #FDDEAA",
"2. c #EACEBF",
"3. c #FBDFB2",
"4. c #F0D4BF",
"5. c #FDE3B7",
"6. c #FCE4BD",
"7. c #ECD3C7",
"8. c #E6D7CF",
"9. c #EEDACF",
"0. c #EEDFD6",
"q. c #FBE7C5",
"w. c #FEE8C5",
"e. c #FEEACB",
"r. c #F2E0D6",
"t. c #F2E3DA",
"y. c #EFE7E2",
"u. c #FDF4E3",
"i. c #FDF7EB",
"p. c #FCF8EE",
"a. c #FDFAF3",
"s. c None",
/* pixels */
"s.s.s.s.s.s.s.s.s.s.s.s.s.s.s.s.s.s.s.s.s.s.s.s.s.s.s.s.s.s.s.s.",
"s.s.s.s.s.s.s.s.s.s.s.s.s.s.s.s.s.s.s.s.s.s.s.s.s.s.s.s.s.s.s.s.",
"s.s.s.s.s.s.s.s.s.s.s.s.s.s.s.s.s.s.s.s.s.s.s.s.s.s.s.s.s.s.s.s.",
"s.s.s.s.s.s.s.s.s.s.s.s.u.5.<.<.<.<.<.6.a.s.s.s.s.s.s.s.s.s.s.s.",
"s.s.s.s.s.s.s.s.s.s.p.>.^ | +.I I I I I W q.s.s.s.s.s.s.s.s.s.s.",
"s.s.s.s.s.s.s.s.s.i...+.-.-.$.I I I I I F Y 5.s.s.s.s.s.s.s.s.s.",
"s.s.s.s.s.s.s.s.a.&.#.-.-.-.-.I I I I F p y g 0.s.s.s.s.s.s.s.s.",
"s.s.s.s.s.s.s.s.1.+.-.-.] 3 * # s F U U Z > ; ) s.s.s.s.s.s.s.s.",
"s.s.s.s.s.s.s.i./ -.-.5 # p x z 8 2 F U U w ; ; 7.s.s.s.s.s.s.s.",
"s.s.s.s.s.s.s.1.+.-.6 % P o.O.[ c p 9 I F N ; ; ` s.s.s.s.s.s.s.",
"s.s.s.s.s.s.s. .-.X.O { | T I Y J z 8 M I I F F F i.s.s.s.s.s.s.",
"s.s.s.s.s.s.u./ -.4 K | I I I I I s x 7 I I I I I w.s.s.s.s.s.s.",
"s.s.s.s.s.s.w.| @.. } T I I I I I A r 8 D I I I I <.s.s.s.s.s.s.",
"s.s.s.s.s.s.1.| ] $ | i m I I I D I 0 p b I I I I =.s.s.s.s.s.s.",
"s.s.s.s.s.s.>.I h f ~ : x A I n : N i z i I F A A ' s.s.s.s.s.s.",
"s.s.s.s.s.s.>.I 9 k E e x m F % x V i x i I F ; ; ( s.s.s.s.s.s.",
"s.s.s.s.s.s.>.I 7 j Q p x N D e x S u x i I F ; ; ( s.s.s.s.s.s.",
"s.s.s.s.s.s.,.I 9 t / U S I I D F I 7 x i I A ; ; ) s.s.s.s.s.s.",
"s.s.s.s.s.s.1.F d : ! F I I I I I A : z a I F V V :.s.s.s.s.s.s.",
"s.s.s.s.s.s.q.U B & L R I I I I I 7 l r M I I I I <.s.s.s.s.s.s.",
"s.s.s.s.s.s.u.G G   l H F D I D C q x : F I I I I e.s.s.s.s.s.s.",
"s.s.s.s.s.s.a.%.I 9 : x I n I n F 8 l u I F l l v p.s.s.s.s.s.s.",
"s.s.s.s.s.s.s.3.I D . l S u I a i r : D I n + + ;.s.s.s.s.s.s.s.",
"s.s.s.s.s.s.s.a.W I b o l p s 8 z : n I I $ X X 8.s.s.s.s.s.s.s.",
"s.s.s.s.s.s.s.s.5.I I b . : q 8 @ b I I n X X _ s.s.s.s.s.s.s.s.",
"s.s.s.s.s.s.s.s.s.=.I I F s u b F I I D $ + = y.s.s.s.s.s.s.s.s.",
"s.s.s.s.s.s.s.s.s.a.*.I I I I I I I F < ; 1 9.s.s.s.s.s.s.s.s.s.",
"s.s.s.s.s.s.s.s.s.s.a.<.R I I I I N , ; ( t.s.s.s.s.s.s.s.s.s.s.",
"s.s.s.s.s.s.s.s.s.s.s.s.a.e.6.6.4.2.2.r.s.s.s.s.s.s.s.s.s.s.s.s.",
"s.s.s.s.s.s.s.s.s.s.s.s.s.s.s.s.s.s.s.s.s.s.s.s.s.s.s.s.s.s.s.s.",
"s.s.s.s.s.s.s.s.s.s.s.s.s.s.s.s.s.s.s.s.s.s.s.s.s.s.s.s.s.s.s.s.",
"s.s.s.s.s.s.s.s.s.s.s.s.s.s.s.s.s.s.s.s.s.s.s.s.s.s.s.s.s.s.s.s."
};
