/* XPM */
static char *rcp05354417119495[] = {
/* columns rows colors chars-per-pixel */
"32 32 123 2 ",
"   c #904D02",
".  c #955303",
"X  c #9A5601",
"o  c #9D5B02",
"O  c #975A0F",
"+  c #9B5C0C",
"@  c #985D11",
"#  c #A15D03",
"$  c #9F6209",
"%  c #9A6316",
"&  c #A26403",
"*  c #AD6C03",
"=  c #B46F02",
"-  c #B47403",
";  c #BA7403",
":  c #B67A04",
">  c #BA7C03",
",  c #B8760F",
"<  c #B07F1C",
"1  c #C37D03",
"2  c #BD8303",
"3  c #AD842C",
"4  c #B58F31",
"5  c #B99435",
"6  c #C28702",
"7  c #CC8303",
"8  c #C48A03",
"9  c #CB8D04",
"0  c #C58E0C",
"q  c #D18702",
"w  c #D38A03",
"e  c #D98E03",
"r  c #CD9303",
"t  c #CD940E",
"y  c #D29603",
"u  c #DD9102",
"i  c #D39903",
"p  c #D99F01",
"a  c #DE970A",
"s  c #DF990D",
"d  c #E39603",
"f  c #E59903",
"g  c #E89B02",
"h  c #E79C08",
"j  c #E89E0C",
"k  c #E19D18",
"l  c #DCA103",
"z  c #D9A10D",
"x  c #E1A103",
"c  c #EBA002",
"v  c #E5AB04",
"b  c #EAAC03",
"n  c #F1AA02",
"m  c #ECB102",
"M  c #F4B402",
"N  c #F6BA03",
"B  c #FABD02",
"V  c #F5B70B",
"C  c #F5BB0C",
"Z  c #EAA51C",
"A  c #F1B31F",
"S  c #C6A93F",
"D  c #EBAC26",
"F  c #E6B72A",
"G  c #EEB834",
"H  c #FEC101",
"J  c #FDC20C",
"K  c #FEC314",
"L  c #FCC31B",
"P  c #F8C125",
"I  c #FEC924",
"U  c #FDC32B",
"Y  c #EFC03D",
"T  c #FEC636",
"R  c #FECE31",
"E  c #FDC53C",
"W  c #F7CC3C",
"Q  c #FECA3A",
"!  c #FDD43D",
"~  c #D0B445",
"^  c #F1C440",
"/  c #FEC744",
"(  c #F3CA44",
")  c #FDC74B",
"_  c #F4CD48",
"`  c #FDC94B",
"'  c #FDD642",
"]  c #FEDA46",
"[  c #F6D54E",
"{  c #FDDD4B",
"}  c #E2CC51",
"|  c #FEC750",
" . c #EDDC59",
".. c #F6D650",
"X. c #FDE354",
"o. c #F6E45D",
"O. c #FDE658",
"+. c #FDEA5C",
"@. c #FDCB64",
"#. c #FDCE6D",
"$. c #FCCE73",
"%. c #FEEE62",
"&. c #FDD382",
"*. c #FDD58B",
"=. c #FDD795",
"-. c #FDD895",
";. c #FDD99B",
":. c #FDDCA5",
">. c #FEE1AF",
",. c #FEE1B4",
"<. c #FEE5BD",
"1. c #FEE7C4",
"2. c #FEE9C7",
"3. c #FBE7C8",
"4. c #FDEACC",
"5. c #FDEDD3",
"6. c #FDF1DC",
"7. c #FDF3E2",
"8. c #FDF6EA",
"9. c #FEF8ED",
"0. c #F8F6F0",
"q. c #FEFBF3",
"w. c None",
/* pixels */
"w.w.w.w.w.w.w.w.w.w.w.w.w.w.w.w.w.w.w.w.w.w.w.w.w.w.w.w.w.w.w.w.",
"w.w.w.w.w.w.w.w.w.w.w.w.w.w.w.w.w.w.w.w.w.w.w.w.w.w.w.w.w.w.w.w.",
"w.w.w.w.w.w.w.w.w.w.w.w.w.w.w.w.w.w.w.w.w.w.w.w.w.w.w.w.w.w.w.w.",
"w.w.w.w.w.w.w.w.w.w.w.w.q.6.2.<.<.4.7.w.w.w.w.w.w.w.w.w.w.w.w.w.",
"w.w.w.w.w.w.w.w.w.w.6.=.Q ! ] { R H H / :.8.w.w.w.w.w.w.w.w.w.w.",
"w.w.w.w.w.w.w.w.9.*.R X.%.%.%.%.' H H H H K :.q.w.w.w.w.w.w.w.w.",
"w.w.w.w.w.w.w.6.` { %.%.%.%.%.%.] H H H H H H @.8.w.w.w.w.w.w.w.",
"w.w.w.w.w.w.6.T O.%.%.%. .~ 5 3 < 6 l N H H H H ) 8.w.w.w.w.w.w.",
"w.w.w.w.w.8./ O.%.%. .4 o 1 e d g u 7 * r B H H H @.0.w.w.w.w.w.",
"w.w.w.w.w.&.] %.%.} O 1 Z ^ [ [ _ G g g q - N H B J :.w.w.w.w.w.",
"w.w.w.w.5.I %.%.} . 9 _ O.! I K K I P d g u - B H J L 7.w.w.w.w.",
"w.w.w.w.&.{ %.o.% 1 ..{ J H H H H H H N e g e 6 H H J :.w.w.w.w.",
"w.w.w.9.J +.%.S # Y X.H H H H H H H H H m q g ; m H H ) w.w.w.w.",
"w.w.w.4.L +.%.@ 7 X.L 9 x B H H H H H H H 6 g u 8 H H H 7.w.w.w.",
"w.w.w.,.H J F   k X.r 7 g c B H H v > 7 M l e g - H H H 4.w.w.w.",
"w.w.w.:.H H p . D ' > g g g b H l ; g g n v 7 g = B H H 1.w.w.w.",
"w.w.w.:.H H i X Z ! v u g g n H 8 g g g N v 1 g ; N H H 1.w.w.w.",
"w.w.w.>.H H l . h ' H N M M H H B M M B H i q g = H H H 4.w.w.w.",
"w.w.w.4.H H b   u ( J H H H H J J B H H N * g g - H H H 7.w.w.w.",
"w.w.w.8.H H H o 1 j W J H H B J J J H N : e g u r H H E w.w.w.w.",
"w.w.w.w.$.H H r o g h A B B C B J M H 2 u g g - M H H ;.w.w.w.w.",
"w.w.w.w.4.H H B & ; g g B J z J J y J i u g q r H H J 7.w.w.w.w.",
"w.w.w.w.w.#.H H m X 1 h V v t B H 8 b - d e > B H H -.w.w.w.w.w.",
"w.w.w.w.w.7.U H H b $ , a s a x y 1 d g 1 2 B H H | q.w.w.w.w.w.",
"w.w.w.w.w.w.4.K B J C 0 + - 7 e u q 1 * l H H H T 6.w.w.w.w.w.w.",
"w.w.w.w.w.w.w.4.U B H J N l 9 2 6 y b H H H H ) 6.w.w.w.w.w.w.w.",
"w.w.w.w.w.w.w.w.7.$.B J H H H H H H H H H H *.9.w.w.w.w.w.w.w.w.",
"w.w.w.w.w.w.w.w.w.q.3.$.J H H H H H H L *.5.w.w.w.w.w.w.w.w.w.w.",
"w.w.w.w.w.w.w.w.w.w.w.w.9.4.,.:.:.,.5.q.w.w.w.w.w.w.w.w.w.w.w.w.",
"w.w.w.w.w.w.w.w.w.w.w.w.w.w.w.w.w.w.w.w.w.w.w.w.w.w.w.w.w.w.w.w.",
"w.w.w.w.w.w.w.w.w.w.w.w.w.w.w.w.w.w.w.w.w.w.w.w.w.w.w.w.w.w.w.w.",
"w.w.w.w.w.w.w.w.w.w.w.w.w.w.w.w.w.w.w.w.w.w.w.w.w.w.w.w.w.w.w.w."
};
