/* XPM */
static char *rcp053545983642[] = {
/* columns rows colors chars-per-pixel */
"32 32 140 2 ",
"   c #AD5A04",
".  c #AE5D0B",
"X  c #B45F06",
"o  c #A76603",
"O  c #AA6C03",
"+  c #AF600E",
"@  c #BC6302",
"#  c #B06F02",
"$  c #B6630C",
"%  c #B8650E",
"&  c #B27403",
"*  c #B97302",
"=  c #BF7803",
"-  c #B06210",
";  c #BE7710",
":  c #BE6A27",
">  c #CE6E01",
",  c #CF7101",
"<  c #C47D03",
"1  c #CA7F03",
"2  c #CE730A",
"3  c #D57B02",
"4  c #D17936",
"5  c #BB8003",
"6  c #BE850B",
"7  c #B0892F",
"8  c #C78003",
"9  c #CB8403",
"0  c #C48A02",
"q  c #CD8C04",
"w  c #C7870B",
"e  c #CA850A",
"r  c #CB8E08",
"t  c #D48C03",
"y  c #DB8F02",
"u  c #D28C0E",
"i  c #CE9403",
"p  c #D49203",
"a  c #DD9404",
"s  c #D79C03",
"d  c #DB9A03",
"f  c #D4991A",
"g  c #E29401",
"h  c #E49B03",
"j  c #E89E01",
"k  c #E09708",
"l  c #E59B09",
"z  c #E99F0C",
"x  c #DDA303",
"c  c #DCA309",
"v  c #E1A603",
"b  c #EAA202",
"n  c #E5AA03",
"m  c #ECAC02",
"M  c #E0A60B",
"N  c #E9A30E",
"B  c #E2AA0E",
"V  c #EBAF0B",
"C  c #EBB003",
"Z  c #F3B402",
"A  c #F6BA03",
"S  c #FABD03",
"D  c #F2B60A",
"F  c #F5BD0D",
"G  c #F9BF0A",
"H  c #E7A017",
"J  c #ECAD1E",
"K  c #F0B219",
"L  c #CC9E32",
"P  c #EFB72E",
"I  c #EDB635",
"U  c #EFBC38",
"Y  c #F0BF3B",
"T  c #FFC101",
"R  c #FDC20B",
"E  c #FFC416",
"W  c #FEC41A",
"Q  c #F9C220",
"!  c #FDC924",
"~  c #F7C32F",
"^  c #FCC52C",
"/  c #FECD2E",
"(  c #F6C332",
")  c #FEC536",
"_  c #F6C93C",
"`  c #FDD035",
"'  c #FED33B",
"]  c #D28144",
"[  c #D18350",
"{  c #CCAD40",
"}  c #D8B340",
"|  c #D7BF4A",
" . c #ECB568",
".. c #DEC64E",
"X. c #FAC245",
"o. c #F4C841",
"O. c #FEC748",
"+. c #FDD641",
"@. c #FDD945",
"#. c #F6D44E",
"$. c #FDDC4B",
"%. c #FDC955",
"&. c #FECA59",
"*. c #E6D355",
"=. c #F3E25C",
"-. c #FEEA5D",
";. c #FECB63",
":. c #FECE6E",
">. c #FDCF73",
",. c #FED27D",
"<. c #FEEE62",
"1. c #C79780",
"2. c #C9A08C",
"3. c #E0B096",
"4. c #E7B990",
"5. c #E5BFAD",
"6. c #FDD281",
"7. c #FED68C",
"8. c #FED792",
"9. c #F2CFAC",
"0. c #FEDDA4",
"q. c #FEDCA8",
"w. c #E9CCBD",
"e. c #FEE1B2",
"r. c #FEE4BC",
"t. c #EADDD7",
"y. c #FDE8C6",
"u. c #FDEACB",
"i. c #F9E6D2",
"p. c #FCECD7",
"a. c #F0E3DA",
"s. c #FDF0DA",
"d. c #F4E6E0",
"f. c #F6EFEB",
"g. c #FDF5E6",
"h. c #FEF7EA",
"j. c #FEF9EE",
"k. c #F9F5F2",
"l. c #FCFAF4",
"z. c None",
/* pixels */
"z.z.z.z.z.z.z.z.z.z.z.z.z.z.z.z.z.z.z.z.z.z.z.z.z.z.z.z.z.z.z.z.",
"z.z.z.z.z.z.z.z.z.z.z.z.z.z.z.z.z.z.z.z.z.z.z.z.z.z.z.z.z.z.z.z.",
"z.z.z.z.z.z.z.z.z.z.z.z.z.z.z.z.z.z.z.z.z.z.z.z.z.z.z.z.z.z.z.z.",
"z.z.z.z.z.z.z.z.z.z.z.l.u.r.r.r.r.r.r.u.l.z.z.z.z.z.z.z.z.z.z.z.",
"z.z.z.z.z.z.z.z.z.z.g.;.T T T T T ` $.R O.s.z.z.z.z.z.z.z.z.z.z.",
"z.z.z.z.z.z.z.z.z.l.%.T T T T T $.<.<.E T ) g.z.z.z.z.z.z.z.z.z.",
"z.z.z.z.z.z.z.z.z.4.g g g g b +.<.<.<.E T T >.z.z.z.z.z.z.z.z.z.",
"z.z.z.z.z.z.z.z.d.> > > > > K -.<.| 7 6 Z T T u.z.z.z.z.z.z.z.z.",
"z.z.z.z.z.z.z.z.3.> > > > 3 @.<.{ 9 g t o Z T 6.z.z.z.z.z.z.z.z.",
"z.z.z.z.z.z.z.l.4 > > > > h -.*.t U #.U a & T R j.z.z.z.z.z.z.z.",
"z.z.z.z.z.z.z.p.Z Z Z Z Z Q <.L Y @.E ! N = n T u.z.z.z.z.z.z.z.",
"z.z.z.z.z.z.z.e.T T T T T ' =.u $.T T T Z y 0 T 0.z.z.z.z.z.z.z.",
"z.z.z.z.z.z.z.8.T T T T T @...I / T T T T d # T ,.z.z.z.z.z.z.z.",
"z.z.z.z.z.z.z.:.T T T T T $.} o.c A T T T d * A &.z.z.z.z.z.z.z.",
"z.z.z.z.z.z.z.X.S S S S S T f _ 9 b T n 9 x < m ) z.z.z.z.z.z.z.",
"z.z.z.z.z.z.z.4 > > > > g T t ( 9 j S w l c 8 v E z.z.z.z.z.z.z.",
"z.z.z.z.z.z.z.4 > > > > g T t ~ d j A u N B e x E z.z.z.z.z.z.z.",
"z.z.z.z.z.z.z.] > > > > y T p ( S Z S D A c 8 v ^ z.z.z.z.z.z.z.",
"z.z.z.z.z.z.z. .b b b b m T p P S R R R R q < C %.z.z.z.z.z.z.z.",
"z.z.z.z.z.z.z.7.T T T T T T s H ^ R S T Z 9 * A ,.z.z.z.z.z.z.z.",
"z.z.z.z.z.z.z.e.T T T T T T M k J G G A s h & T 0.z.z.z.z.z.z.z.",
"z.z.z.z.z.z.z.i.j j j j j Z F u N D A m v a 0 T u.z.z.z.z.z.z.z.",
"z.z.z.z.z.z.z.l.: @ @ @ @ d S r z n Z x q * C T h.z.z.z.z.z.z.z.",
"z.z.z.z.z.z.z.z.2.      . ; S C 8 a h 9 t 5 T >.z.z.z.z.z.z.z.z.",
"z.z.z.z.z.z.z.z.t.  . . + - V T s < y 8 O A T y.z.z.z.z.z.z.z.z.",
"z.z.z.z.z.z.z.z.z.1.% $ % X 1 T T n 0 i A T ;.z.z.z.z.z.z.z.z.z.",
"z.z.z.z.z.z.z.z.z.f.] 2 2 > > b T T T T T W s.z.z.z.z.z.z.z.z.z.",
"z.z.z.z.z.z.z.z.z.z.a.[ > > > , m T T T ^ u.z.z.z.z.z.z.z.z.z.z.",
"z.z.z.z.z.z.z.z.z.z.z.k.w.5.5.5.5.9.q.e.h.z.z.z.z.z.z.z.z.z.z.z.",
"z.z.z.z.z.z.z.z.z.z.z.z.z.z.z.z.z.z.z.z.z.z.z.z.z.z.z.z.z.z.z.z.",
"z.z.z.z.z.z.z.z.z.z.z.z.z.z.z.z.z.z.z.z.z.z.z.z.z.z.z.z.z.z.z.z.",
"z.z.z.z.z.z.z.z.z.z.z.z.z.z.z.z.z.z.z.z.z.z.z.z.z.z.z.z.z.z.z.z."
};
