/* XPM */
static char *rcp04022311028896[] = {
/* columns rows colors chars-per-pixel */
"32 32 11 1 ",
"  c black",
". c #000101",
"X c #3A0911",
"o c #3B0B13",
"O c #811426",
"+ c #A11B31",
"@ c #F3FDFD",
"# c #F6FEFE",
"$ c #FAFEFE",
"% c #FEFFFF",
"& c white",
/* pixels */
"&&&&&&&&&&&&&&&&&&&&&&&&&&&&&&&&",
"&&&&&&&&&&&&&&&&&&&&&&&&&&&&&&&&",
"&&&&&&&&&&&&&&&&&&&&&&&&&&&&&&&&",
"&&&&&&&&&&&&&&&&&&&&&&&&&&&&&&&&",
"&&&&&&&&&&&&&&&&&&&&&&&&&&&&&&&&",
"&&&&&&&&&&&&&&&&&&&&&&&&&&&&&&&&",
"&&&&&&&&&&&&&&&&&&&&&&&&&&&&&&&&",
"&&&&&&&&&&&&&&&&&&&&&&&&&&&&&&&&",
"&&&&&&&&&&&&&&&&&&&&&&&&&&&&&&&&",
"&&&&&&&&&&&&&XXXXXXX&&&&&&&&&&&&",
"&&&&&&&&&&&&XO++++++X&&&&&&&&&&&",
"&&&&&&&&&XXXO+++XXXX+X&&&&&&&&&&",
"&&&&&&&&XOOO+++X    X+X&&&&&&&&&",
"&&&&&&&&XOOO++X      X+X&&&&&&&&",
"&&&&&&&&&XOO++X      X+X&&&&&&&&",
"&&&&&&&&&&XOO+X      X+X&&&&&&&&",
"&&&&&&&&&&&XO+X &   &X+X&&&&&&&&",
"&&&&&&&&&&&XO+X      XOX&&&&&&&&",
"&&&&&&&&&&&XOO+X     XOX&&&&&&&&",
"&&&&&&&&&&XXXOOOX   XOX&&&&&&&&&",
"&&&&&&&&&XO++XXOOXXXOXX&&&&&&&&&",
"&&&&&&&&&X+++++++++++X&&&&&&&&&&",
"&&&&&&&&X+++++++++++OX&&&&&&&&&&",
"&&&&&&&&XO+++++O++++OX&&&&&&&&&&",
"&&&&&&&&XO++++++O++++X&&&&&&&&&&",
"&&&&&&&XOO+++++OXO++OOX&&&&&&&&&",
"&&&&&&&XOOO+O+OOXOO+OOX&&&&&&&&&",
"&&&&&&&XOOOO+OOX XOOOOX&&&&&&&&&",
"&&&&&&&&XOOOOOX  XOOXX&&&&&&&&&&",
"&&&&&&&&&XXXOOX   XXOX&&&&&&&&&&",
"&&&&&&&&&&& XX&&&   X&&&&&&&&&&&",
"&&&&&&&&&  &&&&  &$#@@#$&&&&&&&&"
};
