/* XPM */
static char *rcp04021965766636[] = {
/* columns rows colors chars-per-pixel */
"32 32 5 1 ",
"  c gray65",
". c #BAA9AC",
"X c #D3ADB3",
"o c #DEAFB7",
"O c none",
/* pixels */
"OOOOOOOOOOOOOOOOOOOOOOOOOOOOOOOO",
"OOOOOOOOOOOOOOOOOOOOOOOOOOOOOOOO",
"OOOOOOOOOOOOOOOOOOOOOOOOOOOOOOOO",
"OOOOOOOOOOOOOOOOOOOOOOOOOOOOOOOO",
"OOOOOOOOOOOOOOOOOOOOOOOOOOOOOOOO",
"OOOOOOOOOOOOOOOOOOOOOOOOOOOOOOOO",
"OOOOOOOOOOOOOOOOOOOOOOOOOOOOOOOO",
"OOOOOOOOOOOOOOOOOOOOOOOOOOOOOOOO",
"OOOOOOOOOOO..O....OOOOOOOOOOOOOO",
"OOOOOOOOOOOXOOoooo.OOOOOOOOOOOOO",
"OOOOOOOOO.XOOo....o.OOOOOOOOOOOO",
"OOOOOOOO.XOoo.    .o.OOOOOOOOOOO",
"OOOOOOOO.XOoO      .OOOOOOOOOOOO",
"OOOOOOOOOXOoO      .o.OOOOOOOOOO",
"OOOOOO.XOXOO.      .o.OOOOOOOOOO",
"OOOOOOOOOOXOO      .OOOOOOOOOOOO",
"OOOOOOO.O.XOOO     .O.OOOOOOOOOO",
"OOOOOOOOO.XOoO     .X.OOOOOOOOOO",
"OOOOOOOOOO.XOX.   .XOOOOOOOOOOOO",
"OOOOOOOOOOO..XX..OXOOOOOOOOOOOOO",
"OOOOOOOOO.OoooOooOooOOOOOOOOOOOO",
"OOOOOOOOOOXoOooOoOOoOOOOOOOOOOOO",
"OOOOOOOO.OOOOOOOooOOoOOOOOOOOOOO",
"OOOOOOOOXOoOoOOoXOOoOXOOOOOOOOOO",
"OOOOOO.XOOOOOOOoOOoooX.OOOOOOOOO",
"OOOOOO.OOOoOOoOO.OooXOO.OOOOOOOO",
"OOOOOOOXXOOOOOOOOOOoOXO.OOOOOOOO",
"OOOOOO.OOOOOoOO. OOXOOOOOOOOOOOO",
"OOOOOOOOOOOOOOOOOOOOOOOOOOOOOOOO",
"OOOOOOOOOO.OOOO OOOOOOOOOOOOOOOO",
"OOOOOOOOOOOOOO OOOOOOOOOOOOOOOOO",
"OOOOOOOOOOOOOOOOOOOOOOOOOOOOOOOO"
};
