/* XPM */
static char *rcp04022140757156[] = {
/* columns rows colors chars-per-pixel */
"32 32 5 1 ",
"  c black",
". c #3A0911",
"X c #811426",
"o c #A11B31",
"O c white",
/* pixels */
"OOOOOOOOOOOOOOOOOOOOOOOOOOOOOOOO",
"OOOOOOOOOOOOOOOOOOOOOOOOOOOOOOOO",
"OOOOOOOOOOOOOOOOOOOOOOOOOOOOOOOO",
"OOOOOOOOOOOOOOOOOOOOOOOOOOOOOOOO",
"OOOOOOOOOOOOOOOOOOOOOOOOOOOOOOOO",
"OOOOOOOOO.......OOOOOOOOOOOOOOOO",
"OOOOOOOO.Xoooooo.OOOOOOOOOOOOOOO",
"OOOOOOO.Xooo....o.OOOOOOOOOOOOOO",
"OOOOOO.Xooo.    .o.OOOOOOOOOOOOO",
"OOOOOO.Xoo.      .o.OOOOOOOOOOOO",
"OOOOO.XXoo. O   O.o.OOOOOOOOOOOO",
"OOOOO.XXXo. O   O.o.OOOOOOOOOOOO",
"OOOOO.X.Xo. O   O.o.OOOOOOOOOOOO",
"OOOOO.X.Xo.      .X.OOOOOOOOOOOO",
"OOOOOO..XXo.     .X.OOOOOOOOOOOO",
"OOOOOOOO.XXX.   .X.OOOOOOOOOOOOO",
"OOOOOOOOO..XX...X.OOOOOOOOOOOOOO",
"OOOOOOOO.XXXoooooX.OOOOOOOOOOOOO",
"OOOOOOO.XoooooooooX.OOOOOOOOOOOO",
"OOOOOOO.XoooooooooX.OOOOOOOOOOOO",
"OOOOOOO.ooooooooooo.OOOOOOOOOOOO",
"OOOOOOO.oooooooooooX.OOOOOOOOOOO",
"OOOOOOO.XoooooXooooX.OOOOOOOOOOO",
"OOOOOOO.XooooooXooooX.OOOOOOOOOO",
"OOOOOOO.XoooooX.XooXXX.OOOOOOOOO",
"OOOOOOO.XXoXoXX.XXoXXX.OOOOOOOOO",
"OOOOOOO.XXXoXX. .XXXXX.OOOOOOOOO",
"OOOOOOOO.XXXX.  .XX.X.OOOOOOOOOO",
"OOOOOOOO.X.XX.   .XX.OOOOOOOOOOO",
"OOOOOOOO..O...OO ...OOOOOOOOOOOO",
"OOOOOOOOOOOO OOOO  OOOOOOOOOOOOO",
"OOOOOOOOOOO OOOOOO OOOOOOOOOOOOO"
};
