/* XPM */
static char *rcp04022482939438[] = {
/* columns rows colors chars-per-pixel */
"32 32 5 1 ",
"  c black",
". c #3A0911",
"X c #811426",
"o c #A11B31",
"O c white",
/* pixels */
"OOOOOOOOOOOOOOOOOOOOOOOOOOOOOOOO",
"OOOOOOOOOOOOOOOOOOOOOOOOOOOOOOOO",
"OOOOOOOOOOOOOOOOOOOOOOOOOOOOOOOO",
"OOOOOOOOOOOOOOOOOOOOOOOOOOOOOOOO",
"OOOOOOOOOOOOOOOOOOOOOOOOOOOOOOOO",
"OOOOOOOOOOOOOOOOOOOOOOOOOOOOOOOO",
"OOOOOOOOOOOOOOOOOOOOOOOOOOOOOOOO",
"OOOOOOOOOOOOOOOOOOOOOOOOOOOOOOOO",
"OOOOOOOOOOOOOOOOOOOOOOOOOOOOOOOO",
"OOOOOOOOOOOOOOOOOOOOOOOOOOOOOOOO",
"OOOOOOOOOOOOOOOOOOOOOOOOOOOOOOOO",
"OOOOOOOOOOOOOOOOOOOOOOOOOOOOOOOO",
"OOOOOOOOOOOOOOOOOOOOOOOOOOOOOOOO",
"OOOOOOOOOOOOOOOOOOOOOOOOOOOOOOOO",
"OOOOOOOOOOOOOOOOOOOOOOOOOOOOOOOO",
"OOOOOOOOOOOOOOOOOOOOOOOOOOOOOOOO",
"OOOOOOOOOOOOOOOOOOOOOOOOOOOOOOOO",
"OOOOOOOOOOOOOOOOOOOOOOOOOOOOOOOO",
"OOOOOOOOOOOOOOOOOOOOOOOOOOOOOOOO",
"OOOOOOOOOOOOOOOOOOOOOOOOOOOOOOOO",
"OOOOOOOOOOOOOOOOOOOO........OOOO",
"OOOOOOOOOOOOOOOOO...oooooooo.OOO",
"OOOOOOOOOOOOOOOO.oooooooooooo.OO",
"OOOOOOOOOOOOOOOO.oooooooooooo.OO",
"OOOOOOOOOOO......ooooooooooooo.O",
"OOOOOOOO...oooooX...XooooooooX.O",
"OOOOOOO.ooooooooooXXoooooooooo.O",
"OOOOOO.XoooooooooooooooooooooX.O",
"OOOOO.XoooooooooooooooooooooXX.O",
"OOOO.XXXooXXXXXXXXooXXXXoooXXX.O",
"OOOO.XXXXXXXXXXXXXXXXXXXXXXXX.OO",
"OO   ........................OOO"
};
