/* XPM */
static char *rcp02144039223371[] = {
/* columns rows colors chars-per-pixel */
"32 32 118 2 ",
"   c #211C1D",
".  c #241F20",
"X  c #202121",
"o  c #212222",
"O  c #222222",
"+  c #252424",
"@  c #2B2525",
"#  c #2F2525",
"$  c #2C2828",
"%  c #2E2929",
"&  c #2E2A29",
"*  c #2F2A29",
"=  c #2F2A2A",
"-  c #312727",
";  c #302A2A",
":  c #362E2D",
">  c #362F2E",
",  c #372F2F",
"<  c #3A3131",
"1  c #3E3231",
"2  c #3B3F3D",
"3  c #403532",
"4  c #403534",
"5  c #403535",
"6  c #403635",
"7  c #413635",
"8  c #423736",
"9  c #433736",
"0  c #443635",
"q  c #453835",
"w  c #453837",
"e  c #463936",
"r  c #463937",
"t  c #473937",
"y  c #473939",
"u  c #463A39",
"i  c #473A39",
"p  c #473B3A",
"a  c #483A38",
"s  c #483B3A",
"d  c #4A3C39",
"f  c #4B3C3B",
"g  c #4F3E3B",
"h  c #4C3D3C",
"j  c #4C3E3C",
"k  c #4D3E3C",
"l  c #513F3C",
"z  c #53413E",
"x  c #53423F",
"c  c #55413E",
"v  c #54423F",
"b  c #325452",
"n  c #534340",
"m  c #544340",
"M  c #544341",
"N  c #574340",
"B  c #574542",
"V  c #574642",
"C  c #584441",
"Z  c #584643",
"A  c #5E5551",
"S  c #5E5652",
"D  c #604B46",
"F  c #614C47",
"G  c #624C47",
"H  c #614C48",
"J  c #644F4A",
"K  c #654F4A",
"L  c #69514C",
"P  c #6A524C",
"I  c #6C544E",
"U  c #6D554F",
"Y  c #6E554F",
"T  c #615956",
"R  c #705751",
"E  c #755A53",
"W  c #775C55",
"Q  c #785C55",
"!  c #5E645F",
"~  c #676964",
"^  c #676A65",
"/  c #766661",
"(  c #69726D",
")  c #6A726D",
"_  c #6B736E",
"`  c #7E7E78",
"'  c #817D78",
"]  c #827D78",
"[  c #867F7A",
"{  c #48807D",
"}  c #5A8581",
"|  c #4E908D",
" . c #51918E",
".. c #51928E",
"X. c #589996",
"o. c #5B9A97",
"O. c #7F928D",
"+. c #8F8B85",
"@. c #958781",
"#. c #908C86",
"$. c #908D87",
"%. c #9A8B84",
"&. c #9A8C85",
"*. c #80928D",
"=. c #9C928B",
"-. c #8EAAA5",
";. c #82B1AC",
":. c #AAAAA4",
">. c #C5BFB8",
",. c #ACC5BE",
"<. c #C8C1B9",
"1. c #CEC4BC",
"2. c #C4CCC5",
"3. c #CBCCC4",
"4. c #CED2CA",
"5. c #CED3CA",
"6. c #DFD9D0",
"7. c #DFDAD1",
/* pixels */
"O O O O O ; 6 6 ; O O O O O O * 6 s s s s 6 * ; 6 6 ; O O O O O ",
"O + * * * , 6 6 , * ; ; * * * , 6 s s s s 6 , , 6 6 , * * , 3 w ",
"O * < 6 6 6 u u 6 6 6 6 6 6 6 6 u s s s s u 6 6 u u 6 6 6 h D L ",
"* , 6 s s s s u 0 0 u s s s s s s s s s s u 0 0 u s s u s V U W ",
"6 6 u s s s s s s s s s s s s s s s s s s s s s s s s s s C U Q ",
"s s s s s w 6 T [ [ T 6 w s s s s s s w 6 T [ [ T 6 w s s V U W ",
"s s s s s 1 , ] >.>.] , 1 s s s s s s 1 , ] >.>.] , 1 u s V U W ",
"6 6 u u 6 - @ #.6.6.+.. # 6 u s s u 6 - @ #.6.6.+.. # 6 u V U W ",
"* , 6 6 ,   + #.6.6.#.+   , 6 s s 6 ,   + #.6.6.#.+   , 6 V U W ",
"; , 6 s w 2 b O.2.5.:.] S w w s s s w 2 b O.2.5.:.] S w w V U W ",
"6 6 u z F ! { X.;.,.5.<.@.F g s s z F ! { X.;.,.5.<.@.F g V U W ",
"6 6 u c K ^ } | ..-.3.1.%.K l u u c K ^ } | ..-.3.1.%.K l n K U ",
"; , 6 h m S ^ ( ( ` =.&./ m f s s h m S ^ ( ( ` =.&./ m f h n V ",
"O * 6 u s m K U U U U K m s u s s u s m K U U U U K m s u h m C ",
"O * 6 s s h c C C m c l f u s s s s u h c C C m c l f u s n K U ",
"O * 6 s s s s u 0 0 u s s s s s s s s s s u 0 0 u s s u s n K U ",
"O * 6 s s s u u u u u u s s s s s s s s u u u u u u s s s h m C ",
"* , 6 s s w 6 T [ [ T 6 w s s s s s s w 6 T [ [ T 6 w s s h m V ",
"6 6 u s s 1 , ] >.>.] , 1 s s s s s s 1 , ] >.>.] , 1 u s n K U ",
"s s s u 6 - @ #.6.6.#.@ - 6 u s s u 6 - @ #.6.6.+.. # 6 u V U W ",
"s s s 6 ,   + #.6.6.#.+   , 6 s s 6 ,   + #.6.6.#.+   , 6 V U W ",
"6 6 u s w 2 b *.2.2.*.b 2 w s s s s w 2 b O.2.5.:.] S w w m K U ",
"* , 6 z F ! { X.;.;.X.{ ! F z s s z F ! { X.;.,.5.<.@.F g h n V ",
"O * 6 c K ^ } ........} ^ K c u u c K ^ } | ..-.3.1.%.K l s u u ",
"O * 6 h m S ^ ( ( ( ( ^ S m h s s h m S ^ ( ( ` =.&./ m f s u u ",
"O * 6 u s m K U U U U K m s u s s u s m K U U U U K m s u h m V ",
"O * 6 s s h c C C C C c h u s s s s u h c C C m c l f u s m K U ",
"O * 6 u s u s s s s u u s s u u u u u u u u s s u u u u u V U W ",
"O * 6 s s s u u u u u u s s s s s s s s u u u u u u s u s V U W ",
"w f z V V m h s s h m n h h n V V V V V V n h h n V V V V H R W ",
"L L U U U K m u u m K K m m K U U U U U U K m m K U U U U R E W ",
"W W W W W U V u u C U U C V U W W W W W W U V V U W W W W W W W "
};
