/* XPM */
static char *rcp0214411767111[] = {
/* columns rows colors chars-per-pixel */
"32 32 142 2 ",
"   c #202121",
".  c #212222",
"X  c #222222",
"o  c #252424",
"O  c #282223",
"+  c #2D2727",
"@  c #2C2828",
"#  c #2E2929",
"$  c #2E2A29",
"%  c #2F2A29",
"&  c #2F2A2A",
"*  c #312929",
"=  c #322929",
"-  c #302A2A",
";  c #362E2D",
":  c #362F2E",
">  c #372F2F",
",  c #3A3131",
"<  c #3E3231",
"1  c #413232",
"2  c #423332",
"3  c #403532",
"4  c #433433",
"5  c #403534",
"6  c #413534",
"7  c #403535",
"8  c #413535",
"9  c #423434",
"0  c #423534",
"q  c #403635",
"w  c #413635",
"e  c #423736",
"r  c #433736",
"t  c #443635",
"y  c #443636",
"u  c #453835",
"i  c #443837",
"p  c #463936",
"a  c #463937",
"s  c #473937",
"d  c #483837",
"f  c #463938",
"g  c #473938",
"h  c #463A39",
"j  c #473A39",
"k  c #473B3A",
"l  c #483938",
"z  c #483B3A",
"x  c #4A3C39",
"c  c #4B3C3B",
"v  c #4E3C3A",
"b  c #4C3D3C",
"n  c #4C3E3C",
"m  c #4D3E3C",
"M  c #513F3C",
"N  c #3C403F",
"B  c #52403D",
"V  c #53423F",
"C  c #55413E",
"Z  c #54423F",
"A  c #325251",
"S  c #3B7D7A",
"D  c #534340",
"F  c #544340",
"G  c #544341",
"H  c #574340",
"J  c #574542",
"K  c #574642",
"L  c #584441",
"P  c #584643",
"I  c #445957",
"U  c #5E5451",
"Y  c #5E5653",
"T  c #604B46",
"R  c #614C47",
"E  c #624C47",
"W  c #614C48",
"Q  c #644F4A",
"!  c #654F4A",
"~  c #69514C",
"^  c #6A524C",
"/  c #6B524C",
"(  c #6C544E",
")  c #6D554F",
"_  c #6E554F",
"`  c #655C59",
"'  c #705751",
"]  c #755A53",
"[  c #775C55",
"{  c #785C55",
"}  c #43615F",
"|  c #5F6D69",
" . c #676964",
".. c #756560",
"X. c #6B726D",
"o. c #6C736E",
"O. c #817C77",
"+. c #807F79",
"@. c #867F7A",
"#. c #87807B",
"$. c #88817C",
"%. c #89817D",
"&. c #89827D",
"*. c #3E8E8B",
"=. c #339E9B",
"-. c #349E9B",
";. c #369F9C",
":. c #3BA09D",
">. c #5A8581",
",. c #4B908D",
"<. c #4E908D",
"1. c #51928E",
"2. c #5C9B97",
"3. c #988A83",
"4. c #9A8B84",
"5. c #97908A",
"6. c #98908A",
"7. c #98918B",
"8. c #9B918A",
"9. c #98928C",
"0. c #879590",
"q. c #A49890",
"w. c #8EAAA5",
"e. c #83B1AC",
"r. c #93BCB7",
"t. c #95BEB8",
"y. c #AEACA5",
"u. c #C5BFB8",
"i. c #ACC5BE",
"p. c #C6C0B8",
"a. c #C6C0B9",
"s. c #CEC4BC",
"d. c #C6CDC5",
"f. c #CBCCC4",
"g. c #D0D3CB",
"h. c #E0DAD1",
"j. c #E1DAD1",
"k. c #E0DAD2",
"l. c #E1DBD2",
"z. c #E3DCD3",
"x. c #E0E5DC",
"c. c #E0E5DD",
/* pixels */
"X X X X X - q q - X X X X X X % q z z z z q % - q q - X X X X X ",
"X o % % % > q q - O + % % % % > q z z z z q - - q q > % % > 4 i ",
"X % , q q q h h q q q q q q q q h z z z z h q q h h q q q b T / ",
"% > q z z h z ` #.#.` z h z z z z z z h z ` #.#.` z z h z K ( [ ",
"q q h z z y z %.a.a.%.z y z z z z z z y z %.a.a.%.z y z z L ( { ",
"z z z z z 4 z 7.h.h.5.y 1 z z z z z z 4 z 7.h.h.5.y 1 z z K ( [ ",
"z z z z z q z 9.h.h.9.z q z z z z z z q z 9.h.h.9.z q h z K ( [ ",
"q q h h q N I 0.d.g.y.@.Y q i z z h q N I 0.d.g.y.@.Y q i K ( [ ",
"% > q q > A S 2.e.i.g.u.O.> < z z q > A S 2.e.i.g.u.O.> < K ( [ ",
"- > q d i } *.-.:.t.x.h.7.i 1 z z d i } *.-.:.t.x.h.7.i 1 K ( [ ",
"q q h B R | ,.=.;.r.x.z.q.R v z z B R | ,.=.;.r.x.z.q.R v K ( [ ",
"q q h C !  .>.<.1.w.f.s.4.! M h h C !  .>.<.1.w.f.s.4.! M D ! ( ",
"- > q b F Y  .X.o.+.7.3...F c z z b F Y  .X.o.+.7.3...F c b D K ",
"X % q h z F ! ( / / ( ! F z h z z h z F ! ( / / ( ! F z h b F L ",
"X % q z z b C L L F C M c h z z z z h b C L L F C M c h z D ! ( ",
"X % q z z h z ` #.#.` z h z z z z z z h z ` #.#.` z h h z D ! ( ",
"X % q z z y h %.a.a.%.h y z z z z z z y h %.a.a.%.h y z z b F L ",
"% > q z z 4 z 7.h.h.5.y 1 z z z z z z 4 z 7.h.h.5.y 1 z z b F K ",
"q q h z z q z 9.h.h.9.z q z z z z z z q z 9.h.h.9.z q h z D ! ( ",
"z z z h q N I 0.d.g.y.@.Y q i z z h q N I 0.d.g.y.@.Y q i K ( [ ",
"z z z q > A S 2.e.i.g.u.O.> < z z q > A S 2.e.i.g.u.O.> < K ( [ ",
"q q h d i } *.-.:.t.x.h.7.i 1 z z d i } *.-.:.t.x.h.7.i 1 F ! ( ",
"% > q B R | ,.=.;.r.x.z.q.R v z z B R | ,.=.;.r.x.z.q.R v b D K ",
"X % q C !  .>.<.1.w.f.s.4.! M h h C !  .>.<.1.w.f.s.4.! M z h h ",
"X % q b F Y  .X.o.+.7.3...F c z z b F Y  .X.o.+.7.3...F c z h h ",
"X % q h z F ! ( ( ( ( ! F z h z z h z F ! ( ( ( ( ! F z h b F K ",
"X % q z z b C L L F C M c h z z z z h b C L L F C M c h z F ! ( ",
"X % q h z h z z z z h h z z h h h h h h h h z z h h h h h K ( [ ",
"X % q z z z h h h h h h z z z z z z z z h h h h h h z h z K ( [ ",
"i c B K K F b z z b F D b b D K K K K K K D b b D K K K K W ' [ ",
"/ / ( ( ( ! F h h F ! ! F F ! ( ( ( ( ( ( ! F F ! ( ( ( ( ' ] [ ",
"[ [ [ [ [ ( K h h L ( ( L K ( [ [ [ [ [ [ ( K K ( [ [ [ [ [ [ [ "
};
