/* XPM */
static char *rcp0214387179388[] = {
/* columns rows colors chars-per-pixel */
"32 32 66 1 ",
"  c #1F2021",
". c #202121",
"X c #212222",
"o c #222222",
"O c #252424",
"+ c #2D2827",
"@ c #2C2828",
"# c #2E2929",
"$ c #2E2A29",
"% c #2F2A29",
"& c #2F2A2A",
"* c #302A2A",
"= c #362E2D",
"- c #362F2E",
"; c #372F2F",
": c #393130",
"> c #3A3131",
", c #3E3431",
"< c #3F3431",
"1 c #403532",
"2 c #403534",
"3 c #403535",
"4 c #403635",
"5 c #413635",
"6 c #423736",
"7 c #433736",
"8 c #453835",
"9 c #463935",
"0 c #463936",
"q c #463937",
"w c #473937",
"e c #463A39",
"r c #473A39",
"t c #473B3A",
"y c #483B39",
"u c #483B3A",
"i c #4A3C39",
"p c #4C3E3C",
"a c #4D3E3C",
"s c #53423D",
"d c #53423F",
"f c #534340",
"g c #544340",
"h c #544341",
"j c #574542",
"k c #574642",
"l c #584643",
"z c #5C4843",
"x c #5D4945",
"c c #604B46",
"v c #614C47",
"b c #624C47",
"n c #614C48",
"m c #654F49",
"M c #644F4A",
"N c #654F4A",
"B c #69514C",
"V c #69524C",
"C c #6A524C",
"Z c #6C544E",
"A c #6D554F",
"S c #6E554F",
"D c #705751",
"F c #755A53",
"G c #775C55",
"H c #785C55",
/* pixels */
"ooooo*44*oooooo%4uuuu4%*44*ooooo",
"oO%%%;44;%**%%%;4uuuu4;;44;%%;18",
"o%>444ee44444444euuuue44ee444pcB",
"%;4uuuuuuuuuuuuuuuuuuuuuuuueukAG",
"44euuuuuuuuuuuuuuuuuuuuuuuuuulAH",
"uuuuue444444euuuuuue444444euukAG",
"uuuuu4;%%%%;4uuuuuu4;%%%%;4eukAG",
"44ee4>%oooo%>4euue4>%oooo%>4ekAG",
"%;44;%OooooO%;4uu4;%OooooO%;4kAG",
"*;4u8<+o  o+<8uuuu8<+o  o+<8ukAG",
"44esvz<oooo<zvsuusvz<oooo<zvskAG",
"44ehNNs8888sNNheehNNs8888sNNhfNA",
"*;4phxNBBBBNxhpuuphxNBBBBNxhppfk",
"o%4euhNAAAANhueuueuhNAAAANhuephl",
"o%4uuphllllhpeuuuuephllllhpeufNA",
"o%4uuuuuuuuuuuuuuuuuuuuuuuueufNA",
"o%4uuueeeeeeuuuuuuuueeeeeeuuuphl",
"%;4uue444444euuuuuue444444euuphk",
"44euu4;%%%%;4uuuuuu4;%%%%;4eufNA",
"uuue4>%oooo%>4euue4>%oooo%>4ekAG",
"uuu4;%OooooO%;4uu4;%OooooO%;4kAG",
"44eu8<+o  o+<8uuuu8<+o  o+<8uhNA",
"%;4svz<oooo<zvsuusvz<oooo<zvspfk",
"o%4hNNs8888sNNheehNNs8888sNNhuee",
"o%4phxNBBBBNxhpuuphxNBBBBNxhpuee",
"o%4euhNAAAANhueuueuhNAAAANhuephk",
"o%4uuphllllhpeuuuuephllllhpeuhNA",
"o%4eueuuuueeuueeeeeeeeuueeeeekAG",
"o%4uuueeeeeeuuuuuuuueeeeeeueukAG",
"8iskkhpuuphfppfkkkkkkfppfkkkknDG",
"BBAAANheehNNhhNAAAAAANhhNAAAADFG",
"GGGGGAkeelAAlkAGGGGGGAkkAGGGGGGG"
};
